solid OpenSCAD_Model
  facet normal -1 0 0
    outer loop
      vertex 0 0 0
      vertex 0 0 10
      vertex 0 30 0
    endloop
  endfacet
  facet normal -1 0 0
    outer loop
      vertex 0 30 0
      vertex 0 0 10
      vertex 0 30 10
    endloop
  endfacet
  facet normal 0 -1 0
    outer loop
      vertex 0 0 10
      vertex 0 0 0
      vertex 30 0 0
    endloop
  endfacet
  facet normal 0 -1 0
    outer loop
      vertex 30 0 10
      vertex 0 0 10
      vertex 30 0 0
    endloop
  endfacet
  facet normal 0 0 -1
    outer loop
      vertex 8.89058 26.7798 0
      vertex 0 30 0
      vertex 30 30 0
    endloop
  endfacet
  facet normal 0 0 -1
    outer loop
      vertex 0 0 0
      vertex 0 30 0
      vertex 3.09834 8.4356 0
    endloop
  endfacet
  facet normal 0 0 -1
    outer loop
      vertex 7.02962 18.0247 0
      vertex 11.611 9.33031 0
      vertex 10.5111 10.8442 0
    endloop
  endfacet
  facet normal 0 0 -1
    outer loop
      vertex 0 0 0
      vertex 3.09834 8.4356 0
      vertex 3.09834 6.5644 0
    endloop
  endfacet
  facet normal 0 0 -1
    outer loop
      vertex 12 7.5 0
      vertex 20.25 3.60289 0
      vertex 11.611 5.66968 0
    endloop
  endfacet
  facet normal 0 0 -1
    outer loop
      vertex 0 0 0
      vertex 3.09834 6.5644 0
      vertex 3.85942 4.85497 0
    endloop
  endfacet
  facet normal 0 0 -1
    outer loop
      vertex 0 0 0
      vertex 3.85942 4.85497 0
      vertex 5.25 3.60289 0
    endloop
  endfacet
  facet normal 0 0 -1
    outer loop
      vertex 0 0 0
      vertex 5.25 3.60289 0
      vertex 7.02962 3.02465 0
    endloop
  endfacet
  facet normal 0 0 -1
    outer loop
      vertex 0 0 0
      vertex 7.02962 3.02465 0
      vertex 30 0 0
    endloop
  endfacet
  facet normal 0 0 -1
    outer loop
      vertex 10.5111 4.15585 0
      vertex 30 0 0
      vertex 8.89058 3.22025 0
    endloop
  endfacet
  facet normal 0 0 -1
    outer loop
      vertex 11.611 5.66968 0
      vertex 30 0 0
      vertex 10.5111 4.15585 0
    endloop
  endfacet
  facet normal 0 0 -1
    outer loop
      vertex 20.25 3.60289 0
      vertex 30 0 0
      vertex 11.611 5.66968 0
    endloop
  endfacet
  facet normal 0 0 -1
    outer loop
      vertex 3.09834 23.4356 0
      vertex 0 30 0
      vertex 3.85942 25.145 0
    endloop
  endfacet
  facet normal 0 0 -1
    outer loop
      vertex 20.25 3.60289 0
      vertex 12 7.5 0
      vertex 18.8594 4.85497 0
    endloop
  endfacet
  facet normal 0 0 -1
    outer loop
      vertex 3.09834 21.5644 0
      vertex 0 30 0
      vertex 3.09834 23.4356 0
    endloop
  endfacet
  facet normal 0 0 -1
    outer loop
      vertex 3.85942 10.145 0
      vertex 0 30 0
      vertex 5.25 11.3971 0
    endloop
  endfacet
  facet normal 0 0 -1
    outer loop
      vertex 3.09834 8.4356 0
      vertex 0 30 0
      vertex 3.85942 10.145 0
    endloop
  endfacet
  facet normal 0 0 -1
    outer loop
      vertex 5.25 11.3971 0
      vertex 0 30 0
      vertex 3.09834 21.5644 0
    endloop
  endfacet
  facet normal 0 0 -1
    outer loop
      vertex 5.25 11.3971 0
      vertex 3.09834 21.5644 0
      vertex 7.02962 11.9753 0
    endloop
  endfacet
  facet normal 0 0 -1
    outer loop
      vertex 5.25 18.6029 0
      vertex 7.02962 11.9753 0
      vertex 3.85942 19.855 0
    endloop
  endfacet
  facet normal 0 0 -1
    outer loop
      vertex 3.09834 21.5644 0
      vertex 3.85942 19.855 0
      vertex 7.02962 11.9753 0
    endloop
  endfacet
  facet normal 0 0 -1
    outer loop
      vertex 7.02962 18.0247 0
      vertex 8.89058 11.7798 0
      vertex 5.25 18.6029 0
    endloop
  endfacet
  facet normal 0 0 -1
    outer loop
      vertex 7.02962 11.9753 0
      vertex 5.25 18.6029 0
      vertex 8.89058 11.7798 0
    endloop
  endfacet
  facet normal 0 0 -1
    outer loop
      vertex 18.8594 4.85497 0
      vertex 11.611 9.33031 0
      vertex 18.0983 6.5644 0
    endloop
  endfacet
  facet normal 0 0 -1
    outer loop
      vertex 25.5111 4.15585 0
      vertex 30 0 0
      vertex 23.8906 3.22025 0
    endloop
  endfacet
  facet normal 0 0 -1
    outer loop
      vertex 18.0983 8.4356 0
      vertex 7.02962 18.0247 0
      vertex 8.89058 18.2202 0
    endloop
  endfacet
  facet normal 0 0 -1
    outer loop
      vertex 7.02962 26.9753 0
      vertex 0 30 0
      vertex 8.89058 26.7798 0
    endloop
  endfacet
  facet normal 0 0 -1
    outer loop
      vertex 20 21.65 0
      vertex 11.611 20.6697 0
      vertex 30 30 0
    endloop
  endfacet
  facet normal 0 0 -1
    outer loop
      vertex 3.85942 25.145 0
      vertex 0 30 0
      vertex 5.25 26.3971 0
    endloop
  endfacet
  facet normal 0 0 -1
    outer loop
      vertex 11.611 20.6697 0
      vertex 12 22.5 0
      vertex 30 30 0
    endloop
  endfacet
  facet normal 0 0 -1
    outer loop
      vertex 12 22.5 0
      vertex 11.611 24.3303 0
      vertex 30 30 0
    endloop
  endfacet
  facet normal 0 0 -1
    outer loop
      vertex 5.25 26.3971 0
      vertex 0 30 0
      vertex 7.02962 26.9753 0
    endloop
  endfacet
  facet normal 0 0 -1
    outer loop
      vertex 11.611 24.3303 0
      vertex 10.5111 25.8442 0
      vertex 30 30 0
    endloop
  endfacet
  facet normal 0 0 -1
    outer loop
      vertex 10.5111 25.8442 0
      vertex 8.89058 26.7798 0
      vertex 30 30 0
    endloop
  endfacet
  facet normal 0 0 -1
    outer loop
      vertex 26.611 5.66968 0
      vertex 30 0 0
      vertex 25.5111 4.15585 0
    endloop
  endfacet
  facet normal 0 0 -1
    outer loop
      vertex 11.611 9.33031 0
      vertex 7.02962 18.0247 0
      vertex 18.0983 8.4356 0
    endloop
  endfacet
  facet normal 0 0 -1
    outer loop
      vertex 11.611 9.33031 0
      vertex 18.0983 8.4356 0
      vertex 18.0983 6.5644 0
    endloop
  endfacet
  facet normal 0 0 -1
    outer loop
      vertex 12 7.5 0
      vertex 11.611 9.33031 0
      vertex 18.8594 4.85497 0
    endloop
  endfacet
  facet normal 0 0 -1
    outer loop
      vertex 23.8906 3.22025 0
      vertex 30 0 0
      vertex 22.0296 3.02465 0
    endloop
  endfacet
  facet normal 0 0 -1
    outer loop
      vertex 20.25 3.60289 0
      vertex 22.0296 3.02465 0
      vertex 30 0 0
    endloop
  endfacet
  facet normal 0 0 -1
    outer loop
      vertex 20 18.35 0
      vertex 25.5111 10.8442 0
      vertex 19.175 18.5711 0
    endloop
  endfacet
  facet normal 0 0 -1
    outer loop
      vertex 18.8594 10.145 0
      vertex 10.5111 19.1558 0
      vertex 11.611 20.6697 0
    endloop
  endfacet
  facet normal 0 0 -1
    outer loop
      vertex 30 0 0
      vertex 26.611 5.66968 0
      vertex 27 7.5 0
    endloop
  endfacet
  facet normal 0 0 -1
    outer loop
      vertex 30 0 0
      vertex 27 7.5 0
      vertex 30 30 0
    endloop
  endfacet
  facet normal 0 0 -1
    outer loop
      vertex 20.25 11.3971 0
      vertex 11.611 20.6697 0
      vertex 22.0296 11.9753 0
    endloop
  endfacet
  facet normal 0 0 -1
    outer loop
      vertex 22.0296 11.9753 0
      vertex 11.611 20.6697 0
      vertex 23.8906 11.7798 0
    endloop
  endfacet
  facet normal 0 0 -1
    outer loop
      vertex 23.8906 11.7798 0
      vertex 11.611 20.6697 0
      vertex 25.5111 10.8442 0
    endloop
  endfacet
  facet normal 0 0 -1
    outer loop
      vertex 26.611 9.33031 0
      vertex 25.5111 10.8442 0
      vertex 30 30 0
    endloop
  endfacet
  facet normal 0 0 -1
    outer loop
      vertex 18.8594 10.145 0
      vertex 11.611 20.6697 0
      vertex 20.25 11.3971 0
    endloop
  endfacet
  facet normal 0 0 -1
    outer loop
      vertex 26.611 9.33031 0
      vertex 30 30 0
      vertex 27 7.5 0
    endloop
  endfacet
  facet normal 0 0 -1
    outer loop
      vertex 8.89058 18.2202 0
      vertex 10.5111 19.1558 0
      vertex 18.8594 10.145 0
    endloop
  endfacet
  facet normal 0 0 -1
    outer loop
      vertex 18.5711 19.175 0
      vertex 11.611 20.6697 0
      vertex 18.35 20 0
    endloop
  endfacet
  facet normal 0 0 -1
    outer loop
      vertex 25.5111 10.8442 0
      vertex 11.611 20.6697 0
      vertex 18.5711 19.175 0
    endloop
  endfacet
  facet normal 0 0 -1
    outer loop
      vertex 25.5111 10.8442 0
      vertex 18.5711 19.175 0
      vertex 19.175 18.5711 0
    endloop
  endfacet
  facet normal 0 0 -1
    outer loop
      vertex 21.65 20 0
      vertex 30 30 0
      vertex 21.4289 19.175 0
    endloop
  endfacet
  facet normal 0 0 -1
    outer loop
      vertex 25.5111 10.8442 0
      vertex 20 18.35 0
      vertex 20.825 18.5711 0
    endloop
  endfacet
  facet normal 0 0 -1
    outer loop
      vertex 25.5111 10.8442 0
      vertex 20.825 18.5711 0
      vertex 21.4289 19.175 0
    endloop
  endfacet
  facet normal 0 0 -1
    outer loop
      vertex 25.5111 10.8442 0
      vertex 21.4289 19.175 0
      vertex 30 30 0
    endloop
  endfacet
  facet normal 0 0 -1
    outer loop
      vertex 21.4289 20.825 0
      vertex 30 30 0
      vertex 21.65 20 0
    endloop
  endfacet
  facet normal 0 0 -1
    outer loop
      vertex 20 21.65 0
      vertex 30 30 0
      vertex 20.825 21.4289 0
    endloop
  endfacet
  facet normal 0 0 -1
    outer loop
      vertex 21.4289 20.825 0
      vertex 20.825 21.4289 0
      vertex 30 30 0
    endloop
  endfacet
  facet normal 0 0 -1
    outer loop
      vertex 19.175 21.4289 0
      vertex 11.611 20.6697 0
      vertex 20 21.65 0
    endloop
  endfacet
  facet normal 0 0 -1
    outer loop
      vertex 18.5711 20.825 0
      vertex 11.611 20.6697 0
      vertex 19.175 21.4289 0
    endloop
  endfacet
  facet normal 0 0 -1
    outer loop
      vertex 18.35 20 0
      vertex 11.611 20.6697 0
      vertex 18.5711 20.825 0
    endloop
  endfacet
  facet normal 0 0 -1
    outer loop
      vertex 8.89058 3.22025 0
      vertex 30 0 0
      vertex 7.02962 3.02465 0
    endloop
  endfacet
  facet normal 0 0 -1
    outer loop
      vertex 7.02962 18.0247 0
      vertex 10.5111 10.8442 0
      vertex 8.89058 11.7798 0
    endloop
  endfacet
  facet normal 0 0 -1
    outer loop
      vertex 18.0983 8.4356 0
      vertex 8.89058 18.2202 0
      vertex 18.8594 10.145 0
    endloop
  endfacet
  facet normal 0 1 0
    outer loop
      vertex 0 30 0
      vertex 0 30 10
      vertex 30 30 0
    endloop
  endfacet
  facet normal 0 1 0
    outer loop
      vertex 12.5 30 7.6
      vertex 0 30 10
      vertex 12.5 30 10
    endloop
  endfacet
  facet normal 0 1 0
    outer loop
      vertex 30 30 0
      vertex 0 30 10
      vertex 12.5 30 7.6
    endloop
  endfacet
  facet normal 0 1 0
    outer loop
      vertex 30 30 7.6
      vertex 30 30 0
      vertex 12.5 30 7.6
    endloop
  endfacet
  facet normal 0 0 1
    outer loop
      vertex 9.53002 5.79661 10
      vertex 0 0 10
      vertex 30 0 10
    endloop
  endfacet
  facet normal 0 0 1
    outer loop
      vertex 10.15 22.5 10
      vertex 12.5 30 10
      vertex 9.53002 24.2034 10
    endloop
  endfacet
  facet normal 0 0 1
    outer loop
      vertex 7.96017 4.89026 10
      vertex 6.175 5.20503 10
      vertex 0 0 10
    endloop
  endfacet
  facet normal 0 0 1
    outer loop
      vertex 0 30 10
      vertex 0 0 10
      vertex 5.00981 6.59365 10
    endloop
  endfacet
  facet normal 0 0 1
    outer loop
      vertex 5.00981 21.5936 10
      vertex 5.00981 23.4064 10
      vertex 0 30 10
    endloop
  endfacet
  facet normal 0 0 1
    outer loop
      vertex 0 30 10
      vertex 5.00981 6.59365 10
      vertex 5.00981 8.40635 10
    endloop
  endfacet
  facet normal 0 0 1
    outer loop
      vertex 5.00981 21.5936 10
      vertex 6.175 9.79497 10
      vertex 12.5 12.5 10
    endloop
  endfacet
  facet normal 0 0 1
    outer loop
      vertex 0 30 10
      vertex 5.00981 8.40635 10
      vertex 6.175 9.79497 10
    endloop
  endfacet
  facet normal 0 0 1
    outer loop
      vertex 6.175 9.79497 10
      vertex 7.96017 10.1097 10
      vertex 12.5 12.5 10
    endloop
  endfacet
  facet normal 0 0 1
    outer loop
      vertex 21.175 5.20503 10
      vertex 9.53002 9.20339 10
      vertex 30 0 10
    endloop
  endfacet
  facet normal 0 0 1
    outer loop
      vertex 9.53002 9.20339 10
      vertex 10.15 7.5 10
      vertex 30 0 10
    endloop
  endfacet
  facet normal 0 0 1
    outer loop
      vertex 10.15 7.5 10
      vertex 9.53002 5.79661 10
      vertex 30 0 10
    endloop
  endfacet
  facet normal 0 0 1
    outer loop
      vertex 7.96017 4.89026 10
      vertex 0 0 10
      vertex 9.53002 5.79661 10
    endloop
  endfacet
  facet normal 0 0 1
    outer loop
      vertex 7.96017 10.1097 10
      vertex 9.53002 9.20339 10
      vertex 12.5 12.5 10
    endloop
  endfacet
  facet normal 0 0 1
    outer loop
      vertex 6.175 20.205 10
      vertex 5.00981 21.5936 10
      vertex 12.5 12.5 10
    endloop
  endfacet
  facet normal 0 0 1
    outer loop
      vertex 0 30 10
      vertex 6.175 9.79497 10
      vertex 5.00981 21.5936 10
    endloop
  endfacet
  facet normal 0 0 1
    outer loop
      vertex 9.53002 24.2034 10
      vertex 12.5 30 10
      vertex 0 30 10
    endloop
  endfacet
  facet normal 0 0 1
    outer loop
      vertex 7.96017 25.1097 10
      vertex 0 30 10
      vertex 6.175 24.795 10
    endloop
  endfacet
  facet normal 0 0 1
    outer loop
      vertex 6.175 5.20503 10
      vertex 5.00981 6.59365 10
      vertex 0 0 10
    endloop
  endfacet
  facet normal 0 0 1
    outer loop
      vertex 12.5 12.5 10
      vertex 12.5 30 10
      vertex 10.15 22.5 10
    endloop
  endfacet
  facet normal 0 0 1
    outer loop
      vertex 9.53002 24.2034 10
      vertex 0 30 10
      vertex 7.96017 25.1097 10
    endloop
  endfacet
  facet normal 0 0 1
    outer loop
      vertex 5.00981 23.4064 10
      vertex 6.175 24.795 10
      vertex 0 30 10
    endloop
  endfacet
  facet normal 0 0 1
    outer loop
      vertex 12.5 12.5 10
      vertex 9.53002 9.20339 10
      vertex 20.0098 6.59365 10
    endloop
  endfacet
  facet normal 0 0 1
    outer loop
      vertex 30 12.5 10
      vertex 24.53 9.20339 10
      vertex 30 0 10
    endloop
  endfacet
  facet normal 0 0 1
    outer loop
      vertex 30 12.5 10
      vertex 22.9602 10.1097 10
      vertex 24.53 9.20339 10
    endloop
  endfacet
  facet normal 0 0 1
    outer loop
      vertex 24.53 9.20339 10
      vertex 25.15 7.5 10
      vertex 30 0 10
    endloop
  endfacet
  facet normal 0 0 1
    outer loop
      vertex 25.15 7.5 10
      vertex 24.53 5.79661 10
      vertex 30 0 10
    endloop
  endfacet
  facet normal 0 0 1
    outer loop
      vertex 20.0098 6.59365 10
      vertex 9.53002 9.20339 10
      vertex 21.175 5.20503 10
    endloop
  endfacet
  facet normal 0 0 1
    outer loop
      vertex 20.0098 6.59365 10
      vertex 20.0098 8.40635 10
      vertex 12.5 12.5 10
    endloop
  endfacet
  facet normal 0 0 1
    outer loop
      vertex 7.96017 19.8903 10
      vertex 6.175 20.205 10
      vertex 12.5 12.5 10
    endloop
  endfacet
  facet normal 0 0 1
    outer loop
      vertex 12.5 12.5 10
      vertex 9.53002 20.7966 10
      vertex 7.96017 19.8903 10
    endloop
  endfacet
  facet normal 0 0 1
    outer loop
      vertex 12.5 12.5 10
      vertex 10.15 22.5 10
      vertex 9.53002 20.7966 10
    endloop
  endfacet
  facet normal 0 0 1
    outer loop
      vertex 24.53 5.79661 10
      vertex 22.9602 4.89026 10
      vertex 30 0 10
    endloop
  endfacet
  facet normal 0 0 1
    outer loop
      vertex 30 12.5 10
      vertex 21.175 9.79497 10
      vertex 22.9602 10.1097 10
    endloop
  endfacet
  facet normal 0 0 1
    outer loop
      vertex 22.9602 4.89026 10
      vertex 21.175 5.20503 10
      vertex 30 0 10
    endloop
  endfacet
  facet normal 0 0 1
    outer loop
      vertex 21.175 9.79497 10
      vertex 12.5 12.5 10
      vertex 20.0098 8.40635 10
    endloop
  endfacet
  facet normal 0 0 1
    outer loop
      vertex 30 12.5 10
      vertex 12.5 12.5 10
      vertex 21.175 9.79497 10
    endloop
  endfacet
  facet normal 1 0 0
    outer loop
      vertex 30 0 10
      vertex 30 0 0
      vertex 30 30 0
    endloop
  endfacet
  facet normal 1 0 0
    outer loop
      vertex 30 12.5 7.6
      vertex 30 0 10
      vertex 30 30 0
    endloop
  endfacet
  facet normal 1 0 0
    outer loop
      vertex 30 30 7.6
      vertex 30 12.5 7.6
      vertex 30 30 0
    endloop
  endfacet
  facet normal 1 0 0
    outer loop
      vertex 30 12.5 7.6
      vertex 30 12.5 10
      vertex 30 0 10
    endloop
  endfacet
  facet normal 1 0 0
    outer loop
      vertex 3.09834 8.4356 0
      vertex 3.09834 8.4356 7
      vertex 3.09834 6.5644 7
    endloop
  endfacet
  facet normal 1 0 0
    outer loop
      vertex 3.09834 6.5644 0
      vertex 3.09834 8.4356 0
      vertex 3.09834 6.5644 7
    endloop
  endfacet
  facet normal 0.913545 -0.406737 0
    outer loop
      vertex 3.85942 10.145 0
      vertex 3.85942 10.145 7
      vertex 3.09834 8.4356 7
    endloop
  endfacet
  facet normal 0.913545 -0.406737 0
    outer loop
      vertex 3.09834 8.4356 0
      vertex 3.85942 10.145 0
      vertex 3.09834 8.4356 7
    endloop
  endfacet
  facet normal 0.669131 -0.743145 0
    outer loop
      vertex 5.25 11.3971 0
      vertex 5.25 11.3971 7
      vertex 3.85942 10.145 7
    endloop
  endfacet
  facet normal 0.669131 -0.743145 0
    outer loop
      vertex 3.85942 10.145 0
      vertex 5.25 11.3971 0
      vertex 3.85942 10.145 7
    endloop
  endfacet
  facet normal 0.309017 -0.951056 0
    outer loop
      vertex 7.02962 11.9753 0
      vertex 7.02962 11.9753 7
      vertex 5.25 11.3971 7
    endloop
  endfacet
  facet normal 0.309017 -0.951056 0
    outer loop
      vertex 5.25 11.3971 0
      vertex 7.02962 11.9753 0
      vertex 5.25 11.3971 7
    endloop
  endfacet
  facet normal -0.104529 -0.994522 0
    outer loop
      vertex 8.89058 11.7798 0
      vertex 8.89058 11.7798 7
      vertex 7.02962 11.9753 7
    endloop
  endfacet
  facet normal -0.104529 -0.994522 0
    outer loop
      vertex 7.02962 11.9753 0
      vertex 8.89058 11.7798 0
      vertex 7.02962 11.9753 7
    endloop
  endfacet
  facet normal -0.5 -0.866026 0
    outer loop
      vertex 10.5111 10.8442 0
      vertex 10.5111 10.8442 7
      vertex 8.89058 11.7798 7
    endloop
  endfacet
  facet normal -0.5 -0.866026 0
    outer loop
      vertex 8.89058 11.7798 0
      vertex 10.5111 10.8442 0
      vertex 8.89058 11.7798 7
    endloop
  endfacet
  facet normal -0.809017 -0.587785 0
    outer loop
      vertex 11.611 9.33031 7
      vertex 10.5111 10.8442 7
      vertex 11.611 9.33031 0
    endloop
  endfacet
  facet normal -0.809017 -0.587785 0
    outer loop
      vertex 11.611 9.33031 0
      vertex 10.5111 10.8442 7
      vertex 10.5111 10.8442 0
    endloop
  endfacet
  facet normal -0.978148 -0.207911 0
    outer loop
      vertex 12 7.5 7
      vertex 11.611 9.33031 7
      vertex 12 7.5 0
    endloop
  endfacet
  facet normal -0.978148 -0.207911 0
    outer loop
      vertex 12 7.5 0
      vertex 11.611 9.33031 7
      vertex 11.611 9.33031 0
    endloop
  endfacet
  facet normal -0.978148 0.207911 0
    outer loop
      vertex 12 7.5 7
      vertex 12 7.5 0
      vertex 11.611 5.66968 7
    endloop
  endfacet
  facet normal -0.978148 0.207911 0
    outer loop
      vertex 11.611 5.66968 7
      vertex 12 7.5 0
      vertex 11.611 5.66968 0
    endloop
  endfacet
  facet normal -0.809017 0.587785 0
    outer loop
      vertex 11.611 5.66968 7
      vertex 11.611 5.66968 0
      vertex 10.5111 4.15585 7
    endloop
  endfacet
  facet normal -0.809017 0.587785 0
    outer loop
      vertex 10.5111 4.15585 7
      vertex 11.611 5.66968 0
      vertex 10.5111 4.15585 0
    endloop
  endfacet
  facet normal -0.5 0.866026 0
    outer loop
      vertex 10.5111 4.15585 7
      vertex 10.5111 4.15585 0
      vertex 8.89058 3.22025 7
    endloop
  endfacet
  facet normal -0.5 0.866026 0
    outer loop
      vertex 8.89058 3.22025 7
      vertex 10.5111 4.15585 0
      vertex 8.89058 3.22025 0
    endloop
  endfacet
  facet normal -0.104529 0.994522 0
    outer loop
      vertex 8.89058 3.22025 7
      vertex 8.89058 3.22025 0
      vertex 7.02962 3.02465 7
    endloop
  endfacet
  facet normal -0.104529 0.994522 0
    outer loop
      vertex 7.02962 3.02465 7
      vertex 8.89058 3.22025 0
      vertex 7.02962 3.02465 0
    endloop
  endfacet
  facet normal 0.309017 0.951056 0
    outer loop
      vertex 7.02962 3.02465 7
      vertex 7.02962 3.02465 0
      vertex 5.25 3.60289 7
    endloop
  endfacet
  facet normal 0.309017 0.951056 0
    outer loop
      vertex 5.25 3.60289 7
      vertex 7.02962 3.02465 0
      vertex 5.25 3.60289 0
    endloop
  endfacet
  facet normal 0.669131 0.743145 0
    outer loop
      vertex 5.25 3.60289 7
      vertex 5.25 3.60289 0
      vertex 3.85942 4.85497 7
    endloop
  endfacet
  facet normal 0.669131 0.743145 0
    outer loop
      vertex 3.85942 4.85497 7
      vertex 5.25 3.60289 0
      vertex 3.85942 4.85497 0
    endloop
  endfacet
  facet normal 0.913545 0.406737 0
    outer loop
      vertex 3.09834 6.5644 7
      vertex 3.85942 4.85497 7
      vertex 3.85942 4.85497 0
    endloop
  endfacet
  facet normal 0.913545 0.406737 0
    outer loop
      vertex 3.09834 6.5644 0
      vertex 3.09834 6.5644 7
      vertex 3.85942 4.85497 0
    endloop
  endfacet
  facet normal 0.913545 -0.406737 0
    outer loop
      vertex 3.85942 25.145 0
      vertex 3.85942 25.145 7
      vertex 3.09834 23.4356 7
    endloop
  endfacet
  facet normal 0.913545 -0.406737 0
    outer loop
      vertex 3.09834 23.4356 0
      vertex 3.85942 25.145 0
      vertex 3.09834 23.4356 7
    endloop
  endfacet
  facet normal 1 0 0
    outer loop
      vertex 3.09834 23.4356 0
      vertex 3.09834 23.4356 7
      vertex 3.09834 21.5644 7
    endloop
  endfacet
  facet normal 1 0 0
    outer loop
      vertex 3.09834 21.5644 0
      vertex 3.09834 23.4356 0
      vertex 3.09834 21.5644 7
    endloop
  endfacet
  facet normal 0.669131 -0.743145 0
    outer loop
      vertex 5.25 26.3971 0
      vertex 5.25 26.3971 7
      vertex 3.85942 25.145 7
    endloop
  endfacet
  facet normal 0.669131 -0.743145 0
    outer loop
      vertex 3.85942 25.145 0
      vertex 5.25 26.3971 0
      vertex 3.85942 25.145 7
    endloop
  endfacet
  facet normal 0.309017 -0.951056 0
    outer loop
      vertex 7.02962 26.9753 0
      vertex 7.02962 26.9753 7
      vertex 5.25 26.3971 7
    endloop
  endfacet
  facet normal 0.309017 -0.951056 0
    outer loop
      vertex 5.25 26.3971 0
      vertex 7.02962 26.9753 0
      vertex 5.25 26.3971 7
    endloop
  endfacet
  facet normal -0.104529 -0.994522 0
    outer loop
      vertex 8.89058 26.7798 0
      vertex 8.89058 26.7798 7
      vertex 7.02962 26.9753 7
    endloop
  endfacet
  facet normal -0.104529 -0.994522 0
    outer loop
      vertex 7.02962 26.9753 0
      vertex 8.89058 26.7798 0
      vertex 7.02962 26.9753 7
    endloop
  endfacet
  facet normal -0.5 -0.866026 0
    outer loop
      vertex 10.5111 25.8442 0
      vertex 10.5111 25.8442 7
      vertex 8.89058 26.7798 7
    endloop
  endfacet
  facet normal -0.5 -0.866026 0
    outer loop
      vertex 8.89058 26.7798 0
      vertex 10.5111 25.8442 0
      vertex 8.89058 26.7798 7
    endloop
  endfacet
  facet normal -0.809017 -0.587785 0
    outer loop
      vertex 11.611 24.3303 7
      vertex 10.5111 25.8442 7
      vertex 11.611 24.3303 0
    endloop
  endfacet
  facet normal -0.809017 -0.587785 0
    outer loop
      vertex 11.611 24.3303 0
      vertex 10.5111 25.8442 7
      vertex 10.5111 25.8442 0
    endloop
  endfacet
  facet normal -0.978148 -0.207911 0
    outer loop
      vertex 12 22.5 7
      vertex 11.611 24.3303 7
      vertex 12 22.5 0
    endloop
  endfacet
  facet normal -0.978148 -0.207911 0
    outer loop
      vertex 12 22.5 0
      vertex 11.611 24.3303 7
      vertex 11.611 24.3303 0
    endloop
  endfacet
  facet normal -0.978148 0.207911 0
    outer loop
      vertex 12 22.5 7
      vertex 12 22.5 0
      vertex 11.611 20.6697 7
    endloop
  endfacet
  facet normal -0.978148 0.207911 0
    outer loop
      vertex 11.611 20.6697 7
      vertex 12 22.5 0
      vertex 11.611 20.6697 0
    endloop
  endfacet
  facet normal -0.809017 0.587785 0
    outer loop
      vertex 11.611 20.6697 7
      vertex 11.611 20.6697 0
      vertex 10.5111 19.1558 7
    endloop
  endfacet
  facet normal -0.809017 0.587785 0
    outer loop
      vertex 10.5111 19.1558 7
      vertex 11.611 20.6697 0
      vertex 10.5111 19.1558 0
    endloop
  endfacet
  facet normal -0.5 0.866026 0
    outer loop
      vertex 10.5111 19.1558 7
      vertex 10.5111 19.1558 0
      vertex 8.89058 18.2202 7
    endloop
  endfacet
  facet normal -0.5 0.866026 0
    outer loop
      vertex 8.89058 18.2202 7
      vertex 10.5111 19.1558 0
      vertex 8.89058 18.2202 0
    endloop
  endfacet
  facet normal -0.104529 0.994522 0
    outer loop
      vertex 8.89058 18.2202 7
      vertex 8.89058 18.2202 0
      vertex 7.02962 18.0247 7
    endloop
  endfacet
  facet normal -0.104529 0.994522 0
    outer loop
      vertex 7.02962 18.0247 7
      vertex 8.89058 18.2202 0
      vertex 7.02962 18.0247 0
    endloop
  endfacet
  facet normal 0.309017 0.951056 0
    outer loop
      vertex 7.02962 18.0247 7
      vertex 7.02962 18.0247 0
      vertex 5.25 18.6029 7
    endloop
  endfacet
  facet normal 0.309017 0.951056 0
    outer loop
      vertex 5.25 18.6029 7
      vertex 7.02962 18.0247 0
      vertex 5.25 18.6029 0
    endloop
  endfacet
  facet normal 0.669131 0.743145 0
    outer loop
      vertex 5.25 18.6029 7
      vertex 5.25 18.6029 0
      vertex 3.85942 19.855 7
    endloop
  endfacet
  facet normal 0.669131 0.743145 0
    outer loop
      vertex 3.85942 19.855 7
      vertex 5.25 18.6029 0
      vertex 3.85942 19.855 0
    endloop
  endfacet
  facet normal 0.913545 0.406737 0
    outer loop
      vertex 3.09834 21.5644 7
      vertex 3.85942 19.855 7
      vertex 3.85942 19.855 0
    endloop
  endfacet
  facet normal 0.913545 0.406737 0
    outer loop
      vertex 3.09834 21.5644 0
      vertex 3.09834 21.5644 7
      vertex 3.85942 19.855 0
    endloop
  endfacet
  facet normal 0.913545 -0.406737 0
    outer loop
      vertex 18.8594 10.145 0
      vertex 18.8594 10.145 7
      vertex 18.0983 8.4356 7
    endloop
  endfacet
  facet normal 0.913545 -0.406737 0
    outer loop
      vertex 18.0983 8.4356 0
      vertex 18.8594 10.145 0
      vertex 18.0983 8.4356 7
    endloop
  endfacet
  facet normal 1 0 0
    outer loop
      vertex 18.0983 8.4356 0
      vertex 18.0983 8.4356 7
      vertex 18.0983 6.5644 7
    endloop
  endfacet
  facet normal 1 0 0
    outer loop
      vertex 18.0983 6.5644 0
      vertex 18.0983 8.4356 0
      vertex 18.0983 6.5644 7
    endloop
  endfacet
  facet normal 0.669131 -0.743145 0
    outer loop
      vertex 20.25 11.3971 0
      vertex 20.25 11.3971 7
      vertex 18.8594 10.145 7
    endloop
  endfacet
  facet normal 0.669131 -0.743145 0
    outer loop
      vertex 18.8594 10.145 0
      vertex 20.25 11.3971 0
      vertex 18.8594 10.145 7
    endloop
  endfacet
  facet normal 0.309017 -0.951056 0
    outer loop
      vertex 22.0296 11.9753 0
      vertex 22.0296 11.9753 7
      vertex 20.25 11.3971 7
    endloop
  endfacet
  facet normal 0.309017 -0.951056 0
    outer loop
      vertex 20.25 11.3971 0
      vertex 22.0296 11.9753 0
      vertex 20.25 11.3971 7
    endloop
  endfacet
  facet normal -0.104529 -0.994522 0
    outer loop
      vertex 23.8906 11.7798 0
      vertex 23.8906 11.7798 7
      vertex 22.0296 11.9753 7
    endloop
  endfacet
  facet normal -0.104529 -0.994522 0
    outer loop
      vertex 22.0296 11.9753 0
      vertex 23.8906 11.7798 0
      vertex 22.0296 11.9753 7
    endloop
  endfacet
  facet normal -0.5 -0.866026 0
    outer loop
      vertex 25.5111 10.8442 0
      vertex 25.5111 10.8442 7
      vertex 23.8906 11.7798 7
    endloop
  endfacet
  facet normal -0.5 -0.866026 0
    outer loop
      vertex 23.8906 11.7798 0
      vertex 25.5111 10.8442 0
      vertex 23.8906 11.7798 7
    endloop
  endfacet
  facet normal -0.809017 -0.587785 0
    outer loop
      vertex 26.611 9.33031 7
      vertex 25.5111 10.8442 7
      vertex 26.611 9.33031 0
    endloop
  endfacet
  facet normal -0.809017 -0.587785 0
    outer loop
      vertex 26.611 9.33031 0
      vertex 25.5111 10.8442 7
      vertex 25.5111 10.8442 0
    endloop
  endfacet
  facet normal -0.978148 -0.207911 0
    outer loop
      vertex 27 7.5 7
      vertex 26.611 9.33031 7
      vertex 27 7.5 0
    endloop
  endfacet
  facet normal -0.978148 -0.207911 0
    outer loop
      vertex 27 7.5 0
      vertex 26.611 9.33031 7
      vertex 26.611 9.33031 0
    endloop
  endfacet
  facet normal -0.978148 0.207911 0
    outer loop
      vertex 27 7.5 7
      vertex 27 7.5 0
      vertex 26.611 5.66968 7
    endloop
  endfacet
  facet normal -0.978148 0.207911 0
    outer loop
      vertex 26.611 5.66968 7
      vertex 27 7.5 0
      vertex 26.611 5.66968 0
    endloop
  endfacet
  facet normal -0.809017 0.587785 0
    outer loop
      vertex 26.611 5.66968 7
      vertex 26.611 5.66968 0
      vertex 25.5111 4.15585 7
    endloop
  endfacet
  facet normal -0.809017 0.587785 0
    outer loop
      vertex 25.5111 4.15585 7
      vertex 26.611 5.66968 0
      vertex 25.5111 4.15585 0
    endloop
  endfacet
  facet normal -0.5 0.866026 0
    outer loop
      vertex 25.5111 4.15585 7
      vertex 25.5111 4.15585 0
      vertex 23.8906 3.22025 7
    endloop
  endfacet
  facet normal -0.5 0.866026 0
    outer loop
      vertex 23.8906 3.22025 7
      vertex 25.5111 4.15585 0
      vertex 23.8906 3.22025 0
    endloop
  endfacet
  facet normal -0.104529 0.994522 0
    outer loop
      vertex 23.8906 3.22025 7
      vertex 23.8906 3.22025 0
      vertex 22.0296 3.02465 7
    endloop
  endfacet
  facet normal -0.104529 0.994522 0
    outer loop
      vertex 22.0296 3.02465 7
      vertex 23.8906 3.22025 0
      vertex 22.0296 3.02465 0
    endloop
  endfacet
  facet normal 0.309017 0.951056 0
    outer loop
      vertex 22.0296 3.02465 7
      vertex 22.0296 3.02465 0
      vertex 20.25 3.60289 7
    endloop
  endfacet
  facet normal 0.309017 0.951056 0
    outer loop
      vertex 20.25 3.60289 7
      vertex 22.0296 3.02465 0
      vertex 20.25 3.60289 0
    endloop
  endfacet
  facet normal 0.669131 0.743145 0
    outer loop
      vertex 20.25 3.60289 7
      vertex 20.25 3.60289 0
      vertex 18.8594 4.85497 7
    endloop
  endfacet
  facet normal 0.669131 0.743145 0
    outer loop
      vertex 18.8594 4.85497 7
      vertex 20.25 3.60289 0
      vertex 18.8594 4.85497 0
    endloop
  endfacet
  facet normal 0.913545 0.406737 0
    outer loop
      vertex 18.0983 6.5644 7
      vertex 18.8594 4.85497 7
      vertex 18.8594 4.85497 0
    endloop
  endfacet
  facet normal 0.913545 0.406737 0
    outer loop
      vertex 18.0983 6.5644 0
      vertex 18.0983 6.5644 7
      vertex 18.8594 4.85497 0
    endloop
  endfacet
  facet normal 0.965926 -0.258819 0
    outer loop
      vertex 18.5711 20.825 0
      vertex 18.5711 20.825 7.6
      vertex 18.35 20 7.6
    endloop
  endfacet
  facet normal 0.965926 -0.258819 0
    outer loop
      vertex 18.35 20 0
      vertex 18.5711 20.825 0
      vertex 18.35 20 7.6
    endloop
  endfacet
  facet normal 0.965926 0.258819 0
    outer loop
      vertex 18.35 20 7.6
      vertex 18.5711 19.175 7.6
      vertex 18.5711 19.175 0
    endloop
  endfacet
  facet normal 0.965926 0.258819 0
    outer loop
      vertex 18.35 20 0
      vertex 18.35 20 7.6
      vertex 18.5711 19.175 0
    endloop
  endfacet
  facet normal 0.707107 -0.707107 0
    outer loop
      vertex 19.175 21.4289 0
      vertex 19.175 21.4289 7.6
      vertex 18.5711 20.825 7.6
    endloop
  endfacet
  facet normal 0.707107 -0.707107 0
    outer loop
      vertex 18.5711 20.825 0
      vertex 19.175 21.4289 0
      vertex 18.5711 20.825 7.6
    endloop
  endfacet
  facet normal 0.258819 -0.965926 0
    outer loop
      vertex 20 21.65 0
      vertex 20 21.65 7.6
      vertex 19.175 21.4289 7.6
    endloop
  endfacet
  facet normal 0.258819 -0.965926 0
    outer loop
      vertex 19.175 21.4289 0
      vertex 20 21.65 0
      vertex 19.175 21.4289 7.6
    endloop
  endfacet
  facet normal -0.258819 -0.965926 0
    outer loop
      vertex 20.825 21.4289 0
      vertex 20.825 21.4289 7.6
      vertex 20 21.65 7.6
    endloop
  endfacet
  facet normal -0.258819 -0.965926 0
    outer loop
      vertex 20 21.65 0
      vertex 20.825 21.4289 0
      vertex 20 21.65 7.6
    endloop
  endfacet
  facet normal -0.707107 -0.707107 0
    outer loop
      vertex 21.4289 20.825 0
      vertex 21.4289 20.825 7.6
      vertex 20.825 21.4289 7.6
    endloop
  endfacet
  facet normal -0.707107 -0.707107 0
    outer loop
      vertex 20.825 21.4289 0
      vertex 21.4289 20.825 0
      vertex 20.825 21.4289 7.6
    endloop
  endfacet
  facet normal -0.965926 -0.258819 0
    outer loop
      vertex 21.65 20 7.6
      vertex 21.4289 20.825 7.6
      vertex 21.65 20 0
    endloop
  endfacet
  facet normal -0.965926 -0.258819 0
    outer loop
      vertex 21.65 20 0
      vertex 21.4289 20.825 7.6
      vertex 21.4289 20.825 0
    endloop
  endfacet
  facet normal -0.965926 0.258819 0
    outer loop
      vertex 21.65 20 7.6
      vertex 21.65 20 0
      vertex 21.4289 19.175 7.6
    endloop
  endfacet
  facet normal -0.965926 0.258819 0
    outer loop
      vertex 21.4289 19.175 7.6
      vertex 21.65 20 0
      vertex 21.4289 19.175 0
    endloop
  endfacet
  facet normal -0.707107 0.707107 0
    outer loop
      vertex 21.4289 19.175 7.6
      vertex 21.4289 19.175 0
      vertex 20.825 18.5711 7.6
    endloop
  endfacet
  facet normal -0.707107 0.707107 0
    outer loop
      vertex 20.825 18.5711 7.6
      vertex 21.4289 19.175 0
      vertex 20.825 18.5711 0
    endloop
  endfacet
  facet normal -0.258819 0.965926 0
    outer loop
      vertex 20.825 18.5711 7.6
      vertex 20.825 18.5711 0
      vertex 20 18.35 7.6
    endloop
  endfacet
  facet normal -0.258819 0.965926 0
    outer loop
      vertex 20 18.35 7.6
      vertex 20.825 18.5711 0
      vertex 20 18.35 0
    endloop
  endfacet
  facet normal 0.258819 0.965926 0
    outer loop
      vertex 20 18.35 7.6
      vertex 20 18.35 0
      vertex 19.175 18.5711 7.6
    endloop
  endfacet
  facet normal 0.258819 0.965926 0
    outer loop
      vertex 19.175 18.5711 7.6
      vertex 20 18.35 0
      vertex 19.175 18.5711 0
    endloop
  endfacet
  facet normal 0.707107 0.707107 0
    outer loop
      vertex 19.175 18.5711 7.6
      vertex 19.175 18.5711 0
      vertex 18.5711 19.175 7.6
    endloop
  endfacet
  facet normal 0.707107 0.707107 0
    outer loop
      vertex 18.5711 19.175 7.6
      vertex 19.175 18.5711 0
      vertex 18.5711 19.175 0
    endloop
  endfacet
  facet normal 0 0 1
    outer loop
      vertex 30 12.5 7.6
      vertex 30 30 7.6
      vertex 12.5 30 7.6
    endloop
  endfacet
  facet normal 0 0 1
    outer loop
      vertex 20.825 21.4289 7.6
      vertex 30 12.5 7.6
      vertex 12.5 30 7.6
    endloop
  endfacet
  facet normal 0 0 1
    outer loop
      vertex 12.5 12.5 7.6
      vertex 18.35 20 7.6
      vertex 12.5 30 7.6
    endloop
  endfacet
  facet normal 0 0 1
    outer loop
      vertex 18.35 20 7.6
      vertex 18.5711 20.825 7.6
      vertex 12.5 30 7.6
    endloop
  endfacet
  facet normal 0 0 1
    outer loop
      vertex 18.5711 20.825 7.6
      vertex 19.175 21.4289 7.6
      vertex 12.5 30 7.6
    endloop
  endfacet
  facet normal 0 0 1
    outer loop
      vertex 19.175 21.4289 7.6
      vertex 20 21.65 7.6
      vertex 12.5 30 7.6
    endloop
  endfacet
  facet normal 0 0 1
    outer loop
      vertex 20 21.65 7.6
      vertex 20.825 21.4289 7.6
      vertex 12.5 30 7.6
    endloop
  endfacet
  facet normal 0 0 1
    outer loop
      vertex 21.4289 20.825 7.6
      vertex 30 12.5 7.6
      vertex 20.825 21.4289 7.6
    endloop
  endfacet
  facet normal 0 0 1
    outer loop
      vertex 21.65 20 7.6
      vertex 21.4289 19.175 7.6
      vertex 30 12.5 7.6
    endloop
  endfacet
  facet normal 0 0 1
    outer loop
      vertex 21.4289 19.175 7.6
      vertex 20.825 18.5711 7.6
      vertex 30 12.5 7.6
    endloop
  endfacet
  facet normal 0 0 1
    outer loop
      vertex 20.825 18.5711 7.6
      vertex 20 18.35 7.6
      vertex 30 12.5 7.6
    endloop
  endfacet
  facet normal 0 0 1
    outer loop
      vertex 12.5 12.5 7.6
      vertex 30 12.5 7.6
      vertex 20 18.35 7.6
    endloop
  endfacet
  facet normal 0 0 1
    outer loop
      vertex 12.5 12.5 7.6
      vertex 20 18.35 7.6
      vertex 19.175 18.5711 7.6
    endloop
  endfacet
  facet normal 0 0 1
    outer loop
      vertex 12.5 12.5 7.6
      vertex 18.5711 19.175 7.6
      vertex 18.35 20 7.6
    endloop
  endfacet
  facet normal 0 0 1
    outer loop
      vertex 12.5 12.5 7.6
      vertex 19.175 18.5711 7.6
      vertex 18.5711 19.175 7.6
    endloop
  endfacet
  facet normal 0 0 1
    outer loop
      vertex 21.4289 20.825 7.6
      vertex 21.65 20 7.6
      vertex 30 12.5 7.6
    endloop
  endfacet
  facet normal 1 0 0
    outer loop
      vertex 12.5 30 7.6
      vertex 12.5 30 10
      vertex 12.5 12.5 10
    endloop
  endfacet
  facet normal 1 0 0
    outer loop
      vertex 12.5 12.5 7.6
      vertex 12.5 30 7.6
      vertex 12.5 12.5 10
    endloop
  endfacet
  facet normal 0 1 0
    outer loop
      vertex 30 12.5 10
      vertex 30 12.5 7.6
      vertex 12.5 12.5 10
    endloop
  endfacet
  facet normal 0 1 0
    outer loop
      vertex 12.5 12.5 10
      vertex 30 12.5 7.6
      vertex 12.5 12.5 7.6
    endloop
  endfacet
  facet normal 1 0 0
    outer loop
      vertex 5.00981 8.40635 7
      vertex 5.00981 8.40635 10
      vertex 5.00981 6.59365 10
    endloop
  endfacet
  facet normal 1 0 0
    outer loop
      vertex 5.00981 6.59365 7
      vertex 5.00981 8.40635 7
      vertex 5.00981 6.59365 10
    endloop
  endfacet
  facet normal 0.766045 0.642787 0
    outer loop
      vertex 5.00981 6.59365 10
      vertex 6.175 5.20503 10
      vertex 6.175 5.20503 7
    endloop
  endfacet
  facet normal 0.766045 0.642787 0
    outer loop
      vertex 5.00981 6.59365 7
      vertex 5.00981 6.59365 10
      vertex 6.175 5.20503 7
    endloop
  endfacet
  facet normal 0.173649 0.984808 0
    outer loop
      vertex 7.96017 4.89026 10
      vertex 7.96017 4.89026 7
      vertex 6.175 5.20503 10
    endloop
  endfacet
  facet normal 0.173649 0.984808 0
    outer loop
      vertex 6.175 5.20503 10
      vertex 7.96017 4.89026 7
      vertex 6.175 5.20503 7
    endloop
  endfacet
  facet normal -0.5 0.866025 0
    outer loop
      vertex 9.53002 5.79661 10
      vertex 9.53002 5.79661 7
      vertex 7.96017 4.89026 10
    endloop
  endfacet
  facet normal -0.5 0.866025 0
    outer loop
      vertex 7.96017 4.89026 10
      vertex 9.53002 5.79661 7
      vertex 7.96017 4.89026 7
    endloop
  endfacet
  facet normal -0.939693 0.34202 0
    outer loop
      vertex 10.15 7.5 10
      vertex 10.15 7.5 7
      vertex 9.53002 5.79661 10
    endloop
  endfacet
  facet normal -0.939693 0.34202 0
    outer loop
      vertex 9.53002 5.79661 10
      vertex 10.15 7.5 7
      vertex 9.53002 5.79661 7
    endloop
  endfacet
  facet normal -0.939693 -0.34202 0
    outer loop
      vertex 10.15 7.5 10
      vertex 9.53002 9.20339 10
      vertex 10.15 7.5 7
    endloop
  endfacet
  facet normal -0.939693 -0.34202 0
    outer loop
      vertex 10.15 7.5 7
      vertex 9.53002 9.20339 10
      vertex 9.53002 9.20339 7
    endloop
  endfacet
  facet normal -0.5 -0.866025 0
    outer loop
      vertex 9.53002 9.20339 7
      vertex 9.53002 9.20339 10
      vertex 7.96017 10.1097 10
    endloop
  endfacet
  facet normal -0.5 -0.866025 0
    outer loop
      vertex 7.96017 10.1097 7
      vertex 9.53002 9.20339 7
      vertex 7.96017 10.1097 10
    endloop
  endfacet
  facet normal 0.173649 -0.984808 0
    outer loop
      vertex 7.96017 10.1097 7
      vertex 7.96017 10.1097 10
      vertex 6.175 9.79497 10
    endloop
  endfacet
  facet normal 0.173649 -0.984808 0
    outer loop
      vertex 6.175 9.79497 7
      vertex 7.96017 10.1097 7
      vertex 6.175 9.79497 10
    endloop
  endfacet
  facet normal 0.766045 -0.642787 0
    outer loop
      vertex 6.175 9.79497 7
      vertex 6.175 9.79497 10
      vertex 5.00981 8.40635 10
    endloop
  endfacet
  facet normal 0.766045 -0.642787 0
    outer loop
      vertex 5.00981 8.40635 7
      vertex 6.175 9.79497 7
      vertex 5.00981 8.40635 10
    endloop
  endfacet
  facet normal 0.766045 0.642787 0
    outer loop
      vertex 5.00981 21.5936 10
      vertex 6.175 20.205 10
      vertex 6.175 20.205 7
    endloop
  endfacet
  facet normal 0.766045 0.642787 0
    outer loop
      vertex 5.00981 21.5936 7
      vertex 5.00981 21.5936 10
      vertex 6.175 20.205 7
    endloop
  endfacet
  facet normal 1 0 0
    outer loop
      vertex 5.00981 23.4064 7
      vertex 5.00981 23.4064 10
      vertex 5.00981 21.5936 10
    endloop
  endfacet
  facet normal 1 0 0
    outer loop
      vertex 5.00981 21.5936 7
      vertex 5.00981 23.4064 7
      vertex 5.00981 21.5936 10
    endloop
  endfacet
  facet normal 0.173649 0.984808 0
    outer loop
      vertex 7.96017 19.8903 10
      vertex 7.96017 19.8903 7
      vertex 6.175 20.205 10
    endloop
  endfacet
  facet normal 0.173649 0.984808 0
    outer loop
      vertex 6.175 20.205 10
      vertex 7.96017 19.8903 7
      vertex 6.175 20.205 7
    endloop
  endfacet
  facet normal -0.5 0.866025 0
    outer loop
      vertex 9.53002 20.7966 10
      vertex 9.53002 20.7966 7
      vertex 7.96017 19.8903 10
    endloop
  endfacet
  facet normal -0.5 0.866025 0
    outer loop
      vertex 7.96017 19.8903 10
      vertex 9.53002 20.7966 7
      vertex 7.96017 19.8903 7
    endloop
  endfacet
  facet normal -0.939693 0.34202 0
    outer loop
      vertex 10.15 22.5 10
      vertex 10.15 22.5 7
      vertex 9.53002 20.7966 10
    endloop
  endfacet
  facet normal -0.939693 0.34202 0
    outer loop
      vertex 9.53002 20.7966 10
      vertex 10.15 22.5 7
      vertex 9.53002 20.7966 7
    endloop
  endfacet
  facet normal -0.939693 -0.34202 0
    outer loop
      vertex 10.15 22.5 10
      vertex 9.53002 24.2034 10
      vertex 10.15 22.5 7
    endloop
  endfacet
  facet normal -0.939693 -0.34202 0
    outer loop
      vertex 10.15 22.5 7
      vertex 9.53002 24.2034 10
      vertex 9.53002 24.2034 7
    endloop
  endfacet
  facet normal -0.5 -0.866025 0
    outer loop
      vertex 9.53002 24.2034 7
      vertex 9.53002 24.2034 10
      vertex 7.96017 25.1097 10
    endloop
  endfacet
  facet normal -0.5 -0.866025 0
    outer loop
      vertex 7.96017 25.1097 7
      vertex 9.53002 24.2034 7
      vertex 7.96017 25.1097 10
    endloop
  endfacet
  facet normal 0.173649 -0.984808 0
    outer loop
      vertex 7.96017 25.1097 7
      vertex 7.96017 25.1097 10
      vertex 6.175 24.795 10
    endloop
  endfacet
  facet normal 0.173649 -0.984808 0
    outer loop
      vertex 6.175 24.795 7
      vertex 7.96017 25.1097 7
      vertex 6.175 24.795 10
    endloop
  endfacet
  facet normal 0.766045 -0.642787 0
    outer loop
      vertex 6.175 24.795 7
      vertex 6.175 24.795 10
      vertex 5.00981 23.4064 10
    endloop
  endfacet
  facet normal 0.766045 -0.642787 0
    outer loop
      vertex 5.00981 23.4064 7
      vertex 6.175 24.795 7
      vertex 5.00981 23.4064 10
    endloop
  endfacet
  facet normal 0.766045 0.642787 0
    outer loop
      vertex 20.0098 6.59365 10
      vertex 21.175 5.20503 10
      vertex 21.175 5.20503 7
    endloop
  endfacet
  facet normal 0.766045 0.642787 0
    outer loop
      vertex 20.0098 6.59365 7
      vertex 20.0098 6.59365 10
      vertex 21.175 5.20503 7
    endloop
  endfacet
  facet normal 1 0 0
    outer loop
      vertex 20.0098 8.40635 7
      vertex 20.0098 8.40635 10
      vertex 20.0098 6.59365 10
    endloop
  endfacet
  facet normal 1 0 0
    outer loop
      vertex 20.0098 6.59365 7
      vertex 20.0098 8.40635 7
      vertex 20.0098 6.59365 10
    endloop
  endfacet
  facet normal 0.173649 0.984808 0
    outer loop
      vertex 22.9602 4.89026 10
      vertex 22.9602 4.89026 7
      vertex 21.175 5.20503 10
    endloop
  endfacet
  facet normal 0.173649 0.984808 0
    outer loop
      vertex 21.175 5.20503 10
      vertex 22.9602 4.89026 7
      vertex 21.175 5.20503 7
    endloop
  endfacet
  facet normal -0.5 0.866025 0
    outer loop
      vertex 24.53 5.79661 10
      vertex 24.53 5.79661 7
      vertex 22.9602 4.89026 10
    endloop
  endfacet
  facet normal -0.5 0.866025 0
    outer loop
      vertex 22.9602 4.89026 10
      vertex 24.53 5.79661 7
      vertex 22.9602 4.89026 7
    endloop
  endfacet
  facet normal -0.939693 0.34202 0
    outer loop
      vertex 25.15 7.5 10
      vertex 25.15 7.5 7
      vertex 24.53 5.79661 10
    endloop
  endfacet
  facet normal -0.939693 0.34202 0
    outer loop
      vertex 24.53 5.79661 10
      vertex 25.15 7.5 7
      vertex 24.53 5.79661 7
    endloop
  endfacet
  facet normal -0.939693 -0.34202 0
    outer loop
      vertex 25.15 7.5 10
      vertex 24.53 9.20339 10
      vertex 25.15 7.5 7
    endloop
  endfacet
  facet normal -0.939693 -0.34202 0
    outer loop
      vertex 25.15 7.5 7
      vertex 24.53 9.20339 10
      vertex 24.53 9.20339 7
    endloop
  endfacet
  facet normal -0.5 -0.866025 0
    outer loop
      vertex 24.53 9.20339 7
      vertex 24.53 9.20339 10
      vertex 22.9602 10.1097 10
    endloop
  endfacet
  facet normal -0.5 -0.866025 0
    outer loop
      vertex 22.9602 10.1097 7
      vertex 24.53 9.20339 7
      vertex 22.9602 10.1097 10
    endloop
  endfacet
  facet normal 0.173649 -0.984808 0
    outer loop
      vertex 22.9602 10.1097 7
      vertex 22.9602 10.1097 10
      vertex 21.175 9.79497 10
    endloop
  endfacet
  facet normal 0.173649 -0.984808 0
    outer loop
      vertex 21.175 9.79497 7
      vertex 22.9602 10.1097 7
      vertex 21.175 9.79497 10
    endloop
  endfacet
  facet normal 0.766045 -0.642787 0
    outer loop
      vertex 21.175 9.79497 7
      vertex 21.175 9.79497 10
      vertex 20.0098 8.40635 10
    endloop
  endfacet
  facet normal 0.766045 -0.642787 0
    outer loop
      vertex 20.0098 8.40635 7
      vertex 21.175 9.79497 7
      vertex 20.0098 8.40635 10
    endloop
  endfacet
  facet normal 0 0 -1
    outer loop
      vertex 3.85942 10.145 7
      vertex 5.25 11.3971 7
      vertex 3.09834 8.4356 7
    endloop
  endfacet
  facet normal 0 0 -1
    outer loop
      vertex 3.09834 8.4356 7
      vertex 5.25 11.3971 7
      vertex 7.02962 11.9753 7
    endloop
  endfacet
  facet normal 0 0 -1
    outer loop
      vertex 3.09834 8.4356 7
      vertex 7.02962 11.9753 7
      vertex 8.89058 11.7798 7
    endloop
  endfacet
  facet normal 0 0 -1
    outer loop
      vertex 7.96017 10.1097 7
      vertex 8.89058 11.7798 7
      vertex 10.5111 10.8442 7
    endloop
  endfacet
  facet normal 0 0 -1
    outer loop
      vertex 9.53002 9.20339 7
      vertex 10.5111 10.8442 7
      vertex 11.611 9.33031 7
    endloop
  endfacet
  facet normal 0 0 -1
    outer loop
      vertex 10.15 7.5 7
      vertex 12 7.5 7
      vertex 11.611 5.66968 7
    endloop
  endfacet
  facet normal 0 0 -1
    outer loop
      vertex 9.53002 5.79661 7
      vertex 11.611 5.66968 7
      vertex 10.5111 4.15585 7
    endloop
  endfacet
  facet normal 0 0 -1
    outer loop
      vertex 7.96017 4.89026 7
      vertex 10.5111 4.15585 7
      vertex 8.89058 3.22025 7
    endloop
  endfacet
  facet normal 0 0 -1
    outer loop
      vertex 6.175 5.20503 7
      vertex 8.89058 3.22025 7
      vertex 7.02962 3.02465 7
    endloop
  endfacet
  facet normal 0 0 -1
    outer loop
      vertex 3.09834 8.4356 7
      vertex 7.02962 3.02465 7
      vertex 5.25 3.60289 7
    endloop
  endfacet
  facet normal 0 0 -1
    outer loop
      vertex 3.09834 8.4356 7
      vertex 5.25 3.60289 7
      vertex 3.85942 4.85497 7
    endloop
  endfacet
  facet normal 0 0 -1
    outer loop
      vertex 3.09834 8.4356 7
      vertex 3.85942 4.85497 7
      vertex 3.09834 6.5644 7
    endloop
  endfacet
  facet normal 0 0 -1
    outer loop
      vertex 7.96017 4.89026 7
      vertex 8.89058 3.22025 7
      vertex 6.175 5.20503 7
    endloop
  endfacet
  facet normal 0 0 -1
    outer loop
      vertex 3.09834 8.4356 7
      vertex 5.00981 6.59365 7
      vertex 7.02962 3.02465 7
    endloop
  endfacet
  facet normal 0 0 -1
    outer loop
      vertex 5.00981 6.59365 7
      vertex 6.175 5.20503 7
      vertex 7.02962 3.02465 7
    endloop
  endfacet
  facet normal 0 0 -1
    outer loop
      vertex 7.96017 10.1097 7
      vertex 10.5111 10.8442 7
      vertex 9.53002 9.20339 7
    endloop
  endfacet
  facet normal 0 0 -1
    outer loop
      vertex 6.175 9.79497 7
      vertex 8.89058 11.7798 7
      vertex 7.96017 10.1097 7
    endloop
  endfacet
  facet normal 0 0 -1
    outer loop
      vertex 5.00981 8.40635 7
      vertex 3.09834 8.4356 7
      vertex 6.175 9.79497 7
    endloop
  endfacet
  facet normal 0 0 -1
    outer loop
      vertex 3.09834 8.4356 7
      vertex 8.89058 11.7798 7
      vertex 6.175 9.79497 7
    endloop
  endfacet
  facet normal 0 0 -1
    outer loop
      vertex 5.00981 6.59365 7
      vertex 3.09834 8.4356 7
      vertex 5.00981 8.40635 7
    endloop
  endfacet
  facet normal 0 0 -1
    outer loop
      vertex 9.53002 9.20339 7
      vertex 11.611 9.33031 7
      vertex 12 7.5 7
    endloop
  endfacet
  facet normal 0 0 -1
    outer loop
      vertex 9.53002 9.20339 7
      vertex 12 7.5 7
      vertex 10.15 7.5 7
    endloop
  endfacet
  facet normal 0 0 -1
    outer loop
      vertex 10.15 7.5 7
      vertex 11.611 5.66968 7
      vertex 9.53002 5.79661 7
    endloop
  endfacet
  facet normal 0 0 -1
    outer loop
      vertex 9.53002 5.79661 7
      vertex 10.5111 4.15585 7
      vertex 7.96017 4.89026 7
    endloop
  endfacet
  facet normal 0 0 -1
    outer loop
      vertex 3.85942 25.145 7
      vertex 5.25 26.3971 7
      vertex 3.09834 23.4356 7
    endloop
  endfacet
  facet normal 0 0 -1
    outer loop
      vertex 3.09834 23.4356 7
      vertex 5.25 26.3971 7
      vertex 7.02962 26.9753 7
    endloop
  endfacet
  facet normal 0 0 -1
    outer loop
      vertex 3.09834 23.4356 7
      vertex 7.02962 26.9753 7
      vertex 8.89058 26.7798 7
    endloop
  endfacet
  facet normal 0 0 -1
    outer loop
      vertex 7.96017 25.1097 7
      vertex 8.89058 26.7798 7
      vertex 10.5111 25.8442 7
    endloop
  endfacet
  facet normal 0 0 -1
    outer loop
      vertex 9.53002 24.2034 7
      vertex 10.5111 25.8442 7
      vertex 11.611 24.3303 7
    endloop
  endfacet
  facet normal 0 0 -1
    outer loop
      vertex 10.15 22.5 7
      vertex 12 22.5 7
      vertex 11.611 20.6697 7
    endloop
  endfacet
  facet normal 0 0 -1
    outer loop
      vertex 9.53002 20.7966 7
      vertex 11.611 20.6697 7
      vertex 10.5111 19.1558 7
    endloop
  endfacet
  facet normal 0 0 -1
    outer loop
      vertex 7.96017 19.8903 7
      vertex 10.5111 19.1558 7
      vertex 8.89058 18.2202 7
    endloop
  endfacet
  facet normal 0 0 -1
    outer loop
      vertex 6.175 20.205 7
      vertex 8.89058 18.2202 7
      vertex 7.02962 18.0247 7
    endloop
  endfacet
  facet normal 0 0 -1
    outer loop
      vertex 3.09834 23.4356 7
      vertex 7.02962 18.0247 7
      vertex 5.25 18.6029 7
    endloop
  endfacet
  facet normal 0 0 -1
    outer loop
      vertex 3.09834 23.4356 7
      vertex 5.25 18.6029 7
      vertex 3.85942 19.855 7
    endloop
  endfacet
  facet normal 0 0 -1
    outer loop
      vertex 3.09834 23.4356 7
      vertex 3.85942 19.855 7
      vertex 3.09834 21.5644 7
    endloop
  endfacet
  facet normal 0 0 -1
    outer loop
      vertex 7.96017 19.8903 7
      vertex 8.89058 18.2202 7
      vertex 6.175 20.205 7
    endloop
  endfacet
  facet normal 0 0 -1
    outer loop
      vertex 3.09834 23.4356 7
      vertex 5.00981 21.5936 7
      vertex 7.02962 18.0247 7
    endloop
  endfacet
  facet normal 0 0 -1
    outer loop
      vertex 5.00981 21.5936 7
      vertex 6.175 20.205 7
      vertex 7.02962 18.0247 7
    endloop
  endfacet
  facet normal 0 0 -1
    outer loop
      vertex 7.96017 25.1097 7
      vertex 10.5111 25.8442 7
      vertex 9.53002 24.2034 7
    endloop
  endfacet
  facet normal 0 0 -1
    outer loop
      vertex 6.175 24.795 7
      vertex 8.89058 26.7798 7
      vertex 7.96017 25.1097 7
    endloop
  endfacet
  facet normal 0 0 -1
    outer loop
      vertex 5.00981 23.4064 7
      vertex 3.09834 23.4356 7
      vertex 6.175 24.795 7
    endloop
  endfacet
  facet normal 0 0 -1
    outer loop
      vertex 3.09834 23.4356 7
      vertex 8.89058 26.7798 7
      vertex 6.175 24.795 7
    endloop
  endfacet
  facet normal 0 0 -1
    outer loop
      vertex 5.00981 21.5936 7
      vertex 3.09834 23.4356 7
      vertex 5.00981 23.4064 7
    endloop
  endfacet
  facet normal 0 0 -1
    outer loop
      vertex 9.53002 24.2034 7
      vertex 11.611 24.3303 7
      vertex 12 22.5 7
    endloop
  endfacet
  facet normal 0 0 -1
    outer loop
      vertex 9.53002 24.2034 7
      vertex 12 22.5 7
      vertex 10.15 22.5 7
    endloop
  endfacet
  facet normal 0 0 -1
    outer loop
      vertex 10.15 22.5 7
      vertex 11.611 20.6697 7
      vertex 9.53002 20.7966 7
    endloop
  endfacet
  facet normal 0 0 -1
    outer loop
      vertex 9.53002 20.7966 7
      vertex 10.5111 19.1558 7
      vertex 7.96017 19.8903 7
    endloop
  endfacet
  facet normal 0 0 -1
    outer loop
      vertex 18.8594 10.145 7
      vertex 20.25 11.3971 7
      vertex 18.0983 8.4356 7
    endloop
  endfacet
  facet normal 0 0 -1
    outer loop
      vertex 18.0983 8.4356 7
      vertex 20.25 11.3971 7
      vertex 22.0296 11.9753 7
    endloop
  endfacet
  facet normal 0 0 -1
    outer loop
      vertex 18.0983 8.4356 7
      vertex 22.0296 11.9753 7
      vertex 23.8906 11.7798 7
    endloop
  endfacet
  facet normal 0 0 -1
    outer loop
      vertex 22.9602 10.1097 7
      vertex 23.8906 11.7798 7
      vertex 25.5111 10.8442 7
    endloop
  endfacet
  facet normal 0 0 -1
    outer loop
      vertex 24.53 9.20339 7
      vertex 25.5111 10.8442 7
      vertex 26.611 9.33031 7
    endloop
  endfacet
  facet normal 0 0 -1
    outer loop
      vertex 25.15 7.5 7
      vertex 27 7.5 7
      vertex 26.611 5.66968 7
    endloop
  endfacet
  facet normal 0 0 -1
    outer loop
      vertex 24.53 5.79661 7
      vertex 26.611 5.66968 7
      vertex 25.5111 4.15585 7
    endloop
  endfacet
  facet normal 0 0 -1
    outer loop
      vertex 22.9602 4.89026 7
      vertex 25.5111 4.15585 7
      vertex 23.8906 3.22025 7
    endloop
  endfacet
  facet normal 0 0 -1
    outer loop
      vertex 21.175 5.20503 7
      vertex 23.8906 3.22025 7
      vertex 22.0296 3.02465 7
    endloop
  endfacet
  facet normal 0 0 -1
    outer loop
      vertex 18.0983 8.4356 7
      vertex 22.0296 3.02465 7
      vertex 20.25 3.60289 7
    endloop
  endfacet
  facet normal 0 0 -1
    outer loop
      vertex 18.0983 8.4356 7
      vertex 20.25 3.60289 7
      vertex 18.8594 4.85497 7
    endloop
  endfacet
  facet normal 0 0 -1
    outer loop
      vertex 18.0983 8.4356 7
      vertex 18.8594 4.85497 7
      vertex 18.0983 6.5644 7
    endloop
  endfacet
  facet normal 0 0 -1
    outer loop
      vertex 22.9602 4.89026 7
      vertex 23.8906 3.22025 7
      vertex 21.175 5.20503 7
    endloop
  endfacet
  facet normal 0 0 -1
    outer loop
      vertex 18.0983 8.4356 7
      vertex 20.0098 6.59365 7
      vertex 22.0296 3.02465 7
    endloop
  endfacet
  facet normal 0 0 -1
    outer loop
      vertex 20.0098 6.59365 7
      vertex 21.175 5.20503 7
      vertex 22.0296 3.02465 7
    endloop
  endfacet
  facet normal 0 0 -1
    outer loop
      vertex 22.9602 10.1097 7
      vertex 25.5111 10.8442 7
      vertex 24.53 9.20339 7
    endloop
  endfacet
  facet normal 0 0 -1
    outer loop
      vertex 21.175 9.79497 7
      vertex 23.8906 11.7798 7
      vertex 22.9602 10.1097 7
    endloop
  endfacet
  facet normal 0 0 -1
    outer loop
      vertex 20.0098 8.40635 7
      vertex 18.0983 8.4356 7
      vertex 21.175 9.79497 7
    endloop
  endfacet
  facet normal 0 0 -1
    outer loop
      vertex 18.0983 8.4356 7
      vertex 23.8906 11.7798 7
      vertex 21.175 9.79497 7
    endloop
  endfacet
  facet normal 0 0 -1
    outer loop
      vertex 20.0098 6.59365 7
      vertex 18.0983 8.4356 7
      vertex 20.0098 8.40635 7
    endloop
  endfacet
  facet normal 0 0 -1
    outer loop
      vertex 24.53 9.20339 7
      vertex 26.611 9.33031 7
      vertex 27 7.5 7
    endloop
  endfacet
  facet normal 0 0 -1
    outer loop
      vertex 24.53 9.20339 7
      vertex 27 7.5 7
      vertex 25.15 7.5 7
    endloop
  endfacet
  facet normal 0 0 -1
    outer loop
      vertex 25.15 7.5 7
      vertex 26.611 5.66968 7
      vertex 24.53 5.79661 7
    endloop
  endfacet
  facet normal 0 0 -1
    outer loop
      vertex 24.53 5.79661 7
      vertex 25.5111 4.15585 7
      vertex 22.9602 4.89026 7
    endloop
  endfacet
  facet normal -1 0 0
    outer loop
      vertex 40 0 0
      vertex 40 0 10
      vertex 40 30 0
    endloop
  endfacet
  facet normal -1 0 0
    outer loop
      vertex 40 30 0
      vertex 40 0 10
      vertex 40 30 10
    endloop
  endfacet
  facet normal 0 -1 0
    outer loop
      vertex 40 0 10
      vertex 40 0 0
      vertex 70 0 0
    endloop
  endfacet
  facet normal 0 -1 0
    outer loop
      vertex 70 0 10
      vertex 40 0 10
      vertex 70 0 0
    endloop
  endfacet
  facet normal 0 0 -1
    outer loop
      vertex 46.175 20.205 0
      vertex 49.53 9.20339 0
      vertex 45.0098 21.5936 0
    endloop
  endfacet
  facet normal 0 0 -1
    outer loop
      vertex 49.53 24.2034 0
      vertex 40 30 0
      vertex 70 30 0
    endloop
  endfacet
  facet normal 0 0 -1
    outer loop
      vertex 40 0 0
      vertex 40 30 0
      vertex 45.0098 8.40635 0
    endloop
  endfacet
  facet normal 0 0 -1
    outer loop
      vertex 40 0 0
      vertex 45.0098 8.40635 0
      vertex 45.0098 6.59365 0
    endloop
  endfacet
  facet normal 0 0 -1
    outer loop
      vertex 40 0 0
      vertex 45.0098 6.59365 0
      vertex 46.175 5.20503 0
    endloop
  endfacet
  facet normal 0 0 -1
    outer loop
      vertex 40 0 0
      vertex 46.175 5.20503 0
      vertex 70 0 0
    endloop
  endfacet
  facet normal 0 0 -1
    outer loop
      vertex 46.175 5.20503 0
      vertex 47.9602 4.89026 0
      vertex 70 0 0
    endloop
  endfacet
  facet normal 0 0 -1
    outer loop
      vertex 50.15 7.5 0
      vertex 70 0 0
      vertex 49.53 5.79661 0
    endloop
  endfacet
  facet normal 0 0 -1
    outer loop
      vertex 45.0098 23.4064 0
      vertex 40 30 0
      vertex 46.175 24.795 0
    endloop
  endfacet
  facet normal 0 0 -1
    outer loop
      vertex 47.9602 10.1097 0
      vertex 40 30 0
      vertex 49.53 9.20339 0
    endloop
  endfacet
  facet normal 0 0 -1
    outer loop
      vertex 46.175 24.795 0
      vertex 40 30 0
      vertex 47.9602 25.1097 0
    endloop
  endfacet
  facet normal 0 0 -1
    outer loop
      vertex 50.15 7.5 0
      vertex 49.53 9.20339 0
      vertex 70 0 0
    endloop
  endfacet
  facet normal 0 0 -1
    outer loop
      vertex 46.175 9.79497 0
      vertex 40 30 0
      vertex 47.9602 10.1097 0
    endloop
  endfacet
  facet normal 0 0 -1
    outer loop
      vertex 45.0098 8.40635 0
      vertex 40 30 0
      vertex 46.175 9.79497 0
    endloop
  endfacet
  facet normal 0 0 -1
    outer loop
      vertex 45.0098 21.5936 0
      vertex 40 30 0
      vertex 45.0098 23.4064 0
    endloop
  endfacet
  facet normal 0 0 -1
    outer loop
      vertex 49.53 9.20339 0
      vertex 40 30 0
      vertex 45.0098 21.5936 0
    endloop
  endfacet
  facet normal 0 0 -1
    outer loop
      vertex 62.9602 4.89026 0
      vertex 70 0 0
      vertex 61.175 5.20503 0
    endloop
  endfacet
  facet normal 0 0 -1
    outer loop
      vertex 60 21.65 0
      vertex 49.53 20.7966 0
      vertex 70 30 0
    endloop
  endfacet
  facet normal 0 0 -1
    outer loop
      vertex 60 18.35 0
      vertex 70 0 0
      vertex 59.175 18.5711 0
    endloop
  endfacet
  facet normal 0 0 -1
    outer loop
      vertex 49.53 20.7966 0
      vertex 50.15 22.5 0
      vertex 70 30 0
    endloop
  endfacet
  facet normal 0 0 -1
    outer loop
      vertex 47.9602 25.1097 0
      vertex 40 30 0
      vertex 49.53 24.2034 0
    endloop
  endfacet
  facet normal 0 0 -1
    outer loop
      vertex 50.15 22.5 0
      vertex 49.53 24.2034 0
      vertex 70 30 0
    endloop
  endfacet
  facet normal 0 0 -1
    outer loop
      vertex 60.0098 8.40635 0
      vertex 49.53 20.7966 0
      vertex 61.175 9.79497 0
    endloop
  endfacet
  facet normal 0 0 -1
    outer loop
      vertex 58.5711 19.175 0
      vertex 49.53 20.7966 0
      vertex 58.35 20 0
    endloop
  endfacet
  facet normal 0 0 -1
    outer loop
      vertex 60.0098 8.40635 0
      vertex 47.9602 19.8903 0
      vertex 49.53 20.7966 0
    endloop
  endfacet
  facet normal 0 0 -1
    outer loop
      vertex 61.175 9.79497 0
      vertex 49.53 20.7966 0
      vertex 58.5711 19.175 0
    endloop
  endfacet
  facet normal 0 0 -1
    outer loop
      vertex 64.53 9.20339 0
      vertex 58.5711 19.175 0
      vertex 59.175 18.5711 0
    endloop
  endfacet
  facet normal 0 0 -1
    outer loop
      vertex 61.65 20 0
      vertex 70 30 0
      vertex 61.4289 19.175 0
    endloop
  endfacet
  facet normal 0 0 -1
    outer loop
      vertex 70 0 0
      vertex 60 18.35 0
      vertex 60.825 18.5711 0
    endloop
  endfacet
  facet normal 0 0 -1
    outer loop
      vertex 70 0 0
      vertex 60.825 18.5711 0
      vertex 61.4289 19.175 0
    endloop
  endfacet
  facet normal 0 0 -1
    outer loop
      vertex 70 0 0
      vertex 61.4289 19.175 0
      vertex 70 30 0
    endloop
  endfacet
  facet normal 0 0 -1
    outer loop
      vertex 61.4289 20.825 0
      vertex 70 30 0
      vertex 61.65 20 0
    endloop
  endfacet
  facet normal 0 0 -1
    outer loop
      vertex 60 21.65 0
      vertex 70 30 0
      vertex 60.825 21.4289 0
    endloop
  endfacet
  facet normal 0 0 -1
    outer loop
      vertex 61.4289 20.825 0
      vertex 60.825 21.4289 0
      vertex 70 30 0
    endloop
  endfacet
  facet normal 0 0 -1
    outer loop
      vertex 59.175 21.4289 0
      vertex 49.53 20.7966 0
      vertex 60 21.65 0
    endloop
  endfacet
  facet normal 0 0 -1
    outer loop
      vertex 60.0098 8.40635 0
      vertex 46.175 20.205 0
      vertex 47.9602 19.8903 0
    endloop
  endfacet
  facet normal 0 0 -1
    outer loop
      vertex 58.5711 20.825 0
      vertex 49.53 20.7966 0
      vertex 59.175 21.4289 0
    endloop
  endfacet
  facet normal 0 0 -1
    outer loop
      vertex 58.35 20 0
      vertex 49.53 20.7966 0
      vertex 58.5711 20.825 0
    endloop
  endfacet
  facet normal 0 0 -1
    outer loop
      vertex 49.53 9.20339 0
      vertex 46.175 20.205 0
      vertex 60.0098 8.40635 0
    endloop
  endfacet
  facet normal 0 0 -1
    outer loop
      vertex 49.53 9.20339 0
      vertex 60.0098 8.40635 0
      vertex 60.0098 6.59365 0
    endloop
  endfacet
  facet normal 0 0 -1
    outer loop
      vertex 49.53 9.20339 0
      vertex 60.0098 6.59365 0
      vertex 61.175 5.20503 0
    endloop
  endfacet
  facet normal 0 0 -1
    outer loop
      vertex 49.53 9.20339 0
      vertex 61.175 5.20503 0
      vertex 70 0 0
    endloop
  endfacet
  facet normal 0 0 -1
    outer loop
      vertex 64.53 5.79661 0
      vertex 70 0 0
      vertex 62.9602 4.89026 0
    endloop
  endfacet
  facet normal 0 0 -1
    outer loop
      vertex 70 0 0
      vertex 64.53 5.79661 0
      vertex 65.15 7.5 0
    endloop
  endfacet
  facet normal 0 0 -1
    outer loop
      vertex 62.9602 10.1097 0
      vertex 58.5711 19.175 0
      vertex 64.53 9.20339 0
    endloop
  endfacet
  facet normal 0 0 -1
    outer loop
      vertex 70 0 0
      vertex 64.53 9.20339 0
      vertex 59.175 18.5711 0
    endloop
  endfacet
  facet normal 0 0 -1
    outer loop
      vertex 61.175 9.79497 0
      vertex 58.5711 19.175 0
      vertex 62.9602 10.1097 0
    endloop
  endfacet
  facet normal 0 0 -1
    outer loop
      vertex 49.53 5.79661 0
      vertex 70 0 0
      vertex 47.9602 4.89026 0
    endloop
  endfacet
  facet normal 0 0 -1
    outer loop
      vertex 64.53 9.20339 0
      vertex 70 0 0
      vertex 65.15 7.5 0
    endloop
  endfacet
  facet normal 0 1 0
    outer loop
      vertex 40 30 0
      vertex 40 30 10
      vertex 70 30 0
    endloop
  endfacet
  facet normal 0 1 0
    outer loop
      vertex 70 30 0
      vertex 40 30 10
      vertex 70 30 10
    endloop
  endfacet
  facet normal 0 0 1
    outer loop
      vertex 45.25 3.60289 10
      vertex 40 0 10
      vertex 70 0 10
    endloop
  endfacet
  facet normal 0 0 1
    outer loop
      vertex 49.75 3.60289 10
      vertex 45.25 3.60289 10
      vertex 70 0 10
    endloop
  endfacet
  facet normal 0 0 1
    outer loop
      vertex 43 7.5 10
      vertex 40 0 10
      vertex 45.25 3.60289 10
    endloop
  endfacet
  facet normal 0 0 1
    outer loop
      vertex 40 30 10
      vertex 40 0 10
      vertex 43 7.5 10
    endloop
  endfacet
  facet normal 0 0 1
    outer loop
      vertex 49.75 18.6029 10
      vertex 45.25 18.6029 10
      vertex 49.75 11.3971 10
    endloop
  endfacet
  facet normal 0 0 1
    outer loop
      vertex 58 7.5 10
      vertex 60.25 11.3971 10
      vertex 49.75 18.6029 10
    endloop
  endfacet
  facet normal 0 0 1
    outer loop
      vertex 45.25 18.6029 10
      vertex 45.25 11.3971 10
      vertex 49.75 11.3971 10
    endloop
  endfacet
  facet normal 0 0 1
    outer loop
      vertex 52 22.5 10
      vertex 49.75 18.6029 10
      vertex 60.25 11.3971 10
    endloop
  endfacet
  facet normal 0 0 1
    outer loop
      vertex 60.25 3.60289 10
      vertex 49.75 3.60289 10
      vertex 70 0 10
    endloop
  endfacet
  facet normal 0 0 1
    outer loop
      vertex 60.25 3.60289 10
      vertex 49.75 11.3971 10
      vertex 52 7.5 10
    endloop
  endfacet
  facet normal 0 0 1
    outer loop
      vertex 43 22.5 10
      vertex 45.25 11.3971 10
      vertex 45.25 18.6029 10
    endloop
  endfacet
  facet normal 0 0 1
    outer loop
      vertex 64.75 3.60289 10
      vertex 60.25 3.60289 10
      vertex 70 0 10
    endloop
  endfacet
  facet normal 0 0 1
    outer loop
      vertex 40 30 10
      vertex 45.25 11.3971 10
      vertex 43 22.5 10
    endloop
  endfacet
  facet normal 0 0 1
    outer loop
      vertex 60.25 3.60289 10
      vertex 58 7.5 10
      vertex 49.75 11.3971 10
    endloop
  endfacet
  facet normal 0 0 1
    outer loop
      vertex 70 30 10
      vertex 40 30 10
      vertex 45.25 26.3971 10
    endloop
  endfacet
  facet normal 0 0 1
    outer loop
      vertex 70 30 10
      vertex 45.25 26.3971 10
      vertex 49.75 26.3971 10
    endloop
  endfacet
  facet normal 0 0 1
    outer loop
      vertex 59.175 21.4289 10
      vertex 60 21.65 10
      vertex 70 30 10
    endloop
  endfacet
  facet normal 0 0 1
    outer loop
      vertex 52 7.5 10
      vertex 49.75 3.60289 10
      vertex 60.25 3.60289 10
    endloop
  endfacet
  facet normal 0 0 1
    outer loop
      vertex 49.75 18.6029 10
      vertex 49.75 11.3971 10
      vertex 58 7.5 10
    endloop
  endfacet
  facet normal 0 0 1
    outer loop
      vertex 67 7.5 10
      vertex 64.75 3.60289 10
      vertex 70 0 10
    endloop
  endfacet
  facet normal 0 0 1
    outer loop
      vertex 58.5711 19.175 10
      vertex 49.75 26.3971 10
      vertex 64.75 11.3971 10
    endloop
  endfacet
  facet normal 0 0 1
    outer loop
      vertex 70 30 10
      vertex 67 7.5 10
      vertex 70 0 10
    endloop
  endfacet
  facet normal 0 0 1
    outer loop
      vertex 70 30 10
      vertex 64.75 11.3971 10
      vertex 67 7.5 10
    endloop
  endfacet
  facet normal 0 0 1
    outer loop
      vertex 60.25 11.3971 10
      vertex 49.75 26.3971 10
      vertex 52 22.5 10
    endloop
  endfacet
  facet normal 0 0 1
    outer loop
      vertex 60.25 11.3971 10
      vertex 64.75 11.3971 10
      vertex 49.75 26.3971 10
    endloop
  endfacet
  facet normal 0 0 1
    outer loop
      vertex 59.175 18.5711 10
      vertex 58.5711 19.175 10
      vertex 64.75 11.3971 10
    endloop
  endfacet
  facet normal 0 0 1
    outer loop
      vertex 58.35 20 10
      vertex 49.75 26.3971 10
      vertex 58.5711 19.175 10
    endloop
  endfacet
  facet normal 0 0 1
    outer loop
      vertex 58.5711 20.825 10
      vertex 49.75 26.3971 10
      vertex 58.35 20 10
    endloop
  endfacet
  facet normal 0 0 1
    outer loop
      vertex 59.175 21.4289 10
      vertex 49.75 26.3971 10
      vertex 58.5711 20.825 10
    endloop
  endfacet
  facet normal 0 0 1
    outer loop
      vertex 60 21.65 10
      vertex 60.825 21.4289 10
      vertex 70 30 10
    endloop
  endfacet
  facet normal 0 0 1
    outer loop
      vertex 70 30 10
      vertex 49.75 26.3971 10
      vertex 59.175 21.4289 10
    endloop
  endfacet
  facet normal 0 0 1
    outer loop
      vertex 60.825 21.4289 10
      vertex 61.4289 20.825 10
      vertex 70 30 10
    endloop
  endfacet
  facet normal 0 0 1
    outer loop
      vertex 70 30 10
      vertex 61.4289 20.825 10
      vertex 64.75 11.3971 10
    endloop
  endfacet
  facet normal 0 0 1
    outer loop
      vertex 61.4289 20.825 10
      vertex 61.65 20 10
      vertex 64.75 11.3971 10
    endloop
  endfacet
  facet normal 0 0 1
    outer loop
      vertex 61.65 20 10
      vertex 61.4289 19.175 10
      vertex 64.75 11.3971 10
    endloop
  endfacet
  facet normal 0 0 1
    outer loop
      vertex 61.4289 19.175 10
      vertex 60.825 18.5711 10
      vertex 64.75 11.3971 10
    endloop
  endfacet
  facet normal 0 0 1
    outer loop
      vertex 60.825 18.5711 10
      vertex 60 18.35 10
      vertex 64.75 11.3971 10
    endloop
  endfacet
  facet normal 0 0 1
    outer loop
      vertex 60 18.35 10
      vertex 59.175 18.5711 10
      vertex 64.75 11.3971 10
    endloop
  endfacet
  facet normal 0 0 1
    outer loop
      vertex 43 7.5 10
      vertex 45.25 11.3971 10
      vertex 40 30 10
    endloop
  endfacet
  facet normal 0 0 1
    outer loop
      vertex 43 22.5 10
      vertex 45.25 26.3971 10
      vertex 40 30 10
    endloop
  endfacet
  facet normal 1 0 0
    outer loop
      vertex 70 0 10
      vertex 70 0 0
      vertex 70 30 0
    endloop
  endfacet
  facet normal 1 0 0
    outer loop
      vertex 70 30 10
      vertex 70 0 10
      vertex 70 30 0
    endloop
  endfacet
  facet normal 1 0 0
    outer loop
      vertex 45.0098 8.40635 0
      vertex 45.0098 8.40635 3
      vertex 45.0098 6.59365 3
    endloop
  endfacet
  facet normal 1 0 0
    outer loop
      vertex 45.0098 6.59365 0
      vertex 45.0098 8.40635 0
      vertex 45.0098 6.59365 3
    endloop
  endfacet
  facet normal 0.766045 -0.642787 0
    outer loop
      vertex 46.175 9.79497 0
      vertex 46.175 9.79497 3
      vertex 45.0098 8.40635 3
    endloop
  endfacet
  facet normal 0.766045 -0.642787 0
    outer loop
      vertex 45.0098 8.40635 0
      vertex 46.175 9.79497 0
      vertex 45.0098 8.40635 3
    endloop
  endfacet
  facet normal 0.173649 -0.984808 0
    outer loop
      vertex 47.9602 10.1097 0
      vertex 47.9602 10.1097 3
      vertex 46.175 9.79497 3
    endloop
  endfacet
  facet normal 0.173649 -0.984808 0
    outer loop
      vertex 46.175 9.79497 0
      vertex 47.9602 10.1097 0
      vertex 46.175 9.79497 3
    endloop
  endfacet
  facet normal -0.5 -0.866025 0
    outer loop
      vertex 49.53 9.20339 0
      vertex 49.53 9.20339 3
      vertex 47.9602 10.1097 3
    endloop
  endfacet
  facet normal -0.5 -0.866025 0
    outer loop
      vertex 47.9602 10.1097 0
      vertex 49.53 9.20339 0
      vertex 47.9602 10.1097 3
    endloop
  endfacet
  facet normal -0.939693 -0.34202 0
    outer loop
      vertex 50.15 7.5 3
      vertex 49.53 9.20339 3
      vertex 50.15 7.5 0
    endloop
  endfacet
  facet normal -0.939693 -0.34202 0
    outer loop
      vertex 50.15 7.5 0
      vertex 49.53 9.20339 3
      vertex 49.53 9.20339 0
    endloop
  endfacet
  facet normal -0.939693 0.34202 0
    outer loop
      vertex 50.15 7.5 3
      vertex 50.15 7.5 0
      vertex 49.53 5.79661 3
    endloop
  endfacet
  facet normal -0.939693 0.34202 0
    outer loop
      vertex 49.53 5.79661 3
      vertex 50.15 7.5 0
      vertex 49.53 5.79661 0
    endloop
  endfacet
  facet normal -0.5 0.866025 0
    outer loop
      vertex 49.53 5.79661 3
      vertex 49.53 5.79661 0
      vertex 47.9602 4.89026 3
    endloop
  endfacet
  facet normal -0.5 0.866025 0
    outer loop
      vertex 47.9602 4.89026 3
      vertex 49.53 5.79661 0
      vertex 47.9602 4.89026 0
    endloop
  endfacet
  facet normal 0.173649 0.984808 0
    outer loop
      vertex 47.9602 4.89026 3
      vertex 47.9602 4.89026 0
      vertex 46.175 5.20503 3
    endloop
  endfacet
  facet normal 0.173649 0.984808 0
    outer loop
      vertex 46.175 5.20503 3
      vertex 47.9602 4.89026 0
      vertex 46.175 5.20503 0
    endloop
  endfacet
  facet normal 0.766045 0.642787 0
    outer loop
      vertex 45.0098 6.59365 3
      vertex 46.175 5.20503 3
      vertex 46.175 5.20503 0
    endloop
  endfacet
  facet normal 0.766045 0.642787 0
    outer loop
      vertex 45.0098 6.59365 0
      vertex 45.0098 6.59365 3
      vertex 46.175 5.20503 0
    endloop
  endfacet
  facet normal 1 0 0
    outer loop
      vertex 45.0098 23.4064 0
      vertex 45.0098 23.4064 3
      vertex 45.0098 21.5936 3
    endloop
  endfacet
  facet normal 1 0 0
    outer loop
      vertex 45.0098 21.5936 0
      vertex 45.0098 23.4064 0
      vertex 45.0098 21.5936 3
    endloop
  endfacet
  facet normal 0.766045 -0.642787 0
    outer loop
      vertex 46.175 24.795 0
      vertex 46.175 24.795 3
      vertex 45.0098 23.4064 3
    endloop
  endfacet
  facet normal 0.766045 -0.642787 0
    outer loop
      vertex 45.0098 23.4064 0
      vertex 46.175 24.795 0
      vertex 45.0098 23.4064 3
    endloop
  endfacet
  facet normal 0.173649 -0.984808 0
    outer loop
      vertex 47.9602 25.1097 0
      vertex 47.9602 25.1097 3
      vertex 46.175 24.795 3
    endloop
  endfacet
  facet normal 0.173649 -0.984808 0
    outer loop
      vertex 46.175 24.795 0
      vertex 47.9602 25.1097 0
      vertex 46.175 24.795 3
    endloop
  endfacet
  facet normal -0.5 -0.866025 0
    outer loop
      vertex 49.53 24.2034 0
      vertex 49.53 24.2034 3
      vertex 47.9602 25.1097 3
    endloop
  endfacet
  facet normal -0.5 -0.866025 0
    outer loop
      vertex 47.9602 25.1097 0
      vertex 49.53 24.2034 0
      vertex 47.9602 25.1097 3
    endloop
  endfacet
  facet normal -0.939693 -0.34202 0
    outer loop
      vertex 50.15 22.5 3
      vertex 49.53 24.2034 3
      vertex 50.15 22.5 0
    endloop
  endfacet
  facet normal -0.939693 -0.34202 0
    outer loop
      vertex 50.15 22.5 0
      vertex 49.53 24.2034 3
      vertex 49.53 24.2034 0
    endloop
  endfacet
  facet normal -0.939693 0.34202 0
    outer loop
      vertex 50.15 22.5 3
      vertex 50.15 22.5 0
      vertex 49.53 20.7966 3
    endloop
  endfacet
  facet normal -0.939693 0.34202 0
    outer loop
      vertex 49.53 20.7966 3
      vertex 50.15 22.5 0
      vertex 49.53 20.7966 0
    endloop
  endfacet
  facet normal -0.5 0.866025 0
    outer loop
      vertex 49.53 20.7966 3
      vertex 49.53 20.7966 0
      vertex 47.9602 19.8903 3
    endloop
  endfacet
  facet normal -0.5 0.866025 0
    outer loop
      vertex 47.9602 19.8903 3
      vertex 49.53 20.7966 0
      vertex 47.9602 19.8903 0
    endloop
  endfacet
  facet normal 0.173649 0.984808 0
    outer loop
      vertex 47.9602 19.8903 3
      vertex 47.9602 19.8903 0
      vertex 46.175 20.205 3
    endloop
  endfacet
  facet normal 0.173649 0.984808 0
    outer loop
      vertex 46.175 20.205 3
      vertex 47.9602 19.8903 0
      vertex 46.175 20.205 0
    endloop
  endfacet
  facet normal 0.766045 0.642787 0
    outer loop
      vertex 45.0098 21.5936 3
      vertex 46.175 20.205 3
      vertex 46.175 20.205 0
    endloop
  endfacet
  facet normal 0.766045 0.642787 0
    outer loop
      vertex 45.0098 21.5936 0
      vertex 45.0098 21.5936 3
      vertex 46.175 20.205 0
    endloop
  endfacet
  facet normal 0.965926 -0.258819 0
    outer loop
      vertex 58.5711 20.825 0
      vertex 58.5711 20.825 10
      vertex 58.35 20 10
    endloop
  endfacet
  facet normal 0.965926 -0.258819 0
    outer loop
      vertex 58.35 20 0
      vertex 58.5711 20.825 0
      vertex 58.35 20 10
    endloop
  endfacet
  facet normal 0.965926 0.258819 0
    outer loop
      vertex 58.35 20 10
      vertex 58.5711 19.175 10
      vertex 58.5711 19.175 0
    endloop
  endfacet
  facet normal 0.965926 0.258819 0
    outer loop
      vertex 58.35 20 0
      vertex 58.35 20 10
      vertex 58.5711 19.175 0
    endloop
  endfacet
  facet normal 0.707107 -0.707107 0
    outer loop
      vertex 59.175 21.4289 0
      vertex 59.175 21.4289 10
      vertex 58.5711 20.825 10
    endloop
  endfacet
  facet normal 0.707107 -0.707107 0
    outer loop
      vertex 58.5711 20.825 0
      vertex 59.175 21.4289 0
      vertex 58.5711 20.825 10
    endloop
  endfacet
  facet normal 0.258819 -0.965926 0
    outer loop
      vertex 60 21.65 0
      vertex 60 21.65 10
      vertex 59.175 21.4289 10
    endloop
  endfacet
  facet normal 0.258819 -0.965926 0
    outer loop
      vertex 59.175 21.4289 0
      vertex 60 21.65 0
      vertex 59.175 21.4289 10
    endloop
  endfacet
  facet normal -0.258819 -0.965926 0
    outer loop
      vertex 60.825 21.4289 0
      vertex 60.825 21.4289 10
      vertex 60 21.65 10
    endloop
  endfacet
  facet normal -0.258819 -0.965926 0
    outer loop
      vertex 60 21.65 0
      vertex 60.825 21.4289 0
      vertex 60 21.65 10
    endloop
  endfacet
  facet normal -0.707107 -0.707107 0
    outer loop
      vertex 61.4289 20.825 0
      vertex 61.4289 20.825 10
      vertex 60.825 21.4289 10
    endloop
  endfacet
  facet normal -0.707107 -0.707107 0
    outer loop
      vertex 60.825 21.4289 0
      vertex 61.4289 20.825 0
      vertex 60.825 21.4289 10
    endloop
  endfacet
  facet normal -0.965926 -0.258819 0
    outer loop
      vertex 61.65 20 10
      vertex 61.4289 20.825 10
      vertex 61.65 20 0
    endloop
  endfacet
  facet normal -0.965926 -0.258819 0
    outer loop
      vertex 61.65 20 0
      vertex 61.4289 20.825 10
      vertex 61.4289 20.825 0
    endloop
  endfacet
  facet normal -0.965926 0.258819 0
    outer loop
      vertex 61.65 20 10
      vertex 61.65 20 0
      vertex 61.4289 19.175 10
    endloop
  endfacet
  facet normal -0.965926 0.258819 0
    outer loop
      vertex 61.4289 19.175 10
      vertex 61.65 20 0
      vertex 61.4289 19.175 0
    endloop
  endfacet
  facet normal -0.707107 0.707107 0
    outer loop
      vertex 61.4289 19.175 10
      vertex 61.4289 19.175 0
      vertex 60.825 18.5711 10
    endloop
  endfacet
  facet normal -0.707107 0.707107 0
    outer loop
      vertex 60.825 18.5711 10
      vertex 61.4289 19.175 0
      vertex 60.825 18.5711 0
    endloop
  endfacet
  facet normal -0.258819 0.965926 0
    outer loop
      vertex 60.825 18.5711 10
      vertex 60.825 18.5711 0
      vertex 60 18.35 10
    endloop
  endfacet
  facet normal -0.258819 0.965926 0
    outer loop
      vertex 60 18.35 10
      vertex 60.825 18.5711 0
      vertex 60 18.35 0
    endloop
  endfacet
  facet normal 0.258819 0.965926 0
    outer loop
      vertex 60 18.35 10
      vertex 60 18.35 0
      vertex 59.175 18.5711 10
    endloop
  endfacet
  facet normal 0.258819 0.965926 0
    outer loop
      vertex 59.175 18.5711 10
      vertex 60 18.35 0
      vertex 59.175 18.5711 0
    endloop
  endfacet
  facet normal 0.707107 0.707107 0
    outer loop
      vertex 59.175 18.5711 10
      vertex 59.175 18.5711 0
      vertex 58.5711 19.175 10
    endloop
  endfacet
  facet normal 0.707107 0.707107 0
    outer loop
      vertex 58.5711 19.175 10
      vertex 59.175 18.5711 0
      vertex 58.5711 19.175 0
    endloop
  endfacet
  facet normal 0.766045 -0.642787 0
    outer loop
      vertex 61.175 9.79497 0
      vertex 61.175 9.79497 3
      vertex 60.0098 8.40635 3
    endloop
  endfacet
  facet normal 0.766045 -0.642787 0
    outer loop
      vertex 60.0098 8.40635 0
      vertex 61.175 9.79497 0
      vertex 60.0098 8.40635 3
    endloop
  endfacet
  facet normal 1 0 0
    outer loop
      vertex 60.0098 8.40635 0
      vertex 60.0098 8.40635 3
      vertex 60.0098 6.59365 3
    endloop
  endfacet
  facet normal 1 0 0
    outer loop
      vertex 60.0098 6.59365 0
      vertex 60.0098 8.40635 0
      vertex 60.0098 6.59365 3
    endloop
  endfacet
  facet normal 0.173649 -0.984808 0
    outer loop
      vertex 62.9602 10.1097 0
      vertex 62.9602 10.1097 3
      vertex 61.175 9.79497 3
    endloop
  endfacet
  facet normal 0.173649 -0.984808 0
    outer loop
      vertex 61.175 9.79497 0
      vertex 62.9602 10.1097 0
      vertex 61.175 9.79497 3
    endloop
  endfacet
  facet normal -0.5 -0.866025 0
    outer loop
      vertex 64.53 9.20339 0
      vertex 64.53 9.20339 3
      vertex 62.9602 10.1097 3
    endloop
  endfacet
  facet normal -0.5 -0.866025 0
    outer loop
      vertex 62.9602 10.1097 0
      vertex 64.53 9.20339 0
      vertex 62.9602 10.1097 3
    endloop
  endfacet
  facet normal -0.939693 -0.34202 0
    outer loop
      vertex 65.15 7.5 3
      vertex 64.53 9.20339 3
      vertex 65.15 7.5 0
    endloop
  endfacet
  facet normal -0.939693 -0.34202 0
    outer loop
      vertex 65.15 7.5 0
      vertex 64.53 9.20339 3
      vertex 64.53 9.20339 0
    endloop
  endfacet
  facet normal -0.939693 0.34202 0
    outer loop
      vertex 65.15 7.5 3
      vertex 65.15 7.5 0
      vertex 64.53 5.79661 3
    endloop
  endfacet
  facet normal -0.939693 0.34202 0
    outer loop
      vertex 64.53 5.79661 3
      vertex 65.15 7.5 0
      vertex 64.53 5.79661 0
    endloop
  endfacet
  facet normal -0.5 0.866025 0
    outer loop
      vertex 64.53 5.79661 3
      vertex 64.53 5.79661 0
      vertex 62.9602 4.89026 3
    endloop
  endfacet
  facet normal -0.5 0.866025 0
    outer loop
      vertex 62.9602 4.89026 3
      vertex 64.53 5.79661 0
      vertex 62.9602 4.89026 0
    endloop
  endfacet
  facet normal 0.173649 0.984808 0
    outer loop
      vertex 62.9602 4.89026 3
      vertex 62.9602 4.89026 0
      vertex 61.175 5.20503 3
    endloop
  endfacet
  facet normal 0.173649 0.984808 0
    outer loop
      vertex 61.175 5.20503 3
      vertex 62.9602 4.89026 0
      vertex 61.175 5.20503 0
    endloop
  endfacet
  facet normal 0.766045 0.642787 0
    outer loop
      vertex 60.0098 6.59365 3
      vertex 61.175 5.20503 3
      vertex 61.175 5.20503 0
    endloop
  endfacet
  facet normal 0.766045 0.642787 0
    outer loop
      vertex 60.0098 6.59365 0
      vertex 60.0098 6.59365 3
      vertex 61.175 5.20503 0
    endloop
  endfacet
  facet normal 0 1 0
    outer loop
      vertex 49.75 3.60289 10
      vertex 49.75 3.60289 3
      vertex 45.25 3.60289 10
    endloop
  endfacet
  facet normal 0 1 0
    outer loop
      vertex 45.25 3.60289 10
      vertex 49.75 3.60289 3
      vertex 45.25 3.60289 3
    endloop
  endfacet
  facet normal 0.866025 0.5 0
    outer loop
      vertex 43 7.5 10
      vertex 45.25 3.60289 10
      vertex 45.25 3.60289 3
    endloop
  endfacet
  facet normal 0.866025 0.5 0
    outer loop
      vertex 43 7.5 3
      vertex 43 7.5 10
      vertex 45.25 3.60289 3
    endloop
  endfacet
  facet normal -0.866025 0.5 0
    outer loop
      vertex 52 7.5 10
      vertex 52 7.5 3
      vertex 49.75 3.60289 10
    endloop
  endfacet
  facet normal -0.866025 0.5 0
    outer loop
      vertex 49.75 3.60289 10
      vertex 52 7.5 3
      vertex 49.75 3.60289 3
    endloop
  endfacet
  facet normal -0.866025 -0.5 0
    outer loop
      vertex 52 7.5 10
      vertex 49.75 11.3971 10
      vertex 52 7.5 3
    endloop
  endfacet
  facet normal -0.866025 -0.5 0
    outer loop
      vertex 52 7.5 3
      vertex 49.75 11.3971 10
      vertex 49.75 11.3971 3
    endloop
  endfacet
  facet normal 0 -1 0
    outer loop
      vertex 49.75 11.3971 3
      vertex 49.75 11.3971 10
      vertex 45.25 11.3971 10
    endloop
  endfacet
  facet normal 0 -1 0
    outer loop
      vertex 45.25 11.3971 3
      vertex 49.75 11.3971 3
      vertex 45.25 11.3971 10
    endloop
  endfacet
  facet normal 0.866025 -0.5 0
    outer loop
      vertex 45.25 11.3971 3
      vertex 45.25 11.3971 10
      vertex 43 7.5 10
    endloop
  endfacet
  facet normal 0.866025 -0.5 0
    outer loop
      vertex 43 7.5 3
      vertex 45.25 11.3971 3
      vertex 43 7.5 10
    endloop
  endfacet
  facet normal 0.866025 0.5 0
    outer loop
      vertex 43 22.5 10
      vertex 45.25 18.6029 10
      vertex 45.25 18.6029 3
    endloop
  endfacet
  facet normal 0.866025 0.5 0
    outer loop
      vertex 43 22.5 3
      vertex 43 22.5 10
      vertex 45.25 18.6029 3
    endloop
  endfacet
  facet normal 0 1 0
    outer loop
      vertex 49.75 18.6029 10
      vertex 49.75 18.6029 3
      vertex 45.25 18.6029 10
    endloop
  endfacet
  facet normal 0 1 0
    outer loop
      vertex 45.25 18.6029 10
      vertex 49.75 18.6029 3
      vertex 45.25 18.6029 3
    endloop
  endfacet
  facet normal -0.866025 0.5 0
    outer loop
      vertex 52 22.5 10
      vertex 52 22.5 3
      vertex 49.75 18.6029 10
    endloop
  endfacet
  facet normal -0.866025 0.5 0
    outer loop
      vertex 49.75 18.6029 10
      vertex 52 22.5 3
      vertex 49.75 18.6029 3
    endloop
  endfacet
  facet normal -0.866025 -0.5 0
    outer loop
      vertex 52 22.5 10
      vertex 49.75 26.3971 10
      vertex 52 22.5 3
    endloop
  endfacet
  facet normal -0.866025 -0.5 0
    outer loop
      vertex 52 22.5 3
      vertex 49.75 26.3971 10
      vertex 49.75 26.3971 3
    endloop
  endfacet
  facet normal 0 -1 0
    outer loop
      vertex 49.75 26.3971 3
      vertex 49.75 26.3971 10
      vertex 45.25 26.3971 10
    endloop
  endfacet
  facet normal 0 -1 0
    outer loop
      vertex 45.25 26.3971 3
      vertex 49.75 26.3971 3
      vertex 45.25 26.3971 10
    endloop
  endfacet
  facet normal 0.866025 -0.5 0
    outer loop
      vertex 45.25 26.3971 3
      vertex 45.25 26.3971 10
      vertex 43 22.5 10
    endloop
  endfacet
  facet normal 0.866025 -0.5 0
    outer loop
      vertex 43 22.5 3
      vertex 45.25 26.3971 3
      vertex 43 22.5 10
    endloop
  endfacet
  facet normal 0 1 0
    outer loop
      vertex 64.75 3.60289 10
      vertex 64.75 3.60289 3
      vertex 60.25 3.60289 10
    endloop
  endfacet
  facet normal 0 1 0
    outer loop
      vertex 60.25 3.60289 10
      vertex 64.75 3.60289 3
      vertex 60.25 3.60289 3
    endloop
  endfacet
  facet normal 0.866025 0.5 0
    outer loop
      vertex 58 7.5 10
      vertex 60.25 3.60289 10
      vertex 60.25 3.60289 3
    endloop
  endfacet
  facet normal 0.866025 0.5 0
    outer loop
      vertex 58 7.5 3
      vertex 58 7.5 10
      vertex 60.25 3.60289 3
    endloop
  endfacet
  facet normal -0.866025 0.5 0
    outer loop
      vertex 67 7.5 10
      vertex 67 7.5 3
      vertex 64.75 3.60289 10
    endloop
  endfacet
  facet normal -0.866025 0.5 0
    outer loop
      vertex 64.75 3.60289 10
      vertex 67 7.5 3
      vertex 64.75 3.60289 3
    endloop
  endfacet
  facet normal -0.866025 -0.5 0
    outer loop
      vertex 67 7.5 10
      vertex 64.75 11.3971 10
      vertex 67 7.5 3
    endloop
  endfacet
  facet normal -0.866025 -0.5 0
    outer loop
      vertex 67 7.5 3
      vertex 64.75 11.3971 10
      vertex 64.75 11.3971 3
    endloop
  endfacet
  facet normal 0 -1 0
    outer loop
      vertex 64.75 11.3971 3
      vertex 64.75 11.3971 10
      vertex 60.25 11.3971 10
    endloop
  endfacet
  facet normal 0 -1 0
    outer loop
      vertex 60.25 11.3971 3
      vertex 64.75 11.3971 3
      vertex 60.25 11.3971 10
    endloop
  endfacet
  facet normal 0.866025 -0.5 0
    outer loop
      vertex 60.25 11.3971 3
      vertex 60.25 11.3971 10
      vertex 58 7.5 10
    endloop
  endfacet
  facet normal 0.866025 -0.5 0
    outer loop
      vertex 58 7.5 3
      vertex 60.25 11.3971 3
      vertex 58 7.5 10
    endloop
  endfacet
  facet normal 0 0 1
    outer loop
      vertex 49.53 5.79661 3
      vertex 49.75 3.60289 3
      vertex 52 7.5 3
    endloop
  endfacet
  facet normal 0 0 1
    outer loop
      vertex 50.15 7.5 3
      vertex 49.53 5.79661 3
      vertex 52 7.5 3
    endloop
  endfacet
  facet normal 0 0 1
    outer loop
      vertex 43 7.5 3
      vertex 45.0098 8.40635 3
      vertex 45.25 11.3971 3
    endloop
  endfacet
  facet normal 0 0 1
    outer loop
      vertex 45.25 11.3971 3
      vertex 46.175 9.79497 3
      vertex 49.75 11.3971 3
    endloop
  endfacet
  facet normal 0 0 1
    outer loop
      vertex 46.175 9.79497 3
      vertex 47.9602 10.1097 3
      vertex 49.75 11.3971 3
    endloop
  endfacet
  facet normal 0 0 1
    outer loop
      vertex 49.75 11.3971 3
      vertex 49.53 9.20339 3
      vertex 52 7.5 3
    endloop
  endfacet
  facet normal 0 0 1
    outer loop
      vertex 49.53 9.20339 3
      vertex 50.15 7.5 3
      vertex 52 7.5 3
    endloop
  endfacet
  facet normal 0 0 1
    outer loop
      vertex 47.9602 4.89026 3
      vertex 49.75 3.60289 3
      vertex 49.53 5.79661 3
    endloop
  endfacet
  facet normal 0 0 1
    outer loop
      vertex 46.175 5.20503 3
      vertex 45.0098 6.59365 3
      vertex 45.25 3.60289 3
    endloop
  endfacet
  facet normal 0 0 1
    outer loop
      vertex 45.25 3.60289 3
      vertex 49.75 3.60289 3
      vertex 47.9602 4.89026 3
    endloop
  endfacet
  facet normal 0 0 1
    outer loop
      vertex 43 7.5 3
      vertex 45.0098 6.59365 3
      vertex 45.0098 8.40635 3
    endloop
  endfacet
  facet normal 0 0 1
    outer loop
      vertex 43 7.5 3
      vertex 45.25 3.60289 3
      vertex 45.0098 6.59365 3
    endloop
  endfacet
  facet normal 0 0 1
    outer loop
      vertex 45.0098 8.40635 3
      vertex 46.175 9.79497 3
      vertex 45.25 11.3971 3
    endloop
  endfacet
  facet normal 0 0 1
    outer loop
      vertex 47.9602 10.1097 3
      vertex 49.53 9.20339 3
      vertex 49.75 11.3971 3
    endloop
  endfacet
  facet normal 0 0 1
    outer loop
      vertex 47.9602 4.89026 3
      vertex 46.175 5.20503 3
      vertex 45.25 3.60289 3
    endloop
  endfacet
  facet normal 0 0 1
    outer loop
      vertex 49.53 20.7966 3
      vertex 49.75 18.6029 3
      vertex 52 22.5 3
    endloop
  endfacet
  facet normal 0 0 1
    outer loop
      vertex 50.15 22.5 3
      vertex 49.53 20.7966 3
      vertex 52 22.5 3
    endloop
  endfacet
  facet normal 0 0 1
    outer loop
      vertex 43 22.5 3
      vertex 45.0098 23.4064 3
      vertex 45.25 26.3971 3
    endloop
  endfacet
  facet normal 0 0 1
    outer loop
      vertex 45.25 26.3971 3
      vertex 46.175 24.795 3
      vertex 49.75 26.3971 3
    endloop
  endfacet
  facet normal 0 0 1
    outer loop
      vertex 46.175 24.795 3
      vertex 47.9602 25.1097 3
      vertex 49.75 26.3971 3
    endloop
  endfacet
  facet normal 0 0 1
    outer loop
      vertex 49.75 26.3971 3
      vertex 49.53 24.2034 3
      vertex 52 22.5 3
    endloop
  endfacet
  facet normal 0 0 1
    outer loop
      vertex 49.53 24.2034 3
      vertex 50.15 22.5 3
      vertex 52 22.5 3
    endloop
  endfacet
  facet normal 0 0 1
    outer loop
      vertex 47.9602 19.8903 3
      vertex 49.75 18.6029 3
      vertex 49.53 20.7966 3
    endloop
  endfacet
  facet normal 0 0 1
    outer loop
      vertex 46.175 20.205 3
      vertex 45.0098 21.5936 3
      vertex 45.25 18.6029 3
    endloop
  endfacet
  facet normal 0 0 1
    outer loop
      vertex 45.25 18.6029 3
      vertex 49.75 18.6029 3
      vertex 47.9602 19.8903 3
    endloop
  endfacet
  facet normal 0 0 1
    outer loop
      vertex 43 22.5 3
      vertex 45.0098 21.5936 3
      vertex 45.0098 23.4064 3
    endloop
  endfacet
  facet normal 0 0 1
    outer loop
      vertex 43 22.5 3
      vertex 45.25 18.6029 3
      vertex 45.0098 21.5936 3
    endloop
  endfacet
  facet normal 0 0 1
    outer loop
      vertex 45.0098 23.4064 3
      vertex 46.175 24.795 3
      vertex 45.25 26.3971 3
    endloop
  endfacet
  facet normal 0 0 1
    outer loop
      vertex 47.9602 25.1097 3
      vertex 49.53 24.2034 3
      vertex 49.75 26.3971 3
    endloop
  endfacet
  facet normal 0 0 1
    outer loop
      vertex 47.9602 19.8903 3
      vertex 46.175 20.205 3
      vertex 45.25 18.6029 3
    endloop
  endfacet
  facet normal 0 0 1
    outer loop
      vertex 64.53 5.79661 3
      vertex 64.75 3.60289 3
      vertex 67 7.5 3
    endloop
  endfacet
  facet normal 0 0 1
    outer loop
      vertex 65.15 7.5 3
      vertex 64.53 5.79661 3
      vertex 67 7.5 3
    endloop
  endfacet
  facet normal 0 0 1
    outer loop
      vertex 58 7.5 3
      vertex 60.0098 8.40635 3
      vertex 60.25 11.3971 3
    endloop
  endfacet
  facet normal 0 0 1
    outer loop
      vertex 60.25 11.3971 3
      vertex 61.175 9.79497 3
      vertex 64.75 11.3971 3
    endloop
  endfacet
  facet normal 0 0 1
    outer loop
      vertex 61.175 9.79497 3
      vertex 62.9602 10.1097 3
      vertex 64.75 11.3971 3
    endloop
  endfacet
  facet normal 0 0 1
    outer loop
      vertex 64.75 11.3971 3
      vertex 64.53 9.20339 3
      vertex 67 7.5 3
    endloop
  endfacet
  facet normal 0 0 1
    outer loop
      vertex 64.53 9.20339 3
      vertex 65.15 7.5 3
      vertex 67 7.5 3
    endloop
  endfacet
  facet normal 0 0 1
    outer loop
      vertex 62.9602 4.89026 3
      vertex 64.75 3.60289 3
      vertex 64.53 5.79661 3
    endloop
  endfacet
  facet normal 0 0 1
    outer loop
      vertex 61.175 5.20503 3
      vertex 60.0098 6.59365 3
      vertex 60.25 3.60289 3
    endloop
  endfacet
  facet normal 0 0 1
    outer loop
      vertex 60.25 3.60289 3
      vertex 64.75 3.60289 3
      vertex 62.9602 4.89026 3
    endloop
  endfacet
  facet normal 0 0 1
    outer loop
      vertex 58 7.5 3
      vertex 60.0098 6.59365 3
      vertex 60.0098 8.40635 3
    endloop
  endfacet
  facet normal 0 0 1
    outer loop
      vertex 58 7.5 3
      vertex 60.25 3.60289 3
      vertex 60.0098 6.59365 3
    endloop
  endfacet
  facet normal 0 0 1
    outer loop
      vertex 60.0098 8.40635 3
      vertex 61.175 9.79497 3
      vertex 60.25 11.3971 3
    endloop
  endfacet
  facet normal 0 0 1
    outer loop
      vertex 62.9602 10.1097 3
      vertex 64.53 9.20339 3
      vertex 64.75 11.3971 3
    endloop
  endfacet
  facet normal 0 0 1
    outer loop
      vertex 62.9602 4.89026 3
      vertex 61.175 5.20503 3
      vertex 60.25 3.60289 3
    endloop
  endfacet
endsolid OpenSCAD_Model
