solid OpenSCAD_Model
  facet normal -0.994522 0.104529 0
    outer loop
      vertex -7.5 -4 -7.5
      vertex -7.33611 -2.44066 7.5
      vertex -7.33611 -2.44066 -7.5
    endloop
  endfacet
  facet normal -0.994522 0.104529 0
    outer loop
      vertex -7.33611 -2.44066 7.5
      vertex -7.5 -4 -7.5
      vertex -7.5 -4 7.5
    endloop
  endfacet
  facet normal 0 1 -0
    outer loop
      vertex 0 3.45891 -7.5
      vertex -0.783963 3.45891 7.5
      vertex 0 3.45891 7.5
    endloop
  endfacet
  facet normal 0 1 0
    outer loop
      vertex -0.783963 3.45891 7.5
      vertex 0 3.45891 -7.5
      vertex -0.783963 3.45891 -7.5
    endloop
  endfacet
  facet normal -0.587785 0.809017 0
    outer loop
      vertex -3.75 2.49519 -7.5
      vertex -5.01848 1.57359 7.5
      vertex -3.75 2.49519 7.5
    endloop
  endfacet
  facet normal -0.587785 0.809017 0
    outer loop
      vertex -5.01848 1.57359 7.5
      vertex -3.75 2.49519 -7.5
      vertex -5.01848 1.57359 -7.5
    endloop
  endfacet
  facet normal -0.207912 0.978148 0
    outer loop
      vertex -0.783963 3.45891 -7.5
      vertex -2.31763 3.13292 7.5
      vertex -0.783963 3.45891 7.5
    endloop
  endfacet
  facet normal -0.207912 0.978148 0
    outer loop
      vertex -2.31763 3.13292 7.5
      vertex -0.783963 3.45891 -7.5
      vertex -2.31763 3.13292 -7.5
    endloop
  endfacet
  facet normal -0.866025 0.5 0
    outer loop
      vertex -6.85159 -0.949475 -7.5
      vertex -6.06763 0.408389 7.5
      vertex -6.06763 0.408389 -7.5
    endloop
  endfacet
  facet normal -0.866025 0.5 0
    outer loop
      vertex -6.06763 0.408389 7.5
      vertex -6.85159 -0.949475 -7.5
      vertex -6.85159 -0.949475 7.5
    endloop
  endfacet
  facet normal -0.743145 0.669131 0
    outer loop
      vertex -6.06763 0.408389 -7.5
      vertex -5.01848 1.57359 7.5
      vertex -5.01848 1.57359 -7.5
    endloop
  endfacet
  facet normal -0.743145 0.669131 0
    outer loop
      vertex -5.01848 1.57359 7.5
      vertex -6.06763 0.408389 -7.5
      vertex -6.06763 0.408389 7.5
    endloop
  endfacet
  facet normal -0.951057 0.309017 0
    outer loop
      vertex -7.33611 -2.44066 -7.5
      vertex -6.85159 -0.949475 7.5
      vertex -6.85159 -0.949475 -7.5
    endloop
  endfacet
  facet normal -0.951057 0.309017 0
    outer loop
      vertex -6.85159 -0.949475 7.5
      vertex -7.33611 -2.44066 -7.5
      vertex -7.33611 -2.44066 7.5
    endloop
  endfacet
  facet normal 0 0 1
    outer loop
      vertex 90 24 7.5
      vertex 102 24 7.5
      vertex 101.869 25.2475 7.5
    endloop
  endfacet
  facet normal -0 0 1
    outer loop
      vertex 102 3.5 7.5
      vertex 110 3.49041 7.5
      vertex 110 3.5 7.5
    endloop
  endfacet
  facet normal 0 0 1
    outer loop
      vertex 110 3.49041 7.5
      vertex 102 3.5 7.5
      vertex 110 0.00958633 7.5
    endloop
  endfacet
  facet normal 0 0 1
    outer loop
      vertex 110 0.00958633 7.5
      vertex 102 3.5 7.5
      vertex 110 0 7.5
    endloop
  endfacet
  facet normal 0 0 1
    outer loop
      vertex 90 24 7.5
      vertex 101.869 25.2475 7.5
      vertex 101.481 26.4404 7.5
    endloop
  endfacet
  facet normal 0 0 1
    outer loop
      vertex 90 24 7.5
      vertex 101.481 26.4404 7.5
      vertex 100.854 27.5267 7.5
    endloop
  endfacet
  facet normal 0 0 1
    outer loop
      vertex 90 24 7.5
      vertex 100.854 27.5267 7.5
      vertex 100.015 28.4589 7.5
    endloop
  endfacet
  facet normal 0 0 1
    outer loop
      vertex 90 24 7.5
      vertex 100.015 28.4589 7.5
      vertex 99 29.1962 7.5
    endloop
  endfacet
  facet normal 0 0 1
    outer loop
      vertex 90 24 7.5
      vertex 99 29.1962 7.5
      vertex 97.8541 29.7063 7.5
    endloop
  endfacet
  facet normal 0 0 1
    outer loop
      vertex 90 24 7.5
      vertex 97.8541 29.7063 7.5
      vertex 96.6272 29.9671 7.5
    endloop
  endfacet
  facet normal 0 0 1
    outer loop
      vertex 90 24 7.5
      vertex 96.6272 29.9671 7.5
      vertex 95.3728 29.9671 7.5
    endloop
  endfacet
  facet normal 0 0 1
    outer loop
      vertex 90 24 7.5
      vertex 95.3728 29.9671 7.5
      vertex 94.1459 29.7063 7.5
    endloop
  endfacet
  facet normal 0 0 1
    outer loop
      vertex 90 24 7.5
      vertex 94.1459 29.7063 7.5
      vertex 93 29.1962 7.5
    endloop
  endfacet
  facet normal 0 0 1
    outer loop
      vertex 90 24 7.5
      vertex 93 29.1962 7.5
      vertex 91.9852 28.4589 7.5
    endloop
  endfacet
  facet normal 0 0 1
    outer loop
      vertex 90 24 7.5
      vertex 91.9852 28.4589 7.5
      vertex 91.1459 27.5267 7.5
    endloop
  endfacet
  facet normal 0 0 1
    outer loop
      vertex 90 24 7.5
      vertex 91.1459 27.5267 7.5
      vertex 90.5187 26.4404 7.5
    endloop
  endfacet
  facet normal 0 0 1
    outer loop
      vertex 90 24 7.5
      vertex 90.5187 26.4404 7.5
      vertex 90.1311 25.2475 7.5
    endloop
  endfacet
  facet normal 0 0 1
    outer loop
      vertex 102 24 7.5
      vertex 90 24 7.5
      vertex 102 3.5 7.5
    endloop
  endfacet
  facet normal 0 0 1
    outer loop
      vertex 90 3.5 7.5
      vertex 102 3.5 7.5
      vertex 90 24 7.5
    endloop
  endfacet
  facet normal -0 0 1
    outer loop
      vertex 90 3.5 7.5
      vertex 110 0 7.5
      vertex 102 3.5 7.5
    endloop
  endfacet
  facet normal 0 0 1
    outer loop
      vertex 0 3.45891 7.5
      vertex 90 3.5 7.5
      vertex 0 3.5 7.5
    endloop
  endfacet
  facet normal 0 0 1
    outer loop
      vertex 0 0 7.5
      vertex 90 3.5 7.5
      vertex 0 3.45891 7.5
    endloop
  endfacet
  facet normal 0 0 1
    outer loop
      vertex 90 3.5 7.5
      vertex 0 0 7.5
      vertex 110 0 7.5
    endloop
  endfacet
  facet normal 0 0 1
    outer loop
      vertex -0.418114 -0.0219126 7.5
      vertex 0 0 7.5
      vertex 0 3.45891 7.5
    endloop
  endfacet
  facet normal 0 0 1
    outer loop
      vertex 0 0 7.5
      vertex -0.418114 -0.0219126 7.5
      vertex 0 -0.0219126 7.5
    endloop
  endfacet
  facet normal -0 0 1
    outer loop
      vertex -0.783963 3.45891 7.5
      vertex -0.418114 -0.0219126 7.5
      vertex 0 3.45891 7.5
    endloop
  endfacet
  facet normal 0 0 1
    outer loop
      vertex -0.783963 3.45891 7.5
      vertex -1.23607 -0.195774 7.5
      vertex -0.418114 -0.0219126 7.5
    endloop
  endfacet
  facet normal -0 0 1
    outer loop
      vertex -2.31763 3.13292 7.5
      vertex -1.23607 -0.195774 7.5
      vertex -0.783963 3.45891 7.5
    endloop
  endfacet
  facet normal 0 0 1
    outer loop
      vertex -1.23607 -0.195774 7.5
      vertex -2.31763 3.13292 7.5
      vertex -2 -0.535899 7.5
    endloop
  endfacet
  facet normal -0 0 1
    outer loop
      vertex -3.75 2.49519 7.5
      vertex -2 -0.535899 7.5
      vertex -2.31763 3.13292 7.5
    endloop
  endfacet
  facet normal 0 0 1
    outer loop
      vertex -2 -0.535899 7.5
      vertex -3.75 2.49519 7.5
      vertex -2.67652 -1.02742 7.5
    endloop
  endfacet
  facet normal -0 0 1
    outer loop
      vertex -5.01848 1.57359 7.5
      vertex -2.67652 -1.02742 7.5
      vertex -3.75 2.49519 7.5
    endloop
  endfacet
  facet normal 0 0 1
    outer loop
      vertex -2.67652 -1.02742 7.5
      vertex -5.01848 1.57359 7.5
      vertex -3.23607 -1.64886 7.5
    endloop
  endfacet
  facet normal -0 0 1
    outer loop
      vertex -6.06763 0.408389 7.5
      vertex -3.23607 -1.64886 7.5
      vertex -5.01848 1.57359 7.5
    endloop
  endfacet
  facet normal 0 0 1
    outer loop
      vertex -3.23607 -1.64886 7.5
      vertex -6.06763 0.408389 7.5
      vertex -3.65418 -2.37305 7.5
    endloop
  endfacet
  facet normal -0 0 1
    outer loop
      vertex -6.85159 -0.949475 7.5
      vertex -3.65418 -2.37305 7.5
      vertex -6.06763 0.408389 7.5
    endloop
  endfacet
  facet normal 0 0 1
    outer loop
      vertex 111.712 2.11384 7.5
      vertex 111.712 1.38615 7.5
      vertex 111.75 1.75 7.5
    endloop
  endfacet
  facet normal 0 0 1
    outer loop
      vertex 111.599 2.46179 7.5
      vertex 111.712 1.38615 7.5
      vertex 111.712 2.11384 7.5
    endloop
  endfacet
  facet normal 0 0 1
    outer loop
      vertex 111.599 2.46179 7.5
      vertex 111.599 1.03821 7.5
      vertex 111.712 1.38615 7.5
    endloop
  endfacet
  facet normal 0 0 1
    outer loop
      vertex 111.416 2.77862 7.5
      vertex 111.599 1.03821 7.5
      vertex 111.599 2.46179 7.5
    endloop
  endfacet
  facet normal 0 0 1
    outer loop
      vertex 111.416 2.77862 7.5
      vertex 111.416 0.721375 7.5
      vertex 111.599 1.03821 7.5
    endloop
  endfacet
  facet normal 0 0 1
    outer loop
      vertex 111.171 3.0505 7.5
      vertex 111.416 0.721375 7.5
      vertex 111.416 2.77862 7.5
    endloop
  endfacet
  facet normal 0 0 1
    outer loop
      vertex 111.171 3.0505 7.5
      vertex 111.171 0.449496 7.5
      vertex 111.416 0.721375 7.5
    endloop
  endfacet
  facet normal 0 0 1
    outer loop
      vertex 110.875 3.26554 7.5
      vertex 111.171 0.449496 7.5
      vertex 111.171 3.0505 7.5
    endloop
  endfacet
  facet normal 0 0 1
    outer loop
      vertex 110.875 3.26554 7.5
      vertex 110.875 0.234455 7.5
      vertex 111.171 0.449496 7.5
    endloop
  endfacet
  facet normal 0 0 1
    outer loop
      vertex 110 3.49041 7.5
      vertex 110.875 3.26554 7.5
      vertex 110.541 3.41435 7.5
    endloop
  endfacet
  facet normal 0 0 1
    outer loop
      vertex 110.875 3.26554 7.5
      vertex 110 3.49041 7.5
      vertex 110.875 0.234455 7.5
    endloop
  endfacet
  facet normal -0 0 1
    outer loop
      vertex 110 3.49041 7.5
      vertex 110.541 3.41435 7.5
      vertex 110.183 3.49041 7.5
    endloop
  endfacet
  facet normal 0 0 1
    outer loop
      vertex 110 0.00958633 7.5
      vertex 110.875 0.234455 7.5
      vertex 110 3.49041 7.5
    endloop
  endfacet
  facet normal 0 0 1
    outer loop
      vertex 110.875 0.234455 7.5
      vertex 110 0.00958633 7.5
      vertex 110.541 0.0856504 7.5
    endloop
  endfacet
  facet normal 0 0 1
    outer loop
      vertex 110.541 0.0856504 7.5
      vertex 110 0.00958633 7.5
      vertex 110.183 0.00958633 7.5
    endloop
  endfacet
  facet normal -0 0 1
    outer loop
      vertex -0.418114 -7.97809 7.5
      vertex 0 -8.00959 7.5
      vertex 0 -7.97809 7.5
    endloop
  endfacet
  facet normal 0 0 1
    outer loop
      vertex 0 -8.00959 7.5
      vertex -0.331116 -11.4589 7.5
      vertex -0.182924 -11.4904 7.5
    endloop
  endfacet
  facet normal 0 0 1
    outer loop
      vertex 0 -8.00959 7.5
      vertex -0.418114 -7.97809 7.5
      vertex -0.331116 -11.4589 7.5
    endloop
  endfacet
  facet normal 0 0 1
    outer loop
      vertex -0.418114 -7.97809 7.5
      vertex -0.783963 -11.4589 7.5
      vertex -0.331116 -11.4589 7.5
    endloop
  endfacet
  facet normal 0 0 1
    outer loop
      vertex -1.23607 -7.80423 7.5
      vertex -0.783963 -11.4589 7.5
      vertex -0.418114 -7.97809 7.5
    endloop
  endfacet
  facet normal 0 0 1
    outer loop
      vertex -2.31763 -11.1329 7.5
      vertex -1.23607 -7.80423 7.5
      vertex -2 -7.4641 7.5
    endloop
  endfacet
  facet normal 0 0 1
    outer loop
      vertex -1.23607 -7.80423 7.5
      vertex -2.31763 -11.1329 7.5
      vertex -0.783963 -11.4589 7.5
    endloop
  endfacet
  facet normal 0 0 1
    outer loop
      vertex -3.75 -10.4952 7.5
      vertex -2 -7.4641 7.5
      vertex -2.67652 -6.97258 7.5
    endloop
  endfacet
  facet normal 0 0 1
    outer loop
      vertex -5.01848 -9.57359 7.5
      vertex -2.67652 -6.97258 7.5
      vertex -3.23607 -6.35114 7.5
    endloop
  endfacet
  facet normal 0 0 1
    outer loop
      vertex -6.06763 -8.40839 7.5
      vertex -3.23607 -6.35114 7.5
      vertex -3.65418 -5.62695 7.5
    endloop
  endfacet
  facet normal 0 0 1
    outer loop
      vertex -2 -7.4641 7.5
      vertex -3.75 -10.4952 7.5
      vertex -2.31763 -11.1329 7.5
    endloop
  endfacet
  facet normal 0 0 1
    outer loop
      vertex -6.85159 -7.05052 7.5
      vertex -3.65418 -5.62695 7.5
      vertex -3.91259 -4.83165 7.5
    endloop
  endfacet
  facet normal 0 0 1
    outer loop
      vertex -7.33611 -5.55934 7.5
      vertex -3.91259 -4.83165 7.5
      vertex -4 -4 7.5
    endloop
  endfacet
  facet normal 0 0 1
    outer loop
      vertex -3.65418 -2.37305 7.5
      vertex -6.85159 -0.949475 7.5
      vertex -3.91259 -3.16835 7.5
    endloop
  endfacet
  facet normal 0 0 1
    outer loop
      vertex -2.67652 -6.97258 7.5
      vertex -5.01848 -9.57359 7.5
      vertex -3.75 -10.4952 7.5
    endloop
  endfacet
  facet normal -0 0 1
    outer loop
      vertex -7.33611 -2.44066 7.5
      vertex -3.91259 -3.16835 7.5
      vertex -6.85159 -0.949475 7.5
    endloop
  endfacet
  facet normal 0 0 1
    outer loop
      vertex -3.23607 -6.35114 7.5
      vertex -6.06763 -8.40839 7.5
      vertex -5.01848 -9.57359 7.5
    endloop
  endfacet
  facet normal 0 0 1
    outer loop
      vertex -3.91259 -3.16835 7.5
      vertex -7.33611 -2.44066 7.5
      vertex -4 -4 7.5
    endloop
  endfacet
  facet normal 0 0 1
    outer loop
      vertex -3.65418 -5.62695 7.5
      vertex -6.85159 -7.05052 7.5
      vertex -6.06763 -8.40839 7.5
    endloop
  endfacet
  facet normal 0 0 1
    outer loop
      vertex -7.5 -4 7.5
      vertex -4 -4 7.5
      vertex -7.33611 -2.44066 7.5
    endloop
  endfacet
  facet normal 0 0 1
    outer loop
      vertex -3.91259 -4.83165 7.5
      vertex -7.33611 -5.55934 7.5
      vertex -6.85159 -7.05052 7.5
    endloop
  endfacet
  facet normal 0 0 1
    outer loop
      vertex -4 -4 7.5
      vertex -7.5 -4 7.5
      vertex -7.33611 -5.55934 7.5
    endloop
  endfacet
  facet normal 0 0 1
    outer loop
      vertex 1.71176 -9.38615 7.5
      vertex 1.71176 -10.1138 7.5
      vertex 1.75 -9.75 7.5
    endloop
  endfacet
  facet normal 0 0 1
    outer loop
      vertex 1.5987 -9.03821 7.5
      vertex 1.71176 -10.1138 7.5
      vertex 1.71176 -9.38615 7.5
    endloop
  endfacet
  facet normal 0 0 1
    outer loop
      vertex 1.5987 -9.03821 7.5
      vertex 1.5987 -10.4618 7.5
      vertex 1.71176 -10.1138 7.5
    endloop
  endfacet
  facet normal 0 0 1
    outer loop
      vertex 1.41578 -8.72138 7.5
      vertex 1.5987 -10.4618 7.5
      vertex 1.5987 -9.03821 7.5
    endloop
  endfacet
  facet normal 0 0 1
    outer loop
      vertex 1.41578 -8.72138 7.5
      vertex 1.41578 -10.7786 7.5
      vertex 1.5987 -10.4618 7.5
    endloop
  endfacet
  facet normal 0 0 1
    outer loop
      vertex 1.17098 -8.4495 7.5
      vertex 1.41578 -10.7786 7.5
      vertex 1.41578 -8.72138 7.5
    endloop
  endfacet
  facet normal 0 0 1
    outer loop
      vertex 1.17098 -8.4495 7.5
      vertex 1.17098 -11.0505 7.5
      vertex 1.41578 -10.7786 7.5
    endloop
  endfacet
  facet normal 0 0 1
    outer loop
      vertex 0.875 -8.23446 7.5
      vertex 1.17098 -11.0505 7.5
      vertex 1.17098 -8.4495 7.5
    endloop
  endfacet
  facet normal 0 0 1
    outer loop
      vertex 0.875 -8.23446 7.5
      vertex 0.875 -11.2655 7.5
      vertex 1.17098 -11.0505 7.5
    endloop
  endfacet
  facet normal 0 0 1
    outer loop
      vertex 0 -8.00959 7.5
      vertex 0.875 -8.23446 7.5
      vertex 0.540779 -8.08565 7.5
    endloop
  endfacet
  facet normal 0 0 1
    outer loop
      vertex 0.875 -8.23446 7.5
      vertex 0 -8.00959 7.5
      vertex 0.875 -11.2655 7.5
    endloop
  endfacet
  facet normal -0 0 1
    outer loop
      vertex 0 -8.00959 7.5
      vertex 0.540779 -8.08565 7.5
      vertex 0.182924 -8.00959 7.5
    endloop
  endfacet
  facet normal 0 0 1
    outer loop
      vertex 0.875 -11.2655 7.5
      vertex 0 -8.00959 7.5
      vertex 0.540779 -11.4143 7.5
    endloop
  endfacet
  facet normal 0 0 1
    outer loop
      vertex 0.540779 -11.4143 7.5
      vertex 0 -8.00959 7.5
      vertex 0.182924 -11.4904 7.5
    endloop
  endfacet
  facet normal 0 0 1
    outer loop
      vertex 0.182924 -11.4904 7.5
      vertex 0 -8.00959 7.5
      vertex -0.182924 -11.4904 7.5
    endloop
  endfacet
  facet normal -0.406737 0.913545 0
    outer loop
      vertex -2.31763 3.13292 -7.5
      vertex -3.75 2.49519 7.5
      vertex -2.31763 3.13292 7.5
    endloop
  endfacet
  facet normal -0.406737 0.913545 0
    outer loop
      vertex -3.75 2.49519 7.5
      vertex -2.31763 3.13292 -7.5
      vertex -3.75 2.49519 -7.5
    endloop
  endfacet
  facet normal -0.207912 -0.978148 0
    outer loop
      vertex -2.31763 -11.1329 -7.5
      vertex -0.783963 -11.4589 7.5
      vertex -2.31763 -11.1329 7.5
    endloop
  endfacet
  facet normal -0.207912 -0.978148 -0
    outer loop
      vertex -0.783963 -11.4589 7.5
      vertex -2.31763 -11.1329 -7.5
      vertex -0.783963 -11.4589 -7.5
    endloop
  endfacet
  facet normal -0.866025 -0.5 0
    outer loop
      vertex -6.06763 -8.40839 -7.5
      vertex -6.85159 -7.05052 7.5
      vertex -6.85159 -7.05052 -7.5
    endloop
  endfacet
  facet normal -0.866025 -0.5 0
    outer loop
      vertex -6.85159 -7.05052 7.5
      vertex -6.06763 -8.40839 -7.5
      vertex -6.06763 -8.40839 7.5
    endloop
  endfacet
  facet normal -0.994522 -0.104529 0
    outer loop
      vertex -7.33611 -5.55934 -7.5
      vertex -7.5 -4 7.5
      vertex -7.5 -4 -7.5
    endloop
  endfacet
  facet normal -0.994522 -0.104529 0
    outer loop
      vertex -7.5 -4 7.5
      vertex -7.33611 -5.55934 -7.5
      vertex -7.33611 -5.55934 7.5
    endloop
  endfacet
  facet normal -0.951057 -0.309017 0
    outer loop
      vertex -6.85159 -7.05052 -7.5
      vertex -7.33611 -5.55934 7.5
      vertex -7.33611 -5.55934 -7.5
    endloop
  endfacet
  facet normal -0.951057 -0.309017 0
    outer loop
      vertex -7.33611 -5.55934 7.5
      vertex -6.85159 -7.05052 -7.5
      vertex -6.85159 -7.05052 7.5
    endloop
  endfacet
  facet normal 0 -1 0
    outer loop
      vertex -0.783963 -11.4589 -7.5
      vertex -0.331116 -11.4589 7.5
      vertex -0.783963 -11.4589 7.5
    endloop
  endfacet
  facet normal 0 -1 -0
    outer loop
      vertex -0.331116 -11.4589 7.5
      vertex -0.783963 -11.4589 -7.5
      vertex -0.331116 -11.4589 -7.5
    endloop
  endfacet
  facet normal -0.587785 -0.809017 0
    outer loop
      vertex -5.01848 -9.57359 -7.5
      vertex -3.75 -10.4952 7.5
      vertex -5.01848 -9.57359 7.5
    endloop
  endfacet
  facet normal -0.587785 -0.809017 -0
    outer loop
      vertex -3.75 -10.4952 7.5
      vertex -5.01848 -9.57359 -7.5
      vertex -3.75 -10.4952 -7.5
    endloop
  endfacet
  facet normal -0.406737 -0.913545 0
    outer loop
      vertex -3.75 -10.4952 -7.5
      vertex -2.31763 -11.1329 7.5
      vertex -3.75 -10.4952 7.5
    endloop
  endfacet
  facet normal -0.406737 -0.913545 -0
    outer loop
      vertex -2.31763 -11.1329 7.5
      vertex -3.75 -10.4952 -7.5
      vertex -2.31763 -11.1329 -7.5
    endloop
  endfacet
  facet normal -0.743145 -0.669131 0
    outer loop
      vertex -5.01848 -9.57359 -7.5
      vertex -6.06763 -8.40839 7.5
      vertex -6.06763 -8.40839 -7.5
    endloop
  endfacet
  facet normal -0.743145 -0.669131 0
    outer loop
      vertex -6.06763 -8.40839 7.5
      vertex -5.01848 -9.57359 -7.5
      vertex -5.01848 -9.57359 7.5
    endloop
  endfacet
  facet normal 0 0 -1
    outer loop
      vertex 1.71176 -10.1138 -7.5
      vertex 1.71176 -9.38615 -7.5
      vertex 1.75 -9.75 -7.5
    endloop
  endfacet
  facet normal 0 0 -1
    outer loop
      vertex 1.5987 -10.4618 -7.5
      vertex 1.71176 -9.38615 -7.5
      vertex 1.71176 -10.1138 -7.5
    endloop
  endfacet
  facet normal 0 0 -1
    outer loop
      vertex 1.5987 -10.4618 -7.5
      vertex 1.5987 -9.03821 -7.5
      vertex 1.71176 -9.38615 -7.5
    endloop
  endfacet
  facet normal 0 0 -1
    outer loop
      vertex 1.41578 -10.7786 -7.5
      vertex 1.5987 -9.03821 -7.5
      vertex 1.5987 -10.4618 -7.5
    endloop
  endfacet
  facet normal 0 0 -1
    outer loop
      vertex 1.41578 -10.7786 -7.5
      vertex 1.41578 -8.72138 -7.5
      vertex 1.5987 -9.03821 -7.5
    endloop
  endfacet
  facet normal 0 0 -1
    outer loop
      vertex 1.17098 -11.0505 -7.5
      vertex 1.41578 -8.72138 -7.5
      vertex 1.41578 -10.7786 -7.5
    endloop
  endfacet
  facet normal 0 0 -1
    outer loop
      vertex 1.17098 -11.0505 -7.5
      vertex 1.17098 -8.4495 -7.5
      vertex 1.41578 -8.72138 -7.5
    endloop
  endfacet
  facet normal 0 0 -1
    outer loop
      vertex 0.875 -11.2655 -7.5
      vertex 1.17098 -8.4495 -7.5
      vertex 1.17098 -11.0505 -7.5
    endloop
  endfacet
  facet normal 0 0 -1
    outer loop
      vertex 0.875 -11.2655 -7.5
      vertex 0.875 -8.23446 -7.5
      vertex 1.17098 -8.4495 -7.5
    endloop
  endfacet
  facet normal 0 0 -1
    outer loop
      vertex 0.540779 -11.4143 -7.5
      vertex 0.875 -8.23446 -7.5
      vertex 0.875 -11.2655 -7.5
    endloop
  endfacet
  facet normal 0 0 -1
    outer loop
      vertex 0 -8.00959 -7.5
      vertex 0.875 -8.23446 -7.5
      vertex 0.540779 -11.4143 -7.5
    endloop
  endfacet
  facet normal 0 0 -1
    outer loop
      vertex -0.331116 -11.4589 -7.5
      vertex 0.540779 -11.4143 -7.5
      vertex 0.182924 -11.4904 -7.5
    endloop
  endfacet
  facet normal 0 0 -1
    outer loop
      vertex 0.875 -8.23446 -7.5
      vertex 0 -8.00959 -7.5
      vertex 0.540779 -8.08565 -7.5
    endloop
  endfacet
  facet normal 0 0 -1
    outer loop
      vertex 0.540779 -8.08565 -7.5
      vertex 0 -8.00959 -7.5
      vertex 0.182924 -8.00959 -7.5
    endloop
  endfacet
  facet normal 0 0 -1
    outer loop
      vertex -0.331116 -11.4589 -7.5
      vertex 0.182924 -11.4904 -7.5
      vertex -0.182924 -11.4904 -7.5
    endloop
  endfacet
  facet normal -0 0 -1
    outer loop
      vertex 0.540779 -11.4143 -7.5
      vertex -0.331116 -11.4589 -7.5
      vertex 0 -8.00959 -7.5
    endloop
  endfacet
  facet normal 0 0 -1
    outer loop
      vertex -0.418114 -7.97809 -7.5
      vertex 0 -8.00959 -7.5
      vertex -0.331116 -11.4589 -7.5
    endloop
  endfacet
  facet normal 0 0 -1
    outer loop
      vertex 0 -8.00959 -7.5
      vertex -0.418114 -7.97809 -7.5
      vertex 0 -7.97809 -7.5
    endloop
  endfacet
  facet normal 0 0 -1
    outer loop
      vertex -0.783963 -11.4589 -7.5
      vertex -0.418114 -7.97809 -7.5
      vertex -0.331116 -11.4589 -7.5
    endloop
  endfacet
  facet normal 0 0 -1
    outer loop
      vertex -0.783963 -11.4589 -7.5
      vertex -1.23607 -7.80423 -7.5
      vertex -0.418114 -7.97809 -7.5
    endloop
  endfacet
  facet normal 0 0 -1
    outer loop
      vertex -2.31763 -11.1329 -7.5
      vertex -1.23607 -7.80423 -7.5
      vertex -0.783963 -11.4589 -7.5
    endloop
  endfacet
  facet normal -0 0 -1
    outer loop
      vertex -1.23607 -7.80423 -7.5
      vertex -2.31763 -11.1329 -7.5
      vertex -2 -7.4641 -7.5
    endloop
  endfacet
  facet normal 0 0 -1
    outer loop
      vertex -3.75 -10.4952 -7.5
      vertex -2 -7.4641 -7.5
      vertex -2.31763 -11.1329 -7.5
    endloop
  endfacet
  facet normal -0 0 -1
    outer loop
      vertex -2 -7.4641 -7.5
      vertex -3.75 -10.4952 -7.5
      vertex -2.67652 -6.97258 -7.5
    endloop
  endfacet
  facet normal 0 0 -1
    outer loop
      vertex -5.01848 -9.57359 -7.5
      vertex -2.67652 -6.97258 -7.5
      vertex -3.75 -10.4952 -7.5
    endloop
  endfacet
  facet normal -0 0 -1
    outer loop
      vertex -2.67652 -6.97258 -7.5
      vertex -5.01848 -9.57359 -7.5
      vertex -3.23607 -6.35114 -7.5
    endloop
  endfacet
  facet normal 0 0 -1
    outer loop
      vertex -6.06763 -8.40839 -7.5
      vertex -3.23607 -6.35114 -7.5
      vertex -5.01848 -9.57359 -7.5
    endloop
  endfacet
  facet normal -0 0 -1
    outer loop
      vertex -3.23607 -6.35114 -7.5
      vertex -6.06763 -8.40839 -7.5
      vertex -3.65418 -5.62695 -7.5
    endloop
  endfacet
  facet normal 0 0 -1
    outer loop
      vertex -6.85159 -7.05052 -7.5
      vertex -3.65418 -5.62695 -7.5
      vertex -6.06763 -8.40839 -7.5
    endloop
  endfacet
  facet normal 0 0 -1
    outer loop
      vertex 102 3.5 -7.5
      vertex 110 0.00958633 -7.5
      vertex 110 0 -7.5
    endloop
  endfacet
  facet normal 0 0 -1
    outer loop
      vertex 110 0.00958633 -7.5
      vertex 102 3.5 -7.5
      vertex 110 3.49041 -7.5
    endloop
  endfacet
  facet normal 0 0 -1
    outer loop
      vertex 110 3.49041 -7.5
      vertex 102 3.5 -7.5
      vertex 110 3.5 -7.5
    endloop
  endfacet
  facet normal 0 0 -1
    outer loop
      vertex 90 24 -7.5
      vertex 102 24 -7.5
      vertex 102 3.5 -7.5
    endloop
  endfacet
  facet normal 0 0 -1
    outer loop
      vertex 102 24 -7.5
      vertex 90 24 -7.5
      vertex 101.869 25.2475 -7.5
    endloop
  endfacet
  facet normal -0 0 -1
    outer loop
      vertex 101.869 25.2475 -7.5
      vertex 90 24 -7.5
      vertex 101.481 26.4404 -7.5
    endloop
  endfacet
  facet normal -0 0 -1
    outer loop
      vertex 101.481 26.4404 -7.5
      vertex 90 24 -7.5
      vertex 100.854 27.5267 -7.5
    endloop
  endfacet
  facet normal -0 0 -1
    outer loop
      vertex 100.854 27.5267 -7.5
      vertex 90 24 -7.5
      vertex 100.015 28.4589 -7.5
    endloop
  endfacet
  facet normal -0 0 -1
    outer loop
      vertex 100.015 28.4589 -7.5
      vertex 90 24 -7.5
      vertex 99 29.1962 -7.5
    endloop
  endfacet
  facet normal -0 0 -1
    outer loop
      vertex 99 29.1962 -7.5
      vertex 90 24 -7.5
      vertex 97.8541 29.7063 -7.5
    endloop
  endfacet
  facet normal -0 0 -1
    outer loop
      vertex 97.8541 29.7063 -7.5
      vertex 90 24 -7.5
      vertex 96.6272 29.9671 -7.5
    endloop
  endfacet
  facet normal -0 0 -1
    outer loop
      vertex 96.6272 29.9671 -7.5
      vertex 90 24 -7.5
      vertex 95.3728 29.9671 -7.5
    endloop
  endfacet
  facet normal 0 0 -1
    outer loop
      vertex 95.3728 29.9671 -7.5
      vertex 90 24 -7.5
      vertex 94.1459 29.7063 -7.5
    endloop
  endfacet
  facet normal 0 0 -1
    outer loop
      vertex 94.1459 29.7063 -7.5
      vertex 90 24 -7.5
      vertex 93 29.1962 -7.5
    endloop
  endfacet
  facet normal 0 0 -1
    outer loop
      vertex 93 29.1962 -7.5
      vertex 90 24 -7.5
      vertex 91.9852 28.4589 -7.5
    endloop
  endfacet
  facet normal 0 0 -1
    outer loop
      vertex 91.9852 28.4589 -7.5
      vertex 90 24 -7.5
      vertex 91.1459 27.5267 -7.5
    endloop
  endfacet
  facet normal 0 0 -1
    outer loop
      vertex 91.1459 27.5267 -7.5
      vertex 90 24 -7.5
      vertex 90.5187 26.4404 -7.5
    endloop
  endfacet
  facet normal 0 0 -1
    outer loop
      vertex 90 24 -7.5
      vertex 102 3.5 -7.5
      vertex 90 3.5 -7.5
    endloop
  endfacet
  facet normal 0 0 -1
    outer loop
      vertex 110 0 -7.5
      vertex 90 3.5 -7.5
      vertex 102 3.5 -7.5
    endloop
  endfacet
  facet normal 0 0 -1
    outer loop
      vertex 0 0 -7.5
      vertex 90 3.5 -7.5
      vertex 110 0 -7.5
    endloop
  endfacet
  facet normal 0 0 -1
    outer loop
      vertex 0 3.45891 -7.5
      vertex 90 3.5 -7.5
      vertex 0 0 -7.5
    endloop
  endfacet
  facet normal -0 0 -1
    outer loop
      vertex 90 3.5 -7.5
      vertex 0 3.45891 -7.5
      vertex 0 3.5 -7.5
    endloop
  endfacet
  facet normal 0 0 -1
    outer loop
      vertex 111.712 1.38615 -7.5
      vertex 111.712 2.11384 -7.5
      vertex 111.75 1.75 -7.5
    endloop
  endfacet
  facet normal 0 0 -1
    outer loop
      vertex 111.599 1.03821 -7.5
      vertex 111.712 2.11384 -7.5
      vertex 111.712 1.38615 -7.5
    endloop
  endfacet
  facet normal 0 0 -1
    outer loop
      vertex 111.599 1.03821 -7.5
      vertex 111.599 2.46179 -7.5
      vertex 111.712 2.11384 -7.5
    endloop
  endfacet
  facet normal 0 0 -1
    outer loop
      vertex 111.416 0.721375 -7.5
      vertex 111.599 2.46179 -7.5
      vertex 111.599 1.03821 -7.5
    endloop
  endfacet
  facet normal 0 0 -1
    outer loop
      vertex 111.416 0.721375 -7.5
      vertex 111.416 2.77862 -7.5
      vertex 111.599 2.46179 -7.5
    endloop
  endfacet
  facet normal 0 0 -1
    outer loop
      vertex 111.171 0.449496 -7.5
      vertex 111.416 2.77862 -7.5
      vertex 111.416 0.721375 -7.5
    endloop
  endfacet
  facet normal 0 0 -1
    outer loop
      vertex 111.171 0.449496 -7.5
      vertex 111.171 3.0505 -7.5
      vertex 111.416 2.77862 -7.5
    endloop
  endfacet
  facet normal 0 0 -1
    outer loop
      vertex 110.875 0.234455 -7.5
      vertex 111.171 3.0505 -7.5
      vertex 111.171 0.449496 -7.5
    endloop
  endfacet
  facet normal 0 0 -1
    outer loop
      vertex 110.875 0.234455 -7.5
      vertex 110.875 3.26554 -7.5
      vertex 111.171 3.0505 -7.5
    endloop
  endfacet
  facet normal 0 0 -1
    outer loop
      vertex 110 0.00958633 -7.5
      vertex 110.875 0.234455 -7.5
      vertex 110.541 0.0856504 -7.5
    endloop
  endfacet
  facet normal -0 0 -1
    outer loop
      vertex 110.875 0.234455 -7.5
      vertex 110 0.00958633 -7.5
      vertex 110.875 3.26554 -7.5
    endloop
  endfacet
  facet normal 0 0 -1
    outer loop
      vertex 110 0.00958633 -7.5
      vertex 110.541 0.0856504 -7.5
      vertex 110.183 0.00958633 -7.5
    endloop
  endfacet
  facet normal 0 0 -1
    outer loop
      vertex 110 3.49041 -7.5
      vertex 110.875 3.26554 -7.5
      vertex 110 0.00958633 -7.5
    endloop
  endfacet
  facet normal 0 0 -1
    outer loop
      vertex 110.875 3.26554 -7.5
      vertex 110 3.49041 -7.5
      vertex 110.541 3.41435 -7.5
    endloop
  endfacet
  facet normal 0 0 -1
    outer loop
      vertex 110.541 3.41435 -7.5
      vertex 110 3.49041 -7.5
      vertex 110.183 3.49041 -7.5
    endloop
  endfacet
  facet normal 0 0 -1
    outer loop
      vertex 90.5187 26.4404 -7.5
      vertex 90 24 -7.5
      vertex 90.1311 25.2475 -7.5
    endloop
  endfacet
  facet normal 0 0 -1
    outer loop
      vertex -0.418114 -0.0219126 -7.5
      vertex 0 0 -7.5
      vertex 0 -0.0219126 -7.5
    endloop
  endfacet
  facet normal -0 0 -1
    outer loop
      vertex 0 0 -7.5
      vertex -0.418114 -0.0219126 -7.5
      vertex 0 3.45891 -7.5
    endloop
  endfacet
  facet normal 0 0 -1
    outer loop
      vertex -0.418114 -0.0219126 -7.5
      vertex -0.783963 3.45891 -7.5
      vertex 0 3.45891 -7.5
    endloop
  endfacet
  facet normal 0 0 -1
    outer loop
      vertex -1.23607 -0.195774 -7.5
      vertex -0.783963 3.45891 -7.5
      vertex -0.418114 -0.0219126 -7.5
    endloop
  endfacet
  facet normal 0 0 -1
    outer loop
      vertex -2.31763 3.13292 -7.5
      vertex -1.23607 -0.195774 -7.5
      vertex -2 -0.535899 -7.5
    endloop
  endfacet
  facet normal 0 0 -1
    outer loop
      vertex -1.23607 -0.195774 -7.5
      vertex -2.31763 3.13292 -7.5
      vertex -0.783963 3.45891 -7.5
    endloop
  endfacet
  facet normal 0 0 -1
    outer loop
      vertex -3.75 2.49519 -7.5
      vertex -2 -0.535899 -7.5
      vertex -2.67652 -1.02742 -7.5
    endloop
  endfacet
  facet normal 0 0 -1
    outer loop
      vertex -5.01848 1.57359 -7.5
      vertex -2.67652 -1.02742 -7.5
      vertex -3.23607 -1.64886 -7.5
    endloop
  endfacet
  facet normal 0 0 -1
    outer loop
      vertex -6.06763 0.408389 -7.5
      vertex -3.23607 -1.64886 -7.5
      vertex -3.65418 -2.37305 -7.5
    endloop
  endfacet
  facet normal 0 0 -1
    outer loop
      vertex -2 -0.535899 -7.5
      vertex -3.75 2.49519 -7.5
      vertex -2.31763 3.13292 -7.5
    endloop
  endfacet
  facet normal 0 0 -1
    outer loop
      vertex -6.85159 -0.949475 -7.5
      vertex -3.65418 -2.37305 -7.5
      vertex -3.91259 -3.16835 -7.5
    endloop
  endfacet
  facet normal 0 0 -1
    outer loop
      vertex -7.33611 -2.44066 -7.5
      vertex -3.91259 -3.16835 -7.5
      vertex -4 -4 -7.5
    endloop
  endfacet
  facet normal -0 0 -1
    outer loop
      vertex -3.65418 -5.62695 -7.5
      vertex -6.85159 -7.05052 -7.5
      vertex -3.91259 -4.83165 -7.5
    endloop
  endfacet
  facet normal 0 0 -1
    outer loop
      vertex -2.67652 -1.02742 -7.5
      vertex -5.01848 1.57359 -7.5
      vertex -3.75 2.49519 -7.5
    endloop
  endfacet
  facet normal 0 0 -1
    outer loop
      vertex -7.33611 -5.55934 -7.5
      vertex -3.91259 -4.83165 -7.5
      vertex -6.85159 -7.05052 -7.5
    endloop
  endfacet
  facet normal 0 0 -1
    outer loop
      vertex -3.23607 -1.64886 -7.5
      vertex -6.06763 0.408389 -7.5
      vertex -5.01848 1.57359 -7.5
    endloop
  endfacet
  facet normal -0 0 -1
    outer loop
      vertex -3.91259 -4.83165 -7.5
      vertex -7.33611 -5.55934 -7.5
      vertex -4 -4 -7.5
    endloop
  endfacet
  facet normal 0 0 -1
    outer loop
      vertex -3.65418 -2.37305 -7.5
      vertex -6.85159 -0.949475 -7.5
      vertex -6.06763 0.408389 -7.5
    endloop
  endfacet
  facet normal 0 0 -1
    outer loop
      vertex -7.5 -4 -7.5
      vertex -4 -4 -7.5
      vertex -7.33611 -5.55934 -7.5
    endloop
  endfacet
  facet normal 0 0 -1
    outer loop
      vertex -3.91259 -3.16835 -7.5
      vertex -7.33611 -2.44066 -7.5
      vertex -6.85159 -0.949475 -7.5
    endloop
  endfacet
  facet normal 0 0 -1
    outer loop
      vertex -4 -4 -7.5
      vertex -7.5 -4 -7.5
      vertex -7.33611 -2.44066 -7.5
    endloop
  endfacet
  facet normal 0.994522 -0.104529 0
    outer loop
      vertex -4 -4 7.5
      vertex -3.91259 -3.16835 -7.5
      vertex -3.91259 -3.16835 7.5
    endloop
  endfacet
  facet normal 0.994522 -0.104529 0
    outer loop
      vertex -3.91259 -3.16835 -7.5
      vertex -4 -4 7.5
      vertex -4 -4 -7.5
    endloop
  endfacet
  facet normal 0 -1 0
    outer loop
      vertex -0.418114 -0.0219126 -7.5
      vertex 0 -0.0219126 7.5
      vertex -0.418114 -0.0219126 7.5
    endloop
  endfacet
  facet normal 0 -1 -0
    outer loop
      vertex 0 -0.0219126 7.5
      vertex -0.418114 -0.0219126 -7.5
      vertex 0 -0.0219126 -7.5
    endloop
  endfacet
  facet normal 0.743145 -0.669131 0
    outer loop
      vertex -3.23607 -1.64886 7.5
      vertex -2.67652 -1.02742 -7.5
      vertex -2.67652 -1.02742 7.5
    endloop
  endfacet
  facet normal 0.743145 -0.669131 0
    outer loop
      vertex -2.67652 -1.02742 -7.5
      vertex -3.23607 -1.64886 7.5
      vertex -3.23607 -1.64886 -7.5
    endloop
  endfacet
  facet normal 0.866026 -0.5 0
    outer loop
      vertex -3.65418 -2.37305 7.5
      vertex -3.23607 -1.64886 -7.5
      vertex -3.23607 -1.64886 7.5
    endloop
  endfacet
  facet normal 0.866026 -0.5 0
    outer loop
      vertex -3.23607 -1.64886 -7.5
      vertex -3.65418 -2.37305 7.5
      vertex -3.65418 -2.37305 -7.5
    endloop
  endfacet
  facet normal 0.406738 -0.913545 0
    outer loop
      vertex -2 -0.535899 -7.5
      vertex -1.23607 -0.195774 7.5
      vertex -2 -0.535899 7.5
    endloop
  endfacet
  facet normal 0.406738 -0.913545 0
    outer loop
      vertex -1.23607 -0.195774 7.5
      vertex -2 -0.535899 -7.5
      vertex -1.23607 -0.195774 -7.5
    endloop
  endfacet
  facet normal 0.951057 -0.309017 0
    outer loop
      vertex -3.91259 -3.16835 7.5
      vertex -3.65418 -2.37305 -7.5
      vertex -3.65418 -2.37305 7.5
    endloop
  endfacet
  facet normal 0.951057 -0.309017 0
    outer loop
      vertex -3.65418 -2.37305 -7.5
      vertex -3.91259 -3.16835 7.5
      vertex -3.91259 -3.16835 -7.5
    endloop
  endfacet
  facet normal 0.587784 -0.809018 0
    outer loop
      vertex -2.67652 -1.02742 -7.5
      vertex -2 -0.535899 7.5
      vertex -2.67652 -1.02742 7.5
    endloop
  endfacet
  facet normal 0.587784 -0.809018 0
    outer loop
      vertex -2 -0.535899 7.5
      vertex -2.67652 -1.02742 -7.5
      vertex -2 -0.535899 -7.5
    endloop
  endfacet
  facet normal 0.207912 -0.978148 0
    outer loop
      vertex -1.23607 -0.195774 -7.5
      vertex -0.418114 -0.0219126 7.5
      vertex -1.23607 -0.195774 7.5
    endloop
  endfacet
  facet normal 0.207912 -0.978148 0
    outer loop
      vertex -0.418114 -0.0219126 7.5
      vertex -1.23607 -0.195774 -7.5
      vertex -0.418114 -0.0219126 -7.5
    endloop
  endfacet
  facet normal 0.207912 0.978148 -0
    outer loop
      vertex -0.418114 -7.97809 -7.5
      vertex -1.23607 -7.80423 7.5
      vertex -0.418114 -7.97809 7.5
    endloop
  endfacet
  facet normal 0.207912 0.978148 0
    outer loop
      vertex -1.23607 -7.80423 7.5
      vertex -0.418114 -7.97809 -7.5
      vertex -1.23607 -7.80423 -7.5
    endloop
  endfacet
  facet normal 0.866026 0.5 0
    outer loop
      vertex -3.23607 -6.35114 7.5
      vertex -3.65418 -5.62695 -7.5
      vertex -3.65418 -5.62695 7.5
    endloop
  endfacet
  facet normal 0.866026 0.5 0
    outer loop
      vertex -3.65418 -5.62695 -7.5
      vertex -3.23607 -6.35114 7.5
      vertex -3.23607 -6.35114 -7.5
    endloop
  endfacet
  facet normal 0.994522 0.104529 0
    outer loop
      vertex -3.91259 -4.83165 7.5
      vertex -4 -4 -7.5
      vertex -4 -4 7.5
    endloop
  endfacet
  facet normal 0.994522 0.104529 0
    outer loop
      vertex -4 -4 -7.5
      vertex -3.91259 -4.83165 7.5
      vertex -3.91259 -4.83165 -7.5
    endloop
  endfacet
  facet normal 0.951057 0.309017 0
    outer loop
      vertex -3.65418 -5.62695 7.5
      vertex -3.91259 -4.83165 -7.5
      vertex -3.91259 -4.83165 7.5
    endloop
  endfacet
  facet normal 0.951057 0.309017 0
    outer loop
      vertex -3.91259 -4.83165 -7.5
      vertex -3.65418 -5.62695 7.5
      vertex -3.65418 -5.62695 -7.5
    endloop
  endfacet
  facet normal 0 1 -0
    outer loop
      vertex 0 -7.97809 -7.5
      vertex -0.418114 -7.97809 7.5
      vertex 0 -7.97809 7.5
    endloop
  endfacet
  facet normal 0 1 0
    outer loop
      vertex -0.418114 -7.97809 7.5
      vertex 0 -7.97809 -7.5
      vertex -0.418114 -7.97809 -7.5
    endloop
  endfacet
  facet normal 0.406737 0.913545 -0
    outer loop
      vertex -1.23607 -7.80423 -7.5
      vertex -2 -7.4641 7.5
      vertex -1.23607 -7.80423 7.5
    endloop
  endfacet
  facet normal 0.406737 0.913545 0
    outer loop
      vertex -2 -7.4641 7.5
      vertex -1.23607 -7.80423 -7.5
      vertex -2 -7.4641 -7.5
    endloop
  endfacet
  facet normal 0.743145 0.669131 0
    outer loop
      vertex -2.67652 -6.97258 7.5
      vertex -3.23607 -6.35114 -7.5
      vertex -3.23607 -6.35114 7.5
    endloop
  endfacet
  facet normal 0.743145 0.669131 0
    outer loop
      vertex -3.23607 -6.35114 -7.5
      vertex -2.67652 -6.97258 7.5
      vertex -2.67652 -6.97258 -7.5
    endloop
  endfacet
  facet normal 0.587785 0.809017 -0
    outer loop
      vertex -2 -7.4641 -7.5
      vertex -2.67652 -6.97258 7.5
      vertex -2 -7.4641 7.5
    endloop
  endfacet
  facet normal 0.587785 0.809017 0
    outer loop
      vertex -2.67652 -6.97258 7.5
      vertex -2 -7.4641 -7.5
      vertex -2.67652 -6.97258 -7.5
    endloop
  endfacet
  facet normal 1 -0 0
    outer loop
      vertex 0 -0.0219126 7.5
      vertex 0 0 -7.5
      vertex 0 0 7.5
    endloop
  endfacet
  facet normal 1 0 0
    outer loop
      vertex 0 0 -7.5
      vertex 0 -0.0219126 7.5
      vertex 0 -0.0219126 -7.5
    endloop
  endfacet
  facet normal -1 0 0
    outer loop
      vertex 0 3.45891 -7.5
      vertex 0 3.5 7.5
      vertex 0 3.5 -7.5
    endloop
  endfacet
  facet normal -1 -0 0
    outer loop
      vertex 0 3.5 7.5
      vertex 0 3.45891 -7.5
      vertex 0 3.45891 7.5
    endloop
  endfacet
  facet normal 1 -0 0
    outer loop
      vertex 0 -8.00959 7.5
      vertex 0 -7.97809 -7.5
      vertex 0 -7.97809 7.5
    endloop
  endfacet
  facet normal 1 0 0
    outer loop
      vertex 0 -7.97809 -7.5
      vertex 0 -8.00959 7.5
      vertex 0 -8.00959 -7.5
    endloop
  endfacet
  facet normal -1 0 0
    outer loop
      vertex 90 24 -7.5
      vertex 90 19.4781 -0.418114
      vertex 90 24 7.5
    endloop
  endfacet
  facet normal -1 0 0
    outer loop
      vertex 90 24 -7.5
      vertex 90 19.3042 -1.23607
      vertex 90 19.4781 -0.418114
    endloop
  endfacet
  facet normal -1 0 0
    outer loop
      vertex 90 24 -7.5
      vertex 90 19.1342 -1.61803
      vertex 90 19.3042 -1.23607
    endloop
  endfacet
  facet normal -1 0 0
    outer loop
      vertex 90 24 -7.5
      vertex 90 18.9641 -2
      vertex 90 19.1342 -1.61803
    endloop
  endfacet
  facet normal -1 0 0
    outer loop
      vertex 90 24 -7.5
      vertex 90 18.7183 -2.33826
      vertex 90 18.9641 -2
    endloop
  endfacet
  facet normal -1 0 0
    outer loop
      vertex 90 24 -7.5
      vertex 90 18.4726 -2.67652
      vertex 90 18.7183 -2.33826
    endloop
  endfacet
  facet normal -1 0 0
    outer loop
      vertex 90 24 -7.5
      vertex 90 17.8511 -3.23607
      vertex 90 18.4726 -2.67652
    endloop
  endfacet
  facet normal -1 0 0
    outer loop
      vertex 90 24 -7.5
      vertex 90 17.1269 -3.65418
      vertex 90 17.8511 -3.23607
    endloop
  endfacet
  facet normal -1 0 0
    outer loop
      vertex 90 24 -7.5
      vertex 90 16.3316 -3.91259
      vertex 90 17.1269 -3.65418
    endloop
  endfacet
  facet normal -1 0 0
    outer loop
      vertex 90 24 -7.5
      vertex 90 15.9158 -3.9563
      vertex 90 16.3316 -3.91259
    endloop
  endfacet
  facet normal -1 0 0
    outer loop
      vertex 90 24 -7.5
      vertex 90 15.5 -4
      vertex 90 15.9158 -3.9563
    endloop
  endfacet
  facet normal -1 0 0
    outer loop
      vertex 90 3.5 -7.5
      vertex 90 15.5 -4
      vertex 90 24 -7.5
    endloop
  endfacet
  facet normal -1 -0 0
    outer loop
      vertex 90 15.5 -4
      vertex 90 3.5 -7.5
      vertex 90 15.0842 -3.9563
    endloop
  endfacet
  facet normal -1 -0 0
    outer loop
      vertex 90 15.0842 -3.9563
      vertex 90 3.5 -7.5
      vertex 90 14.6684 -3.91259
    endloop
  endfacet
  facet normal -1 -0 0
    outer loop
      vertex 90 11.5219 -0.418114
      vertex 90 3.5 -7.5
      vertex 90 11.5219 0.418114
    endloop
  endfacet
  facet normal -1 -0 0
    outer loop
      vertex 90 11.6958 -1.23607
      vertex 90 3.5 -7.5
      vertex 90 11.5219 -0.418114
    endloop
  endfacet
  facet normal -1 -0 0
    outer loop
      vertex 90 11.8658 -1.61803
      vertex 90 3.5 -7.5
      vertex 90 11.6958 -1.23607
    endloop
  endfacet
  facet normal -1 -0 0
    outer loop
      vertex 90 12.0359 -2
      vertex 90 3.5 -7.5
      vertex 90 11.8658 -1.61803
    endloop
  endfacet
  facet normal -1 -0 0
    outer loop
      vertex 90 12.2817 -2.33826
      vertex 90 3.5 -7.5
      vertex 90 12.0359 -2
    endloop
  endfacet
  facet normal -1 -0 0
    outer loop
      vertex 90 12.5274 -2.67652
      vertex 90 3.5 -7.5
      vertex 90 12.2817 -2.33826
    endloop
  endfacet
  facet normal -1 -0 0
    outer loop
      vertex 90 13.1489 -3.23607
      vertex 90 3.5 -7.5
      vertex 90 12.5274 -2.67652
    endloop
  endfacet
  facet normal -1 -0 0
    outer loop
      vertex 90 13.8731 -3.65418
      vertex 90 3.5 -7.5
      vertex 90 13.1489 -3.23607
    endloop
  endfacet
  facet normal -1 -0 0
    outer loop
      vertex 90 14.6684 -3.91259
      vertex 90 3.5 -7.5
      vertex 90 13.8731 -3.65418
    endloop
  endfacet
  facet normal -1 0 0
    outer loop
      vertex 90 19.4781 0.418114
      vertex 90 24 7.5
      vertex 90 19.4781 -0.418114
    endloop
  endfacet
  facet normal -1 0 0
    outer loop
      vertex 90 19.3042 1.23607
      vertex 90 24 7.5
      vertex 90 19.4781 0.418114
    endloop
  endfacet
  facet normal -1 0 0
    outer loop
      vertex 90 19.1342 1.61803
      vertex 90 24 7.5
      vertex 90 19.3042 1.23607
    endloop
  endfacet
  facet normal -1 0 0
    outer loop
      vertex 90 18.9641 2
      vertex 90 24 7.5
      vertex 90 19.1342 1.61803
    endloop
  endfacet
  facet normal -1 0 0
    outer loop
      vertex 90 18.7183 2.33826
      vertex 90 24 7.5
      vertex 90 18.9641 2
    endloop
  endfacet
  facet normal -1 0 0
    outer loop
      vertex 90 18.4726 2.67652
      vertex 90 24 7.5
      vertex 90 18.7183 2.33826
    endloop
  endfacet
  facet normal -1 0 0
    outer loop
      vertex 90 17.8511 3.23607
      vertex 90 24 7.5
      vertex 90 18.4726 2.67652
    endloop
  endfacet
  facet normal -1 0 0
    outer loop
      vertex 90 17.1269 3.65418
      vertex 90 24 7.5
      vertex 90 17.8511 3.23607
    endloop
  endfacet
  facet normal -1 0 0
    outer loop
      vertex 90 16.3316 3.91259
      vertex 90 24 7.5
      vertex 90 17.1269 3.65418
    endloop
  endfacet
  facet normal -1 0 0
    outer loop
      vertex 90 15.9158 3.9563
      vertex 90 24 7.5
      vertex 90 16.3316 3.91259
    endloop
  endfacet
  facet normal -1 0 0
    outer loop
      vertex 90 15.5 4
      vertex 90 24 7.5
      vertex 90 15.9158 3.9563
    endloop
  endfacet
  facet normal -1 0 0
    outer loop
      vertex 90 3.5 7.5
      vertex 90 15.5 4
      vertex 90 15.0842 3.9563
    endloop
  endfacet
  facet normal -1 0 0
    outer loop
      vertex 90 3.5 7.5
      vertex 90 15.0842 3.9563
      vertex 90 14.6684 3.91259
    endloop
  endfacet
  facet normal -1 0 0
    outer loop
      vertex 90 3.5 7.5
      vertex 90 14.6684 3.91259
      vertex 90 13.8731 3.65418
    endloop
  endfacet
  facet normal -1 0 0
    outer loop
      vertex 90 3.5 7.5
      vertex 90 11.5219 0.418114
      vertex 90 3.5 -7.5
    endloop
  endfacet
  facet normal -1 0 0
    outer loop
      vertex 90 11.5219 0.418114
      vertex 90 3.5 7.5
      vertex 90 11.6958 1.23607
    endloop
  endfacet
  facet normal -1 0 0
    outer loop
      vertex 90 11.6958 1.23607
      vertex 90 3.5 7.5
      vertex 90 11.8658 1.61803
    endloop
  endfacet
  facet normal -1 0 0
    outer loop
      vertex 90 11.8658 1.61803
      vertex 90 3.5 7.5
      vertex 90 12.0359 2
    endloop
  endfacet
  facet normal -1 0 0
    outer loop
      vertex 90 12.0359 2
      vertex 90 3.5 7.5
      vertex 90 12.2817 2.33826
    endloop
  endfacet
  facet normal -1 0 0
    outer loop
      vertex 90 15.5 4
      vertex 90 3.5 7.5
      vertex 90 24 7.5
    endloop
  endfacet
  facet normal -1 0 0
    outer loop
      vertex 90 13.1489 3.23607
      vertex 90 3.5 7.5
      vertex 90 13.8731 3.65418
    endloop
  endfacet
  facet normal -1 0 0
    outer loop
      vertex 90 12.5274 2.67652
      vertex 90 3.5 7.5
      vertex 90 13.1489 3.23607
    endloop
  endfacet
  facet normal -1 0 0
    outer loop
      vertex 90 12.2817 2.33826
      vertex 90 3.5 7.5
      vertex 90 12.5274 2.67652
    endloop
  endfacet
  facet normal 1 0 0
    outer loop
      vertex 102 24 7.5
      vertex 102 19.4781 0.418114
      vertex 102 24 -7.5
    endloop
  endfacet
  facet normal 1 0 0
    outer loop
      vertex 102 24 7.5
      vertex 102 19.3042 1.23607
      vertex 102 19.4781 0.418114
    endloop
  endfacet
  facet normal 1 0 0
    outer loop
      vertex 102 24 7.5
      vertex 102 19.1301 1.6272
      vertex 102 19.3042 1.23607
    endloop
  endfacet
  facet normal 1 0 0
    outer loop
      vertex 102 24 7.5
      vertex 102 18.9641 2
      vertex 102 19.1301 1.6272
    endloop
  endfacet
  facet normal 1 0 0
    outer loop
      vertex 102 24 7.5
      vertex 102 18.7242 2.33014
      vertex 102 18.9641 2
    endloop
  endfacet
  facet normal 1 0 0
    outer loop
      vertex 102 24 7.5
      vertex 102 18.4726 2.67652
      vertex 102 18.7242 2.33014
    endloop
  endfacet
  facet normal 1 0 0
    outer loop
      vertex 102 24 7.5
      vertex 102 17.8511 3.23607
      vertex 102 18.4726 2.67652
    endloop
  endfacet
  facet normal 1 0 0
    outer loop
      vertex 102 24 7.5
      vertex 102 17.1269 3.65418
      vertex 102 17.8511 3.23607
    endloop
  endfacet
  facet normal 1 0 0
    outer loop
      vertex 102 24 7.5
      vertex 102 16.3316 3.91259
      vertex 102 17.1269 3.65418
    endloop
  endfacet
  facet normal 1 0 0
    outer loop
      vertex 102 24 7.5
      vertex 102 15.9058 3.95734
      vertex 102 16.3316 3.91259
    endloop
  endfacet
  facet normal 1 0 0
    outer loop
      vertex 102 24 7.5
      vertex 102 15.5 4
      vertex 102 15.9058 3.95734
    endloop
  endfacet
  facet normal 1 -0 0
    outer loop
      vertex 102 3.5 7.5
      vertex 102 15.5 4
      vertex 102 24 7.5
    endloop
  endfacet
  facet normal 1 0 0
    outer loop
      vertex 102 15.5 4
      vertex 102 3.5 7.5
      vertex 102 15.0942 3.95734
    endloop
  endfacet
  facet normal 1 0 0
    outer loop
      vertex 102 15.0942 3.95734
      vertex 102 3.5 7.5
      vertex 102 14.6684 3.91259
    endloop
  endfacet
  facet normal 1 0 0
    outer loop
      vertex 102 11.5219 0.418114
      vertex 102 3.5 7.5
      vertex 102 11.5219 -0.418114
    endloop
  endfacet
  facet normal 1 0 0
    outer loop
      vertex 102 11.6958 1.23607
      vertex 102 3.5 7.5
      vertex 102 11.5219 0.418114
    endloop
  endfacet
  facet normal 1 0 0
    outer loop
      vertex 102 11.8699 1.6272
      vertex 102 3.5 7.5
      vertex 102 11.6958 1.23607
    endloop
  endfacet
  facet normal 1 0 0
    outer loop
      vertex 102 12.0359 2
      vertex 102 3.5 7.5
      vertex 102 11.8699 1.6272
    endloop
  endfacet
  facet normal 1 0 0
    outer loop
      vertex 102 12.2758 2.33014
      vertex 102 3.5 7.5
      vertex 102 12.0359 2
    endloop
  endfacet
  facet normal 1 0 0
    outer loop
      vertex 102 12.5274 2.67652
      vertex 102 3.5 7.5
      vertex 102 12.2758 2.33014
    endloop
  endfacet
  facet normal 1 0 0
    outer loop
      vertex 102 13.1489 3.23607
      vertex 102 3.5 7.5
      vertex 102 12.5274 2.67652
    endloop
  endfacet
  facet normal 1 0 0
    outer loop
      vertex 102 13.8731 3.65418
      vertex 102 3.5 7.5
      vertex 102 13.1489 3.23607
    endloop
  endfacet
  facet normal 1 0 0
    outer loop
      vertex 102 14.6684 3.91259
      vertex 102 3.5 7.5
      vertex 102 13.8731 3.65418
    endloop
  endfacet
  facet normal 1 -0 0
    outer loop
      vertex 102 19.4781 -0.418114
      vertex 102 24 -7.5
      vertex 102 19.4781 0.418114
    endloop
  endfacet
  facet normal 1 -0 0
    outer loop
      vertex 102 19.3042 -1.23607
      vertex 102 24 -7.5
      vertex 102 19.4781 -0.418114
    endloop
  endfacet
  facet normal 1 -0 0
    outer loop
      vertex 102 19.1382 -1.60887
      vertex 102 24 -7.5
      vertex 102 19.3042 -1.23607
    endloop
  endfacet
  facet normal 1 -0 0
    outer loop
      vertex 102 18.9641 -2
      vertex 102 24 -7.5
      vertex 102 19.1382 -1.60887
    endloop
  endfacet
  facet normal 1 -0 0
    outer loop
      vertex 102 18.7124 -2.34638
      vertex 102 24 -7.5
      vertex 102 18.9641 -2
    endloop
  endfacet
  facet normal 1 -0 0
    outer loop
      vertex 102 18.4726 -2.67652
      vertex 102 24 -7.5
      vertex 102 18.7124 -2.34638
    endloop
  endfacet
  facet normal 1 -0 0
    outer loop
      vertex 102 17.8511 -3.23607
      vertex 102 24 -7.5
      vertex 102 18.4726 -2.67652
    endloop
  endfacet
  facet normal 1 -0 0
    outer loop
      vertex 102 17.1269 -3.65418
      vertex 102 24 -7.5
      vertex 102 17.8511 -3.23607
    endloop
  endfacet
  facet normal 1 -0 0
    outer loop
      vertex 102 16.3316 -3.91259
      vertex 102 24 -7.5
      vertex 102 17.1269 -3.65418
    endloop
  endfacet
  facet normal 1 -0 0
    outer loop
      vertex 102 15.9258 -3.95525
      vertex 102 24 -7.5
      vertex 102 16.3316 -3.91259
    endloop
  endfacet
  facet normal 1 -0 0
    outer loop
      vertex 102 15.5 -4
      vertex 102 24 -7.5
      vertex 102 15.9258 -3.95525
    endloop
  endfacet
  facet normal 1 0 0
    outer loop
      vertex 102 3.5 -7.5
      vertex 102 15.5 -4
      vertex 102 15.0742 -3.95525
    endloop
  endfacet
  facet normal 1 0 0
    outer loop
      vertex 102 3.5 -7.5
      vertex 102 15.0742 -3.95525
      vertex 102 14.6684 -3.91259
    endloop
  endfacet
  facet normal 1 0 0
    outer loop
      vertex 102 3.5 -7.5
      vertex 102 14.6684 -3.91259
      vertex 102 13.8731 -3.65418
    endloop
  endfacet
  facet normal 1 0 0
    outer loop
      vertex 102 3.5 -7.5
      vertex 102 12.2876 -2.34638
      vertex 102 12.0359 -2
    endloop
  endfacet
  facet normal 1 0 0
    outer loop
      vertex 102 3.5 -7.5
      vertex 102 11.8618 -1.60887
      vertex 102 11.6958 -1.23607
    endloop
  endfacet
  facet normal 1 0 0
    outer loop
      vertex 102 3.5 -7.5
      vertex 102 11.5219 -0.418114
      vertex 102 3.5 7.5
    endloop
  endfacet
  facet normal 1 0 0
    outer loop
      vertex 102 11.5219 -0.418114
      vertex 102 3.5 -7.5
      vertex 102 11.6958 -1.23607
    endloop
  endfacet
  facet normal 1 0 0
    outer loop
      vertex 102 11.8618 -1.60887
      vertex 102 3.5 -7.5
      vertex 102 12.0359 -2
    endloop
  endfacet
  facet normal 1 0 0
    outer loop
      vertex 102 15.5 -4
      vertex 102 3.5 -7.5
      vertex 102 24 -7.5
    endloop
  endfacet
  facet normal 1 0 0
    outer loop
      vertex 102 13.1489 -3.23607
      vertex 102 3.5 -7.5
      vertex 102 13.8731 -3.65418
    endloop
  endfacet
  facet normal 1 0 0
    outer loop
      vertex 102 12.5274 -2.67652
      vertex 102 3.5 -7.5
      vertex 102 13.1489 -3.23607
    endloop
  endfacet
  facet normal 1 0 0
    outer loop
      vertex 102 12.2876 -2.34638
      vertex 102 3.5 -7.5
      vertex 102 12.5274 -2.67652
    endloop
  endfacet
  facet normal 0 -1 0
    outer loop
      vertex 0 0 -7.5
      vertex 110 0 7.5
      vertex 0 0 7.5
    endloop
  endfacet
  facet normal 0 -1 -0
    outer loop
      vertex 110 0 7.5
      vertex 0 0 -7.5
      vertex 110 0 -7.5
    endloop
  endfacet
  facet normal 0.994522 0.104532 0
    outer loop
      vertex 102 24 7.5
      vertex 101.869 25.2475 -7.5
      vertex 101.869 25.2475 7.5
    endloop
  endfacet
  facet normal 0.994522 0.104532 0
    outer loop
      vertex 101.869 25.2475 -7.5
      vertex 102 24 7.5
      vertex 102 24 -7.5
    endloop
  endfacet
  facet normal -0.20791 0.978148 0
    outer loop
      vertex 95.3728 29.9671 -7.5
      vertex 94.1459 29.7063 7.5
      vertex 95.3728 29.9671 7.5
    endloop
  endfacet
  facet normal -0.20791 0.978148 0
    outer loop
      vertex 94.1459 29.7063 7.5
      vertex 95.3728 29.9671 -7.5
      vertex 94.1459 29.7063 -7.5
    endloop
  endfacet
  facet normal 0.587785 0.809017 -0
    outer loop
      vertex 100.015 28.4589 -7.5
      vertex 99 29.1962 7.5
      vertex 100.015 28.4589 7.5
    endloop
  endfacet
  facet normal 0.587785 0.809017 0
    outer loop
      vertex 99 29.1962 7.5
      vertex 100.015 28.4589 -7.5
      vertex 99 29.1962 -7.5
    endloop
  endfacet
  facet normal -0.866027 0.499997 0
    outer loop
      vertex 90.5187 26.4404 -7.5
      vertex 91.1459 27.5267 7.5
      vertex 91.1459 27.5267 -7.5
    endloop
  endfacet
  facet normal -0.866027 0.499997 0
    outer loop
      vertex 91.1459 27.5267 7.5
      vertex 90.5187 26.4404 -7.5
      vertex 90.5187 26.4404 7.5
    endloop
  endfacet
  facet normal -0.587785 0.809017 0
    outer loop
      vertex 93 29.1962 -7.5
      vertex 91.9852 28.4589 7.5
      vertex 93 29.1962 7.5
    endloop
  endfacet
  facet normal -0.587785 0.809017 0
    outer loop
      vertex 91.9852 28.4589 7.5
      vertex 93 29.1962 -7.5
      vertex 91.9852 28.4589 -7.5
    endloop
  endfacet
  facet normal 0.866027 0.499997 0
    outer loop
      vertex 101.481 26.4404 7.5
      vertex 100.854 27.5267 -7.5
      vertex 100.854 27.5267 7.5
    endloop
  endfacet
  facet normal 0.866027 0.499997 0
    outer loop
      vertex 100.854 27.5267 -7.5
      vertex 101.481 26.4404 7.5
      vertex 101.481 26.4404 -7.5
    endloop
  endfacet
  facet normal 0.951057 0.309016 0
    outer loop
      vertex 101.869 25.2475 7.5
      vertex 101.481 26.4404 -7.5
      vertex 101.481 26.4404 7.5
    endloop
  endfacet
  facet normal 0.951057 0.309016 0
    outer loop
      vertex 101.481 26.4404 -7.5
      vertex 101.869 25.2475 7.5
      vertex 101.869 25.2475 -7.5
    endloop
  endfacet
  facet normal 0.743145 0.66913 0
    outer loop
      vertex 100.854 27.5267 7.5
      vertex 100.015 28.4589 -7.5
      vertex 100.015 28.4589 7.5
    endloop
  endfacet
  facet normal 0.743145 0.66913 0
    outer loop
      vertex 100.015 28.4589 -7.5
      vertex 100.854 27.5267 7.5
      vertex 100.854 27.5267 -7.5
    endloop
  endfacet
  facet normal 0.20791 0.978148 -0
    outer loop
      vertex 97.8541 29.7063 -7.5
      vertex 96.6272 29.9671 7.5
      vertex 97.8541 29.7063 7.5
    endloop
  endfacet
  facet normal 0.20791 0.978148 0
    outer loop
      vertex 96.6272 29.9671 7.5
      vertex 97.8541 29.7063 -7.5
      vertex 96.6272 29.9671 -7.5
    endloop
  endfacet
  facet normal 0 1 -0
    outer loop
      vertex 96.6272 29.9671 -7.5
      vertex 95.3728 29.9671 7.5
      vertex 96.6272 29.9671 7.5
    endloop
  endfacet
  facet normal 0 1 0
    outer loop
      vertex 95.3728 29.9671 7.5
      vertex 96.6272 29.9671 -7.5
      vertex 95.3728 29.9671 -7.5
    endloop
  endfacet
  facet normal 0.406737 0.913545 -0
    outer loop
      vertex 99 29.1962 -7.5
      vertex 97.8541 29.7063 7.5
      vertex 99 29.1962 7.5
    endloop
  endfacet
  facet normal 0.406737 0.913545 0
    outer loop
      vertex 97.8541 29.7063 7.5
      vertex 99 29.1962 -7.5
      vertex 97.8541 29.7063 -7.5
    endloop
  endfacet
  facet normal -0.951057 0.309016 0
    outer loop
      vertex 90.1311 25.2475 -7.5
      vertex 90.5187 26.4404 7.5
      vertex 90.5187 26.4404 -7.5
    endloop
  endfacet
  facet normal -0.951057 0.309016 0
    outer loop
      vertex 90.5187 26.4404 7.5
      vertex 90.1311 25.2475 -7.5
      vertex 90.1311 25.2475 7.5
    endloop
  endfacet
  facet normal -0.994522 0.104532 0
    outer loop
      vertex 90 24 -7.5
      vertex 90.1311 25.2475 7.5
      vertex 90.1311 25.2475 -7.5
    endloop
  endfacet
  facet normal -0.994522 0.104532 0
    outer loop
      vertex 90.1311 25.2475 7.5
      vertex 90 24 -7.5
      vertex 90 24 7.5
    endloop
  endfacet
  facet normal -0.743145 0.66913 0
    outer loop
      vertex 91.1459 27.5267 -7.5
      vertex 91.9852 28.4589 7.5
      vertex 91.9852 28.4589 -7.5
    endloop
  endfacet
  facet normal -0.743145 0.66913 0
    outer loop
      vertex 91.9852 28.4589 7.5
      vertex 91.1459 27.5267 -7.5
      vertex 91.1459 27.5267 7.5
    endloop
  endfacet
  facet normal -0.406737 0.913545 0
    outer loop
      vertex 94.1459 29.7063 -7.5
      vertex 93 29.1962 7.5
      vertex 94.1459 29.7063 7.5
    endloop
  endfacet
  facet normal -0.406737 0.913545 0
    outer loop
      vertex 93 29.1962 7.5
      vertex 94.1459 29.7063 -7.5
      vertex 93 29.1962 -7.5
    endloop
  endfacet
  facet normal 0 -0.104529 0.994522
    outer loop
      vertex 90 16.3316 -3.91259
      vertex 102 15.9258 -3.95525
      vertex 102 16.3316 -3.91259
    endloop
  endfacet
  facet normal 1.35636e-08 -0.104529 0.994522
    outer loop
      vertex 102 15.9258 -3.95525
      vertex 90 16.3316 -3.91259
      vertex 90 15.9158 -3.9563
    endloop
  endfacet
  facet normal 1.23194e-08 -0.104528 0.994522
    outer loop
      vertex 90 15.9158 -3.9563
      vertex 102 15.5 -4
      vertex 102 15.9258 -3.95525
    endloop
  endfacet
  facet normal 0 -0.104528 0.994522
    outer loop
      vertex 102 15.5 -4
      vertex 90 15.9158 -3.9563
      vertex 90 15.5 -4
    endloop
  endfacet
  facet normal -4.41389e-09 0.104528 -0.994522
    outer loop
      vertex 90 15.0842 3.9563
      vertex 102 15.5 4
      vertex 102 15.0942 3.95734
    endloop
  endfacet
  facet normal 0 0.104528 -0.994522
    outer loop
      vertex 102 15.5 4
      vertex 90 15.0842 3.9563
      vertex 90 15.5 4
    endloop
  endfacet
  facet normal 0 -0.499999 -0.866026
    outer loop
      vertex 90 17.1269 3.65418
      vertex 102 17.8511 3.23607
      vertex 102 17.1269 3.65418
    endloop
  endfacet
  facet normal -0 -0.499999 -0.866026
    outer loop
      vertex 102 17.8511 3.23607
      vertex 90 17.1269 3.65418
      vertex 90 17.8511 3.23607
    endloop
  endfacet
  facet normal 0 -0.913545 0.406738
    outer loop
      vertex 90 19.3042 -1.23607
      vertex 102 19.1382 -1.60887
      vertex 102 19.3042 -1.23607
    endloop
  endfacet
  facet normal 1.60043e-08 -0.913545 0.406738
    outer loop
      vertex 102 19.1382 -1.60887
      vertex 90 19.3042 -1.23607
      vertex 90 19.1342 -1.61803
    endloop
  endfacet
  facet normal 0 -0.809019 0.587783
    outer loop
      vertex 90 18.7183 -2.33826
      vertex 102 18.9641 -2
      vertex 90 18.9641 -2
    endloop
  endfacet
  facet normal 4.11951e-08 -0.809019 0.587782
    outer loop
      vertex 102 18.9641 -2
      vertex 90 18.7183 -2.33826
      vertex 102 18.7124 -2.34638
    endloop
  endfacet
  facet normal 4.27443e-08 -0.809018 0.587783
    outer loop
      vertex 90 18.4726 -2.67652
      vertex 102 18.7124 -2.34638
      vertex 90 18.7183 -2.33826
    endloop
  endfacet
  facet normal 0 -0.809018 0.587784
    outer loop
      vertex 102 18.7124 -2.34638
      vertex 90 18.4726 -2.67652
      vertex 102 18.4726 -2.67652
    endloop
  endfacet
  facet normal 0 -0.978147 0.207913
    outer loop
      vertex 90 19.3042 -1.23607
      vertex 102 19.4781 -0.418114
      vertex 90 19.4781 -0.418114
    endloop
  endfacet
  facet normal 0 -0.978147 0.207913
    outer loop
      vertex 102 19.4781 -0.418114
      vertex 90 19.3042 -1.23607
      vertex 102 19.3042 -1.23607
    endloop
  endfacet
  facet normal 0 -0.66913 0.743145
    outer loop
      vertex 90 18.4726 -2.67652
      vertex 102 17.8511 -3.23607
      vertex 102 18.4726 -2.67652
    endloop
  endfacet
  facet normal 0 -0.66913 0.743145
    outer loop
      vertex 102 17.8511 -3.23607
      vertex 90 18.4726 -2.67652
      vertex 90 17.8511 -3.23607
    endloop
  endfacet
  facet normal 0 -0.309017 0.951056
    outer loop
      vertex 90 17.1269 -3.65418
      vertex 102 16.3316 -3.91259
      vertex 102 17.1269 -3.65418
    endloop
  endfacet
  facet normal 0 -0.309017 0.951056
    outer loop
      vertex 102 16.3316 -3.91259
      vertex 90 17.1269 -3.65418
      vertex 90 16.3316 -3.91259
    endloop
  endfacet
  facet normal 0 0.104529 -0.994522
    outer loop
      vertex 90 14.6684 3.91259
      vertex 102 15.0942 3.95734
      vertex 102 14.6684 3.91259
    endloop
  endfacet
  facet normal -5.057e-09 0.104529 -0.994522
    outer loop
      vertex 102 15.0942 3.95734
      vertex 90 14.6684 3.91259
      vertex 90 15.0842 3.9563
    endloop
  endfacet
  facet normal 0 0.978148 -0.207912
    outer loop
      vertex 102 11.5219 0.418114
      vertex 90 11.6958 1.23607
      vertex 102 11.6958 1.23607
    endloop
  endfacet
  facet normal 0 0.978148 -0.207912
    outer loop
      vertex 90 11.6958 1.23607
      vertex 102 11.5219 0.418114
      vertex 90 11.5219 0.418114
    endloop
  endfacet
  facet normal -1.73308e-08 0.913545 -0.406737
    outer loop
      vertex 102 11.6958 1.23607
      vertex 90 11.8658 1.61803
      vertex 102 11.8699 1.6272
    endloop
  endfacet
  facet normal 0 0.913546 -0.406736
    outer loop
      vertex 90 11.8658 1.61803
      vertex 102 11.6958 1.23607
      vertex 90 11.6958 1.23607
    endloop
  endfacet
  facet normal 0 0.913545 0.406738
    outer loop
      vertex 102 11.8618 -1.60887
      vertex 90 11.6958 -1.23607
      vertex 102 11.6958 -1.23607
    endloop
  endfacet
  facet normal -5.48554e-08 0.913546 0.406736
    outer loop
      vertex 90 11.6958 -1.23607
      vertex 102 11.8618 -1.60887
      vertex 90 11.8658 -1.61803
    endloop
  endfacet
  facet normal -2.04996e-08 0.809018 0.587784
    outer loop
      vertex 102 12.5274 -2.67652
      vertex 90 12.2817 -2.33826
      vertex 102 12.2876 -2.34638
    endloop
  endfacet
  facet normal 0 0.809017 0.587785
    outer loop
      vertex 90 12.2817 -2.33826
      vertex 102 12.5274 -2.67652
      vertex 90 12.5274 -2.67652
    endloop
  endfacet
  facet normal -0 0.309017 0.951057
    outer loop
      vertex 90 14.6684 -3.91259
      vertex 102 13.8731 -3.65418
      vertex 102 14.6684 -3.91259
    endloop
  endfacet
  facet normal 0 0.309017 0.951057
    outer loop
      vertex 102 13.8731 -3.65418
      vertex 90 14.6684 -3.91259
      vertex 90 13.8731 -3.65418
    endloop
  endfacet
  facet normal -4.21838e-08 -0.809019 -0.587783
    outer loop
      vertex 90 18.9641 2
      vertex 102 18.7242 2.33014
      vertex 90 18.7183 2.33826
    endloop
  endfacet
  facet normal 0 -0.809018 -0.587784
    outer loop
      vertex 102 18.7242 2.33014
      vertex 90 18.9641 2
      vertex 102 18.9641 2
    endloop
  endfacet
  facet normal 0 -0.913545 -0.406738
    outer loop
      vertex 90 18.9641 2
      vertex 102 19.1301 1.6272
      vertex 102 18.9641 2
    endloop
  endfacet
  facet normal -1.56164e-08 -0.913545 -0.406739
    outer loop
      vertex 102 19.1301 1.6272
      vertex 90 18.9641 2
      vertex 90 19.1342 1.61803
    endloop
  endfacet
  facet normal 1.56164e-08 -0.913545 0.406739
    outer loop
      vertex 90 18.9641 -2
      vertex 102 19.1382 -1.60887
      vertex 90 19.1342 -1.61803
    endloop
  endfacet
  facet normal 0 -0.913544 0.406739
    outer loop
      vertex 102 19.1382 -1.60887
      vertex 90 18.9641 -2
      vertex 102 18.9641 -2
    endloop
  endfacet
  facet normal 0 -1 0
    outer loop
      vertex 90 19.4781 -0.418114
      vertex 102 19.4781 0.418114
      vertex 90 19.4781 0.418114
    endloop
  endfacet
  facet normal 0 -1 -0
    outer loop
      vertex 102 19.4781 0.418114
      vertex 90 19.4781 -0.418114
      vertex 102 19.4781 -0.418114
    endloop
  endfacet
  facet normal 0 -0.499999 0.866026
    outer loop
      vertex 90 17.8511 -3.23607
      vertex 102 17.1269 -3.65418
      vertex 102 17.8511 -3.23607
    endloop
  endfacet
  facet normal 0 -0.499999 0.866026
    outer loop
      vertex 102 17.1269 -3.65418
      vertex 90 17.8511 -3.23607
      vertex 90 17.1269 -3.65418
    endloop
  endfacet
  facet normal 0 0.309017 -0.951057
    outer loop
      vertex 90 13.8731 3.65418
      vertex 102 14.6684 3.91259
      vertex 102 13.8731 3.65418
    endloop
  endfacet
  facet normal 0 0.309017 -0.951057
    outer loop
      vertex 102 14.6684 3.91259
      vertex 90 13.8731 3.65418
      vertex 90 14.6684 3.91259
    endloop
  endfacet
  facet normal 0 0.5 -0.866026
    outer loop
      vertex 90 13.1489 3.23607
      vertex 102 13.8731 3.65418
      vertex 102 13.1489 3.23607
    endloop
  endfacet
  facet normal 0 0.5 -0.866026
    outer loop
      vertex 102 13.8731 3.65418
      vertex 90 13.1489 3.23607
      vertex 90 13.8731 3.65418
    endloop
  endfacet
  facet normal 1.36928e-08 0.104529 0.994522
    outer loop
      vertex 90 15.0842 -3.9563
      vertex 102 14.6684 -3.91259
      vertex 102 15.0742 -3.95525
    endloop
  endfacet
  facet normal 0 0.104529 0.994522
    outer loop
      vertex 102 14.6684 -3.91259
      vertex 90 15.0842 -3.9563
      vertex 90 14.6684 -3.91259
    endloop
  endfacet
  facet normal -0 0.104528 0.994522
    outer loop
      vertex 90 15.5 -4
      vertex 102 15.0742 -3.95525
      vertex 102 15.5 -4
    endloop
  endfacet
  facet normal 1.26151e-08 0.104528 0.994522
    outer loop
      vertex 102 15.0742 -3.95525
      vertex 90 15.5 -4
      vertex 90 15.0842 -3.9563
    endloop
  endfacet
  facet normal 0 -0.309017 -0.951056
    outer loop
      vertex 90 16.3316 3.91259
      vertex 102 17.1269 3.65418
      vertex 102 16.3316 3.91259
    endloop
  endfacet
  facet normal -0 -0.309017 -0.951056
    outer loop
      vertex 102 17.1269 3.65418
      vertex 90 16.3316 3.91259
      vertex 90 17.1269 3.65418
    endloop
  endfacet
  facet normal 0 -0.104528 -0.994522
    outer loop
      vertex 90 15.5 4
      vertex 102 15.9058 3.95734
      vertex 102 15.5 4
    endloop
  endfacet
  facet normal -1.26151e-08 -0.104528 -0.994522
    outer loop
      vertex 102 15.9058 3.95734
      vertex 90 15.5 4
      vertex 90 15.9158 3.9563
    endloop
  endfacet
  facet normal 0 -0.66913 -0.743145
    outer loop
      vertex 90 17.8511 3.23607
      vertex 102 18.4726 2.67652
      vertex 102 17.8511 3.23607
    endloop
  endfacet
  facet normal -0 -0.66913 -0.743145
    outer loop
      vertex 102 18.4726 2.67652
      vertex 90 17.8511 3.23607
      vertex 90 18.4726 2.67652
    endloop
  endfacet
  facet normal 0 -0.809018 -0.587783
    outer loop
      vertex 90 18.7183 2.33826
      vertex 102 18.4726 2.67652
      vertex 90 18.4726 2.67652
    endloop
  endfacet
  facet normal -4.17425e-08 -0.809019 -0.587783
    outer loop
      vertex 102 18.4726 2.67652
      vertex 90 18.7183 2.33826
      vertex 102 18.7242 2.33014
    endloop
  endfacet
  facet normal -1.60043e-08 -0.913545 -0.406738
    outer loop
      vertex 90 19.3042 1.23607
      vertex 102 19.1301 1.6272
      vertex 90 19.1342 1.61803
    endloop
  endfacet
  facet normal 0 -0.913545 -0.406739
    outer loop
      vertex 102 19.1301 1.6272
      vertex 90 19.3042 1.23607
      vertex 102 19.3042 1.23607
    endloop
  endfacet
  facet normal 0 -0.978147 -0.207913
    outer loop
      vertex 90 19.4781 0.418114
      vertex 102 19.3042 1.23607
      vertex 90 19.3042 1.23607
    endloop
  endfacet
  facet normal 0 -0.978147 -0.207913
    outer loop
      vertex 102 19.3042 1.23607
      vertex 90 19.4781 0.418114
      vertex 102 19.4781 0.418114
    endloop
  endfacet
  facet normal 0 0.913545 -0.406738
    outer loop
      vertex 102 11.8699 1.6272
      vertex 90 12.0359 2
      vertex 102 12.0359 2
    endloop
  endfacet
  facet normal -1.56164e-08 0.913545 -0.406739
    outer loop
      vertex 90 12.0359 2
      vertex 102 11.8699 1.6272
      vertex 90 11.8658 1.61803
    endloop
  endfacet
  facet normal 0 0.809017 -0.587785
    outer loop
      vertex 102 12.5274 2.67652
      vertex 90 12.2817 2.33826
      vertex 90 12.5274 2.67652
    endloop
  endfacet
  facet normal 1.95387e-08 0.809017 -0.587785
    outer loop
      vertex 90 12.2817 2.33826
      vertex 102 12.5274 2.67652
      vertex 102 12.2758 2.33014
    endloop
  endfacet
  facet normal 0 0.669131 -0.743145
    outer loop
      vertex 90 12.5274 2.67652
      vertex 102 13.1489 3.23607
      vertex 102 12.5274 2.67652
    endloop
  endfacet
  facet normal 0 0.669131 -0.743145
    outer loop
      vertex 102 13.1489 3.23607
      vertex 90 12.5274 2.67652
      vertex 90 13.1489 3.23607
    endloop
  endfacet
  facet normal -5.56501e-08 0.913545 0.406737
    outer loop
      vertex 102 12.0359 -2
      vertex 90 11.8658 -1.61803
      vertex 102 11.8618 -1.60887
    endloop
  endfacet
  facet normal 0 0.913545 0.406739
    outer loop
      vertex 90 11.8658 -1.61803
      vertex 102 12.0359 -2
      vertex 90 12.0359 -2
    endloop
  endfacet
  facet normal 0 0.809018 0.587784
    outer loop
      vertex 102 12.0359 -2
      vertex 90 12.2817 -2.33826
      vertex 90 12.0359 -2
    endloop
  endfacet
  facet normal -2.00861e-08 0.809017 0.587785
    outer loop
      vertex 90 12.2817 -2.33826
      vertex 102 12.0359 -2
      vertex 102 12.2876 -2.34638
    endloop
  endfacet
  facet normal -0 0.5 0.866026
    outer loop
      vertex 90 13.8731 -3.65418
      vertex 102 13.1489 -3.23607
      vertex 102 13.8731 -3.65418
    endloop
  endfacet
  facet normal 0 0.5 0.866026
    outer loop
      vertex 102 13.1489 -3.23607
      vertex 90 13.8731 -3.65418
      vertex 90 13.1489 -3.23607
    endloop
  endfacet
  facet normal -0 0.669131 0.743145
    outer loop
      vertex 90 13.1489 -3.23607
      vertex 102 12.5274 -2.67652
      vertex 102 13.1489 -3.23607
    endloop
  endfacet
  facet normal 0 0.669131 0.743145
    outer loop
      vertex 102 12.5274 -2.67652
      vertex 90 13.1489 -3.23607
      vertex 90 12.5274 -2.67652
    endloop
  endfacet
  facet normal -1.32457e-08 -0.104529 -0.994522
    outer loop
      vertex 90 15.9158 3.9563
      vertex 102 16.3316 3.91259
      vertex 102 15.9058 3.95734
    endloop
  endfacet
  facet normal -0 -0.104529 -0.994522
    outer loop
      vertex 102 16.3316 3.91259
      vertex 90 15.9158 3.9563
      vertex 90 16.3316 3.91259
    endloop
  endfacet
  facet normal 2.10739e-08 0.809018 -0.587784
    outer loop
      vertex 102 12.0359 2
      vertex 90 12.2817 2.33826
      vertex 102 12.2758 2.33014
    endloop
  endfacet
  facet normal 0 0.809018 -0.587784
    outer loop
      vertex 90 12.2817 2.33826
      vertex 102 12.0359 2
      vertex 90 12.0359 2
    endloop
  endfacet
  facet normal 0 0.978148 0.207912
    outer loop
      vertex 102 11.6958 -1.23607
      vertex 90 11.5219 -0.418114
      vertex 102 11.5219 -0.418114
    endloop
  endfacet
  facet normal 0 0.978148 0.207912
    outer loop
      vertex 90 11.5219 -0.418114
      vertex 102 11.6958 -1.23607
      vertex 90 11.6958 -1.23607
    endloop
  endfacet
  facet normal 0 1 -0
    outer loop
      vertex 102 11.5219 -0.418114
      vertex 90 11.5219 0.418114
      vertex 102 11.5219 0.418114
    endloop
  endfacet
  facet normal 0 1 0
    outer loop
      vertex 90 11.5219 0.418114
      vertex 102 11.5219 -0.418114
      vertex 90 11.5219 -0.418114
    endloop
  endfacet
  facet normal 1 -0 0
    outer loop
      vertex 110 0 7.5
      vertex 110 0.00958633 -7.5
      vertex 110 0.00958633 7.5
    endloop
  endfacet
  facet normal 1 0 0
    outer loop
      vertex 110 0.00958633 -7.5
      vertex 110 0 7.5
      vertex 110 0 -7.5
    endloop
  endfacet
  facet normal 1 -0 0
    outer loop
      vertex 110 3.49041 7.5
      vertex 110 3.5 -7.5
      vertex 110 3.5 7.5
    endloop
  endfacet
  facet normal 1 0 0
    outer loop
      vertex 110 3.5 -7.5
      vertex 110 3.49041 7.5
      vertex 110 3.49041 -7.5
    endloop
  endfacet
  facet normal 0 1 -0
    outer loop
      vertex 110 3.5 -7.5
      vertex 102 3.5 7.5
      vertex 110 3.5 7.5
    endloop
  endfacet
  facet normal 0 1 0
    outer loop
      vertex 102 3.5 7.5
      vertex 110 3.5 -7.5
      vertex 102 3.5 -7.5
    endloop
  endfacet
  facet normal 0 1 -0
    outer loop
      vertex 90 3.5 -7.5
      vertex 0 3.5 7.5
      vertex 90 3.5 7.5
    endloop
  endfacet
  facet normal 0 1 0
    outer loop
      vertex 0 3.5 7.5
      vertex 90 3.5 -7.5
      vertex 0 3.5 -7.5
    endloop
  endfacet
  facet normal 0.866025 0.5 0
    outer loop
      vertex 1.5987 -9.03821 7.5
      vertex 1.41578 -8.72138 -7.5
      vertex 1.41578 -8.72138 7.5
    endloop
  endfacet
  facet normal 0.866025 0.5 0
    outer loop
      vertex 1.41578 -8.72138 -7.5
      vertex 1.5987 -9.03821 7.5
      vertex 1.5987 -9.03821 -7.5
    endloop
  endfacet
  facet normal 0.743146 0.66913 0
    outer loop
      vertex 1.41578 -8.72138 7.5
      vertex 1.17098 -8.4495 -7.5
      vertex 1.17098 -8.4495 7.5
    endloop
  endfacet
  facet normal 0.743146 0.66913 0
    outer loop
      vertex 1.17098 -8.4495 -7.5
      vertex 1.41578 -8.72138 7.5
      vertex 1.41578 -8.72138 -7.5
    endloop
  endfacet
  facet normal 0.207911 0.978148 -0
    outer loop
      vertex 0.540779 -8.08565 -7.5
      vertex 0.182924 -8.00959 7.5
      vertex 0.540779 -8.08565 7.5
    endloop
  endfacet
  facet normal 0.207911 0.978148 0
    outer loop
      vertex 0.182924 -8.00959 7.5
      vertex 0.540779 -8.08565 -7.5
      vertex 0.182924 -8.00959 -7.5
    endloop
  endfacet
  facet normal 0.406737 0.913546 -0
    outer loop
      vertex 0.875 -8.23446 -7.5
      vertex 0.540779 -8.08565 7.5
      vertex 0.875 -8.23446 7.5
    endloop
  endfacet
  facet normal 0.406737 0.913546 0
    outer loop
      vertex 0.540779 -8.08565 7.5
      vertex 0.875 -8.23446 -7.5
      vertex 0.540779 -8.08565 -7.5
    endloop
  endfacet
  facet normal 0.994522 -0.10453 0
    outer loop
      vertex 1.71176 -10.1138 7.5
      vertex 1.75 -9.75 -7.5
      vertex 1.75 -9.75 7.5
    endloop
  endfacet
  facet normal 0.994522 -0.10453 0
    outer loop
      vertex 1.75 -9.75 -7.5
      vertex 1.71176 -10.1138 7.5
      vertex 1.71176 -10.1138 -7.5
    endloop
  endfacet
  facet normal 0.951057 0.309016 0
    outer loop
      vertex 1.71176 -9.38615 7.5
      vertex 1.5987 -9.03821 -7.5
      vertex 1.5987 -9.03821 7.5
    endloop
  endfacet
  facet normal 0.951057 0.309016 0
    outer loop
      vertex 1.5987 -9.03821 -7.5
      vertex 1.71176 -9.38615 7.5
      vertex 1.71176 -9.38615 -7.5
    endloop
  endfacet
  facet normal 0.587786 0.809017 -0
    outer loop
      vertex 1.17098 -8.4495 -7.5
      vertex 0.875 -8.23446 7.5
      vertex 1.17098 -8.4495 7.5
    endloop
  endfacet
  facet normal 0.587786 0.809017 0
    outer loop
      vertex 0.875 -8.23446 7.5
      vertex 1.17098 -8.4495 -7.5
      vertex 0.875 -8.23446 -7.5
    endloop
  endfacet
  facet normal 0 1 -0
    outer loop
      vertex 0.182924 -8.00959 -7.5
      vertex 0 -8.00959 7.5
      vertex 0.182924 -8.00959 7.5
    endloop
  endfacet
  facet normal 0 1 0
    outer loop
      vertex 0 -8.00959 7.5
      vertex 0.182924 -8.00959 -7.5
      vertex 0 -8.00959 -7.5
    endloop
  endfacet
  facet normal 0.994522 0.10453 0
    outer loop
      vertex 1.75 -9.75 7.5
      vertex 1.71176 -9.38615 -7.5
      vertex 1.71176 -9.38615 7.5
    endloop
  endfacet
  facet normal 0.994522 0.10453 0
    outer loop
      vertex 1.71176 -9.38615 -7.5
      vertex 1.75 -9.75 7.5
      vertex 1.75 -9.75 -7.5
    endloop
  endfacet
  facet normal 0.951057 -0.309016 0
    outer loop
      vertex 1.5987 -10.4618 7.5
      vertex 1.71176 -10.1138 -7.5
      vertex 1.71176 -10.1138 7.5
    endloop
  endfacet
  facet normal 0.951057 -0.309016 0
    outer loop
      vertex 1.71176 -10.1138 -7.5
      vertex 1.5987 -10.4618 7.5
      vertex 1.5987 -10.4618 -7.5
    endloop
  endfacet
  facet normal 0.587786 -0.809017 0
    outer loop
      vertex 0.875 -11.2655 -7.5
      vertex 1.17098 -11.0505 7.5
      vertex 0.875 -11.2655 7.5
    endloop
  endfacet
  facet normal 0.587786 -0.809017 0
    outer loop
      vertex 1.17098 -11.0505 7.5
      vertex 0.875 -11.2655 -7.5
      vertex 1.17098 -11.0505 -7.5
    endloop
  endfacet
  facet normal 0.866025 -0.5 0
    outer loop
      vertex 1.41578 -10.7786 7.5
      vertex 1.5987 -10.4618 -7.5
      vertex 1.5987 -10.4618 7.5
    endloop
  endfacet
  facet normal 0.866025 -0.5 0
    outer loop
      vertex 1.5987 -10.4618 -7.5
      vertex 1.41578 -10.7786 7.5
      vertex 1.41578 -10.7786 -7.5
    endloop
  endfacet
  facet normal 0 -1 0
    outer loop
      vertex -0.182924 -11.4904 -7.5
      vertex 0.182924 -11.4904 7.5
      vertex -0.182924 -11.4904 7.5
    endloop
  endfacet
  facet normal 0 -1 -0
    outer loop
      vertex 0.182924 -11.4904 7.5
      vertex -0.182924 -11.4904 -7.5
      vertex 0.182924 -11.4904 -7.5
    endloop
  endfacet
  facet normal 0.207911 -0.978148 0
    outer loop
      vertex 0.182924 -11.4904 -7.5
      vertex 0.540779 -11.4143 7.5
      vertex 0.182924 -11.4904 7.5
    endloop
  endfacet
  facet normal 0.207911 -0.978148 0
    outer loop
      vertex 0.540779 -11.4143 7.5
      vertex 0.182924 -11.4904 -7.5
      vertex 0.540779 -11.4143 -7.5
    endloop
  endfacet
  facet normal 0.406737 -0.913546 0
    outer loop
      vertex 0.540779 -11.4143 -7.5
      vertex 0.875 -11.2655 7.5
      vertex 0.540779 -11.4143 7.5
    endloop
  endfacet
  facet normal 0.406737 -0.913546 0
    outer loop
      vertex 0.875 -11.2655 7.5
      vertex 0.540779 -11.4143 -7.5
      vertex 0.875 -11.2655 -7.5
    endloop
  endfacet
  facet normal 0.743146 -0.66913 0
    outer loop
      vertex 1.17098 -11.0505 7.5
      vertex 1.41578 -10.7786 -7.5
      vertex 1.41578 -10.7786 7.5
    endloop
  endfacet
  facet normal 0.743146 -0.66913 0
    outer loop
      vertex 1.41578 -10.7786 -7.5
      vertex 1.17098 -11.0505 7.5
      vertex 1.17098 -11.0505 -7.5
    endloop
  endfacet
  facet normal -0.207911 -0.978148 0
    outer loop
      vertex -0.331116 -11.4589 -7.5
      vertex -0.182924 -11.4904 7.5
      vertex -0.331116 -11.4589 7.5
    endloop
  endfacet
  facet normal -0.207911 -0.978148 -0
    outer loop
      vertex -0.182924 -11.4904 7.5
      vertex -0.331116 -11.4589 -7.5
      vertex -0.182924 -11.4904 -7.5
    endloop
  endfacet
  facet normal 0.994523 0.10452 0
    outer loop
      vertex 111.75 1.75 7.5
      vertex 111.712 2.11384 -7.5
      vertex 111.712 2.11384 7.5
    endloop
  endfacet
  facet normal 0.994523 0.10452 0
    outer loop
      vertex 111.712 2.11384 -7.5
      vertex 111.75 1.75 7.5
      vertex 111.75 1.75 -7.5
    endloop
  endfacet
  facet normal 0.20791 -0.978148 0
    outer loop
      vertex 110.183 0.00958633 -7.5
      vertex 110.541 0.0856504 7.5
      vertex 110.183 0.00958633 7.5
    endloop
  endfacet
  facet normal 0.20791 -0.978148 0
    outer loop
      vertex 110.541 0.0856504 7.5
      vertex 110.183 0.00958633 -7.5
      vertex 110.541 0.0856504 -7.5
    endloop
  endfacet
  facet normal 0.58779 0.809013 -0
    outer loop
      vertex 111.171 3.0505 -7.5
      vertex 110.875 3.26554 7.5
      vertex 111.171 3.0505 7.5
    endloop
  endfacet
  facet normal 0.58779 0.809013 0
    outer loop
      vertex 110.875 3.26554 7.5
      vertex 111.171 3.0505 -7.5
      vertex 110.875 3.26554 -7.5
    endloop
  endfacet
  facet normal 0.866029 0.499995 0
    outer loop
      vertex 111.599 2.46179 7.5
      vertex 111.416 2.77862 -7.5
      vertex 111.416 2.77862 7.5
    endloop
  endfacet
  facet normal 0.866029 0.499995 0
    outer loop
      vertex 111.416 2.77862 -7.5
      vertex 111.599 2.46179 7.5
      vertex 111.599 2.46179 -7.5
    endloop
  endfacet
  facet normal 0.951051 0.309033 0
    outer loop
      vertex 111.712 2.11384 7.5
      vertex 111.599 2.46179 -7.5
      vertex 111.599 2.46179 7.5
    endloop
  endfacet
  facet normal 0.951051 0.309033 0
    outer loop
      vertex 111.599 2.46179 -7.5
      vertex 111.712 2.11384 7.5
      vertex 111.712 2.11384 -7.5
    endloop
  endfacet
  facet normal 0.74314 0.669136 0
    outer loop
      vertex 111.416 2.77862 7.5
      vertex 111.171 3.0505 -7.5
      vertex 111.171 3.0505 7.5
    endloop
  endfacet
  facet normal 0.74314 0.669136 0
    outer loop
      vertex 111.171 3.0505 -7.5
      vertex 111.416 2.77862 7.5
      vertex 111.416 2.77862 -7.5
    endloop
  endfacet
  facet normal 0.20791 0.978148 -0
    outer loop
      vertex 110.541 3.41435 -7.5
      vertex 110.183 3.49041 7.5
      vertex 110.541 3.41435 7.5
    endloop
  endfacet
  facet normal 0.20791 0.978148 0
    outer loop
      vertex 110.183 3.49041 7.5
      vertex 110.541 3.41435 -7.5
      vertex 110.183 3.49041 -7.5
    endloop
  endfacet
  facet normal 0 1 -0
    outer loop
      vertex 110.183 3.49041 -7.5
      vertex 110 3.49041 7.5
      vertex 110.183 3.49041 7.5
    endloop
  endfacet
  facet normal 0 1 0
    outer loop
      vertex 110 3.49041 7.5
      vertex 110.183 3.49041 -7.5
      vertex 110 3.49041 -7.5
    endloop
  endfacet
  facet normal 0.406737 0.913546 -0
    outer loop
      vertex 110.875 3.26554 -7.5
      vertex 110.541 3.41435 7.5
      vertex 110.875 3.26554 7.5
    endloop
  endfacet
  facet normal 0.406737 0.913546 0
    outer loop
      vertex 110.541 3.41435 7.5
      vertex 110.875 3.26554 -7.5
      vertex 110.541 3.41435 -7.5
    endloop
  endfacet
  facet normal 0.406737 -0.913546 0
    outer loop
      vertex 110.541 0.0856504 -7.5
      vertex 110.875 0.234455 7.5
      vertex 110.541 0.0856504 7.5
    endloop
  endfacet
  facet normal 0.406737 -0.913546 0
    outer loop
      vertex 110.875 0.234455 7.5
      vertex 110.541 0.0856504 -7.5
      vertex 110.875 0.234455 -7.5
    endloop
  endfacet
  facet normal 0.951051 -0.309033 0
    outer loop
      vertex 111.599 1.03821 7.5
      vertex 111.712 1.38615 -7.5
      vertex 111.712 1.38615 7.5
    endloop
  endfacet
  facet normal 0.951051 -0.309033 0
    outer loop
      vertex 111.712 1.38615 -7.5
      vertex 111.599 1.03821 7.5
      vertex 111.599 1.03821 -7.5
    endloop
  endfacet
  facet normal 0.74314 -0.669136 0
    outer loop
      vertex 111.171 0.449496 7.5
      vertex 111.416 0.721375 -7.5
      vertex 111.416 0.721375 7.5
    endloop
  endfacet
  facet normal 0.74314 -0.669136 0
    outer loop
      vertex 111.416 0.721375 -7.5
      vertex 111.171 0.449496 7.5
      vertex 111.171 0.449496 -7.5
    endloop
  endfacet
  facet normal 0.58779 -0.809013 0
    outer loop
      vertex 110.875 0.234455 -7.5
      vertex 111.171 0.449496 7.5
      vertex 110.875 0.234455 7.5
    endloop
  endfacet
  facet normal 0.58779 -0.809013 0
    outer loop
      vertex 111.171 0.449496 7.5
      vertex 110.875 0.234455 -7.5
      vertex 111.171 0.449496 -7.5
    endloop
  endfacet
  facet normal 0.994523 -0.10452 0
    outer loop
      vertex 111.712 1.38615 7.5
      vertex 111.75 1.75 -7.5
      vertex 111.75 1.75 7.5
    endloop
  endfacet
  facet normal 0.994523 -0.10452 0
    outer loop
      vertex 111.75 1.75 -7.5
      vertex 111.712 1.38615 7.5
      vertex 111.712 1.38615 -7.5
    endloop
  endfacet
  facet normal 0.866029 -0.499995 0
    outer loop
      vertex 111.416 0.721375 7.5
      vertex 111.599 1.03821 -7.5
      vertex 111.599 1.03821 7.5
    endloop
  endfacet
  facet normal 0.866029 -0.499995 0
    outer loop
      vertex 111.599 1.03821 -7.5
      vertex 111.416 0.721375 7.5
      vertex 111.416 0.721375 -7.5
    endloop
  endfacet
  facet normal 0 -1 0
    outer loop
      vertex 110 0.00958633 -7.5
      vertex 110.183 0.00958633 7.5
      vertex 110 0.00958633 7.5
    endloop
  endfacet
  facet normal 0 -1 -0
    outer loop
      vertex 110.183 0.00958633 7.5
      vertex 110 0.00958633 -7.5
      vertex 110.183 0.00958633 -7.5
    endloop
  endfacet
endsolid OpenSCAD_Model
